<?xml version="1.0" encoding="utf-8" standalone="no"?>
<!DOCTYPE svg PUBLIC "-//W3C//DTD SVG 1.1//EN"
  "http://www.w3.org/Graphics/SVG/1.1/DTD/svg11.dtd">
<svg xmlns:xlink="http://www.w3.org/1999/xlink" width="502.803906pt" height="252.960178pt" viewBox="0 0 502.803906 252.960178" xmlns="http://www.w3.org/2000/svg" version="1.1">
 <metadata>
  <rdf:RDF xmlns:dc="http://purl.org/dc/elements/1.1/" xmlns:cc="http://creativecommons.org/ns#" xmlns:rdf="http://www.w3.org/1999/02/22-rdf-syntax-ns#">
   <cc:Work>
    <dc:type rdf:resource="http://purl.org/dc/dcmitype/StillImage"/>
    <dc:date>2022-02-13T11:38:58.858504</dc:date>
    <dc:format>image/svg+xml</dc:format>
    <dc:creator>
     <cc:Agent>
      <dc:title>Matplotlib v3.5.0, https://matplotlib.org/</dc:title>
     </cc:Agent>
    </dc:creator>
   </cc:Work>
  </rdf:RDF>
 </metadata>
 <defs>
  <style type="text/css">*{stroke-linejoin: round; stroke-linecap: butt}</style>
 </defs>
 <g id="figure_1">
  <g id="patch_1">
   <path d="M 0 252.960178 
L 502.803906 252.960178 
L 502.803906 0 
L 0 0 
L 0 252.960178 
z
" style="fill: none"/>
  </g>
  <g id="axes_1">
   <g id="patch_2">
    <path d="M 49.203906 228.452366 
L 495.603906 228.452366 
L 495.603906 11.012366 
L 49.203906 11.012366 
L 49.203906 228.452366 
z
" style="fill: none"/>
   </g>
   <g id="matplotlib.axis_1">
    <g id="xtick_1">
     <g id="line2d_1">
      <path d="M 71.105205 228.452366 
L 71.105205 11.012366 
" clip-path="url(#pfa7bb77202)" style="fill: none; stroke-dasharray: 0.5,0.825; stroke-dashoffset: 0; stroke: #9c94aa; stroke-opacity: 0.5; stroke-width: 0.5"/>
     </g>
     <g id="line2d_2">
      <defs>
       <path id="ma67c793643" d="M 0 0 
L 0 3.5 
" style="stroke: #cac5d3; stroke-width: 0.8"/>
      </defs>
      <g>
       <use xlink:href="#ma67c793643" x="71.105205" y="228.452366" style="fill: #cac5d3; stroke: #cac5d3; stroke-width: 0.8"/>
      </g>
     </g>
     <g id="text_1">
      <!-- n -->
      <g style="fill: #cac5d3" transform="translate(68.104424 243.333616)scale(0.1 -0.1)">
       <defs>
        <path id="Monaco-6e" d="M 484 0 
L 484 3491 
L 1066 3491 
L 1066 2728 
Q 1316 3131 1669 3359 
Q 2022 3588 2375 3588 
Q 2684 3588 2937 3423 
Q 3191 3259 3292 2993 
Q 3394 2728 3394 1950 
L 3394 0 
L 2813 0 
L 2813 2022 
Q 2813 2525 2764 2686 
Q 2716 2847 2586 2950 
Q 2456 3053 2303 3053 
Q 1997 3053 1645 2762 
Q 1294 2472 1066 2034 
L 1066 0 
L 484 0 
z
" transform="scale(0.015625)"/>
       </defs>
       <use xlink:href="#Monaco-6e"/>
      </g>
     </g>
    </g>
    <g id="xtick_2">
     <g id="line2d_3">
      <path d="M 87.209101 228.452366 
L 87.209101 11.012366 
" clip-path="url(#pfa7bb77202)" style="fill: none; stroke-dasharray: 0.5,0.825; stroke-dashoffset: 0; stroke: #9c94aa; stroke-opacity: 0.5; stroke-width: 0.5"/>
     </g>
     <g id="line2d_4">
      <g>
       <use xlink:href="#ma67c793643" x="87.209101" y="228.452366" style="fill: #cac5d3; stroke: #cac5d3; stroke-width: 0.8"/>
      </g>
     </g>
     <g id="text_2">
      <!-- e -->
      <g style="fill: #cac5d3" transform="translate(84.20832 243.333616)scale(0.1 -0.1)">
       <defs>
        <path id="Monaco-65" d="M 3388 231 
Q 2691 -100 2069 -100 
Q 1597 -100 1225 134 
Q 853 369 629 805 
Q 406 1241 406 1738 
Q 406 2216 618 2656 
Q 831 3097 1212 3342 
Q 1594 3588 2063 3588 
Q 2684 3588 3061 3144 
Q 3438 2700 3438 1775 
L 3438 1650 
L 1031 1650 
Q 1031 1288 1182 988 
Q 1334 688 1581 538 
Q 1828 388 2144 388 
Q 2706 388 3388 763 
L 3388 231 
z
M 1066 2084 
L 2806 2084 
L 2806 2169 
Q 2806 2597 2597 2850 
Q 2388 3103 2038 3103 
Q 1684 3103 1426 2845 
Q 1169 2588 1066 2084 
z
" transform="scale(0.015625)"/>
       </defs>
       <use xlink:href="#Monaco-65"/>
      </g>
     </g>
    </g>
    <g id="xtick_3">
     <g id="line2d_5">
      <path d="M 103.312997 228.452366 
L 103.312997 11.012366 
" clip-path="url(#pfa7bb77202)" style="fill: none; stroke-dasharray: 0.5,0.825; stroke-dashoffset: 0; stroke: #9c94aa; stroke-opacity: 0.5; stroke-width: 0.5"/>
     </g>
     <g id="line2d_6">
      <g>
       <use xlink:href="#ma67c793643" x="103.312997" y="228.452366" style="fill: #cac5d3; stroke: #cac5d3; stroke-width: 0.8"/>
      </g>
     </g>
     <g id="text_3">
      <!-- o -->
      <g style="fill: #cac5d3" transform="translate(100.312216 243.333616)scale(0.1 -0.1)">
       <defs>
        <path id="Monaco-6f" d="M 1922 -97 
Q 1172 -97 722 426 
Q 272 950 272 1747 
Q 272 2544 722 3066 
Q 1172 3588 1922 3588 
Q 2669 3588 3119 3066 
Q 3569 2544 3569 1747 
Q 3569 950 3119 426 
Q 2669 -97 1922 -97 
z
M 1922 388 
Q 2388 388 2663 750 
Q 2938 1113 2938 1747 
Q 2938 2378 2663 2740 
Q 2388 3103 1922 3103 
Q 1453 3103 1178 2740 
Q 903 2378 903 1747 
Q 903 1113 1178 750 
Q 1453 388 1922 388 
z
" transform="scale(0.015625)"/>
       </defs>
       <use xlink:href="#Monaco-6f"/>
      </g>
     </g>
    </g>
    <g id="xtick_4">
     <g id="line2d_7">
      <path d="M 119.416893 228.452366 
L 119.416893 11.012366 
" clip-path="url(#pfa7bb77202)" style="fill: none; stroke-dasharray: 0.5,0.825; stroke-dashoffset: 0; stroke: #9c94aa; stroke-opacity: 0.5; stroke-width: 0.5"/>
     </g>
     <g id="line2d_8">
      <g>
       <use xlink:href="#ma67c793643" x="119.416893" y="228.452366" style="fill: #cac5d3; stroke: #cac5d3; stroke-width: 0.8"/>
      </g>
     </g>
     <g id="text_4">
      <!-- a -->
      <g style="fill: #cac5d3" transform="translate(116.416112 243.333616)scale(0.1 -0.1)">
       <defs>
        <path id="Monaco-61" d="M 2778 784 
Q 2513 347 2139 125 
Q 1766 -97 1453 -97 
Q 1016 -97 667 281 
Q 319 659 319 1428 
Q 319 2034 550 2511 
Q 781 2988 1168 3264 
Q 1556 3541 2128 3541 
Q 2294 3541 2628 3506 
Q 2678 3500 2778 3491 
L 3363 3491 
L 3363 1025 
Q 3363 394 3494 0 
L 2888 0 
Q 2819 288 2778 784 
z
M 2778 1475 
L 2778 2972 
Q 2469 3053 2203 3053 
Q 1666 3053 1308 2637 
Q 950 2222 950 1506 
Q 950 988 1145 723 
Q 1341 459 1591 459 
Q 1863 459 2191 734 
Q 2519 1009 2778 1475 
z
" transform="scale(0.015625)"/>
       </defs>
       <use xlink:href="#Monaco-61"/>
      </g>
     </g>
    </g>
    <g id="xtick_5">
     <g id="line2d_9">
      <path d="M 135.520789 228.452366 
L 135.520789 11.012366 
" clip-path="url(#pfa7bb77202)" style="fill: none; stroke-dasharray: 0.5,0.825; stroke-dashoffset: 0; stroke: #9c94aa; stroke-opacity: 0.5; stroke-width: 0.5"/>
     </g>
     <g id="line2d_10">
      <g>
       <use xlink:href="#ma67c793643" x="135.520789" y="228.452366" style="fill: #cac5d3; stroke: #cac5d3; stroke-width: 0.8"/>
      </g>
     </g>
     <g id="text_5">
      <!-- r -->
      <g style="fill: #cac5d3" transform="translate(132.520008 243.333616)scale(0.1 -0.1)">
       <defs>
        <path id="Monaco-72" d="M 781 0 
L 781 3491 
L 1363 3491 
L 1363 2728 
Q 1634 3159 1986 3373 
Q 2338 3588 2769 3588 
Q 3084 3588 3400 3491 
L 3400 2231 
L 2841 2231 
L 2841 3028 
Q 2694 3053 2609 3053 
Q 2284 3053 1971 2797 
Q 1659 2541 1363 2028 
L 1363 0 
L 781 0 
z
" transform="scale(0.015625)"/>
       </defs>
       <use xlink:href="#Monaco-72"/>
      </g>
     </g>
    </g>
    <g id="xtick_6">
     <g id="line2d_11">
      <path d="M 151.624685 228.452366 
L 151.624685 11.012366 
" clip-path="url(#pfa7bb77202)" style="fill: none; stroke-dasharray: 0.5,0.825; stroke-dashoffset: 0; stroke: #9c94aa; stroke-opacity: 0.5; stroke-width: 0.5"/>
     </g>
     <g id="line2d_12">
      <g>
       <use xlink:href="#ma67c793643" x="151.624685" y="228.452366" style="fill: #cac5d3; stroke: #cac5d3; stroke-width: 0.8"/>
      </g>
     </g>
     <g id="text_6">
      <!-- u -->
      <g style="fill: #cac5d3" transform="translate(148.623904 243.333616)scale(0.1 -0.1)">
       <defs>
        <path id="Monaco-75" d="M 3356 3491 
L 3356 0 
L 2775 0 
L 2775 766 
Q 2494 334 2150 118 
Q 1806 -97 1463 -97 
Q 1156 -97 901 67 
Q 647 231 547 498 
Q 447 766 447 1541 
L 447 3491 
L 1028 3491 
L 1028 1469 
Q 1028 966 1076 805 
Q 1125 644 1254 541 
Q 1384 438 1534 438 
Q 1841 438 2192 727 
Q 2544 1016 2775 1456 
L 2775 3491 
L 3356 3491 
z
" transform="scale(0.015625)"/>
       </defs>
       <use xlink:href="#Monaco-75"/>
      </g>
     </g>
    </g>
    <g id="xtick_7">
     <g id="line2d_13">
      <path d="M 167.728582 228.452366 
L 167.728582 11.012366 
" clip-path="url(#pfa7bb77202)" style="fill: none; stroke-dasharray: 0.5,0.825; stroke-dashoffset: 0; stroke: #9c94aa; stroke-opacity: 0.5; stroke-width: 0.5"/>
     </g>
     <g id="line2d_14">
      <g>
       <use xlink:href="#ma67c793643" x="167.728582" y="228.452366" style="fill: #cac5d3; stroke: #cac5d3; stroke-width: 0.8"/>
      </g>
     </g>
     <g id="text_7">
      <!-- g -->
      <g style="fill: #cac5d3" transform="translate(164.7278 243.182053)scale(0.1 -0.1)">
       <defs>
        <path id="Monaco-67" d="M 2816 784 
Q 2550 347 2176 125 
Q 1803 -97 1491 -97 
Q 1053 -97 704 281 
Q 356 659 356 1428 
Q 356 2034 587 2511 
Q 819 2988 1206 3264 
Q 1594 3541 2166 3541 
Q 2331 3541 2666 3506 
Q 2716 3500 2816 3491 
L 3400 3491 
L 3400 1022 
Q 3400 141 3376 -54 
Q 3353 -250 3300 -450 
Q 3175 -916 2729 -1184 
Q 2284 -1453 1653 -1453 
Q 1019 -1453 369 -1128 
L 369 -541 
Q 616 -709 977 -839 
Q 1338 -969 1675 -969 
Q 1941 -969 2178 -884 
Q 2416 -800 2563 -641 
Q 2709 -481 2762 -270 
Q 2816 -59 2816 291 
L 2816 784 
z
M 2816 1475 
L 2816 2972 
Q 2506 3053 2241 3053 
Q 1703 3053 1345 2637 
Q 988 2222 988 1506 
Q 988 988 1183 723 
Q 1378 459 1628 459 
Q 1900 459 2228 734 
Q 2556 1009 2816 1475 
z
" transform="scale(0.015625)"/>
       </defs>
       <use xlink:href="#Monaco-67"/>
      </g>
     </g>
    </g>
    <g id="xtick_8">
     <g id="line2d_15">
      <path d="M 183.832478 228.452366 
L 183.832478 11.012366 
" clip-path="url(#pfa7bb77202)" style="fill: none; stroke-dasharray: 0.5,0.825; stroke-dashoffset: 0; stroke: #9c94aa; stroke-opacity: 0.5; stroke-width: 0.5"/>
     </g>
     <g id="line2d_16">
      <g>
       <use xlink:href="#ma67c793643" x="183.832478" y="228.452366" style="fill: #cac5d3; stroke: #cac5d3; stroke-width: 0.8"/>
      </g>
     </g>
     <g id="text_8">
      <!-- y -->
      <g style="fill: #cac5d3" transform="translate(180.831696 243.177366)scale(0.1 -0.1)">
       <defs>
        <path id="Monaco-79" d="M 1769 141 
L 156 3491 
L 797 3491 
L 2081 872 
L 3156 3491 
L 3741 3491 
L 2388 247 
Q 1959 -781 1573 -1118 
Q 1188 -1456 575 -1456 
Q 309 -1456 100 -1409 
L 100 -897 
Q 341 -972 559 -972 
Q 841 -972 1059 -862 
Q 1278 -753 1459 -475 
Q 1641 -197 1716 6 
L 1769 141 
z
" transform="scale(0.015625)"/>
       </defs>
       <use xlink:href="#Monaco-79"/>
      </g>
     </g>
    </g>
    <g id="xtick_9">
     <g id="line2d_17">
      <path d="M 199.936374 228.452366 
L 199.936374 11.012366 
" clip-path="url(#pfa7bb77202)" style="fill: none; stroke-dasharray: 0.5,0.825; stroke-dashoffset: 0; stroke: #9c94aa; stroke-opacity: 0.5; stroke-width: 0.5"/>
     </g>
     <g id="line2d_18">
      <g>
       <use xlink:href="#ma67c793643" x="199.936374" y="228.452366" style="fill: #cac5d3; stroke: #cac5d3; stroke-width: 0.8"/>
      </g>
     </g>
     <g id="text_9">
      <!-- t -->
      <g style="fill: #cac5d3" transform="translate(196.935593 243.333616)scale(0.1 -0.1)">
       <defs>
        <path id="Monaco-74" d="M 3403 141 
Q 2994 -31 2809 -64 
Q 2625 -97 2453 -97 
Q 2088 -97 1784 43 
Q 1481 184 1326 459 
Q 1172 734 1172 1309 
L 1172 2716 
L 300 2716 
L 300 3200 
L 1172 3200 
L 1172 4606 
L 1753 4606 
L 1753 3200 
L 3306 3200 
L 3306 2716 
L 1753 2716 
L 1753 1319 
Q 1753 897 1853 723 
Q 1953 550 2120 469 
Q 2288 388 2516 388 
Q 2938 388 3403 653 
L 3403 141 
z
" transform="scale(0.015625)"/>
       </defs>
       <use xlink:href="#Monaco-74"/>
      </g>
     </g>
    </g>
    <g id="xtick_10">
     <g id="line2d_19">
      <path d="M 216.04027 228.452366 
L 216.04027 11.012366 
" clip-path="url(#pfa7bb77202)" style="fill: none; stroke-dasharray: 0.5,0.825; stroke-dashoffset: 0; stroke: #9c94aa; stroke-opacity: 0.5; stroke-width: 0.5"/>
     </g>
     <g id="line2d_20">
      <g>
       <use xlink:href="#ma67c793643" x="216.04027" y="228.452366" style="fill: #cac5d3; stroke: #cac5d3; stroke-width: 0.8"/>
      </g>
     </g>
     <g id="text_10">
      <!-- v -->
      <g style="fill: #cac5d3" transform="translate(213.039489 243.333616)scale(0.1 -0.1)">
       <defs>
        <path id="Monaco-76" d="M 1619 0 
L 103 3491 
L 741 3491 
L 1938 728 
L 3159 3491 
L 3741 3491 
L 2213 0 
L 1619 0 
z
" transform="scale(0.015625)"/>
       </defs>
       <use xlink:href="#Monaco-76"/>
      </g>
     </g>
    </g>
    <g id="xtick_11">
     <g id="line2d_21">
      <path d="M 232.144166 228.452366 
L 232.144166 11.012366 
" clip-path="url(#pfa7bb77202)" style="fill: none; stroke-dasharray: 0.5,0.825; stroke-dashoffset: 0; stroke: #9c94aa; stroke-opacity: 0.5; stroke-width: 0.5"/>
     </g>
     <g id="line2d_22">
      <g>
       <use xlink:href="#ma67c793643" x="232.144166" y="228.452366" style="fill: #cac5d3; stroke: #cac5d3; stroke-width: 0.8"/>
      </g>
     </g>
     <g id="text_11">
      <!-- d -->
      <g style="fill: #cac5d3" transform="translate(229.143385 243.333616)scale(0.1 -0.1)">
       <defs>
        <path id="Monaco-64" d="M 2816 784 
Q 2550 347 2176 125 
Q 1803 -97 1491 -97 
Q 1053 -97 704 281 
Q 356 659 356 1428 
Q 356 2034 587 2511 
Q 819 2988 1206 3264 
Q 1594 3541 2166 3541 
Q 2331 3541 2666 3506 
Q 2716 3500 2816 3491 
L 2816 5044 
L 3400 5044 
L 3400 0 
L 2816 0 
L 2816 784 
z
M 2816 1475 
L 2816 2972 
Q 2506 3053 2241 3053 
Q 1703 3053 1345 2637 
Q 988 2222 988 1506 
Q 988 988 1183 723 
Q 1378 459 1628 459 
Q 1900 459 2228 734 
Q 2556 1009 2816 1475 
z
" transform="scale(0.015625)"/>
       </defs>
       <use xlink:href="#Monaco-64"/>
      </g>
     </g>
    </g>
    <g id="xtick_12">
     <g id="line2d_23">
      <path d="M 248.248062 228.452366 
L 248.248062 11.012366 
" clip-path="url(#pfa7bb77202)" style="fill: none; stroke-dasharray: 0.5,0.825; stroke-dashoffset: 0; stroke: #9c94aa; stroke-opacity: 0.5; stroke-width: 0.5"/>
     </g>
     <g id="line2d_24">
      <g>
       <use xlink:href="#ma67c793643" x="248.248062" y="228.452366" style="fill: #cac5d3; stroke: #cac5d3; stroke-width: 0.8"/>
      </g>
     </g>
     <g id="text_12">
      <!-- i -->
      <g style="fill: #cac5d3" transform="translate(245.247281 243.333616)scale(0.1 -0.1)">
       <defs>
        <path id="Monaco-69" d="M 1463 0 
L 1463 3006 
L 494 3006 
L 494 3491 
L 2044 3491 
L 2044 484 
L 3016 484 
L 3016 0 
L 1463 0 
z
M 1366 4750 
Q 1366 4947 1500 5044 
Q 1634 5141 1753 5141 
Q 1875 5141 2009 5044 
Q 2144 4947 2144 4750 
Q 2144 4556 2009 4459 
Q 1875 4363 1753 4363 
Q 1634 4363 1500 4459 
Q 1366 4556 1366 4750 
z
" transform="scale(0.015625)"/>
       </defs>
       <use xlink:href="#Monaco-69"/>
      </g>
     </g>
    </g>
    <g id="xtick_13">
     <g id="line2d_25">
      <path d="M 264.351958 228.452366 
L 264.351958 11.012366 
" clip-path="url(#pfa7bb77202)" style="fill: none; stroke-dasharray: 0.5,0.825; stroke-dashoffset: 0; stroke: #9c94aa; stroke-opacity: 0.5; stroke-width: 0.5"/>
     </g>
     <g id="line2d_26">
      <g>
       <use xlink:href="#ma67c793643" x="264.351958" y="228.452366" style="fill: #cac5d3; stroke: #cac5d3; stroke-width: 0.8"/>
      </g>
     </g>
     <g id="text_13">
      <!-- l -->
      <g style="fill: #cac5d3" transform="translate(261.351177 243.333616)scale(0.1 -0.1)">
       <defs>
        <path id="Monaco-6c" d="M 1422 0 
L 1422 4556 
L 378 4556 
L 378 5044 
L 2003 5044 
L 2003 484 
L 3094 484 
L 3094 0 
L 1422 0 
z
" transform="scale(0.015625)"/>
       </defs>
       <use xlink:href="#Monaco-6c"/>
      </g>
     </g>
    </g>
    <g id="xtick_14">
     <g id="line2d_27">
      <path d="M 280.455854 228.452366 
L 280.455854 11.012366 
" clip-path="url(#pfa7bb77202)" style="fill: none; stroke-dasharray: 0.5,0.825; stroke-dashoffset: 0; stroke: #9c94aa; stroke-opacity: 0.5; stroke-width: 0.5"/>
     </g>
     <g id="line2d_28">
      <g>
       <use xlink:href="#ma67c793643" x="280.455854" y="228.452366" style="fill: #cac5d3; stroke: #cac5d3; stroke-width: 0.8"/>
      </g>
     </g>
     <g id="text_14">
      <!-- s -->
      <g style="fill: #cac5d3" transform="translate(277.455073 243.333616)scale(0.1 -0.1)">
       <defs>
        <path id="Monaco-73" d="M 525 184 
L 525 800 
Q 875 572 1265 480 
Q 1656 388 1928 388 
Q 2369 388 2562 530 
Q 2756 672 2756 884 
Q 2756 1025 2666 1125 
Q 2575 1225 2216 1372 
L 2016 1453 
L 1613 1613 
Q 963 1866 794 2081 
Q 622 2294 622 2600 
Q 622 3031 955 3309 
Q 1288 3588 2034 3588 
Q 2594 3588 3094 3425 
L 3094 2897 
Q 2519 3103 2013 3103 
Q 1644 3103 1436 2973 
Q 1228 2844 1228 2650 
Q 1228 2463 1409 2350 
Q 1588 2238 1991 2091 
L 2384 1947 
Q 2925 1750 3144 1519 
Q 3363 1288 3363 941 
Q 3363 488 3014 195 
Q 2666 -97 1900 -97 
Q 1231 -97 525 184 
z
" transform="scale(0.015625)"/>
       </defs>
       <use xlink:href="#Monaco-73"/>
      </g>
     </g>
    </g>
    <g id="xtick_15">
     <g id="line2d_29">
      <path d="M 296.55975 228.452366 
L 296.55975 11.012366 
" clip-path="url(#pfa7bb77202)" style="fill: none; stroke-dasharray: 0.5,0.825; stroke-dashoffset: 0; stroke: #9c94aa; stroke-opacity: 0.5; stroke-width: 0.5"/>
     </g>
     <g id="line2d_30">
      <g>
       <use xlink:href="#ma67c793643" x="296.55975" y="228.452366" style="fill: #cac5d3; stroke: #cac5d3; stroke-width: 0.8"/>
      </g>
     </g>
     <g id="text_15">
      <!-- h -->
      <g style="fill: #cac5d3" transform="translate(293.558969 243.333616)scale(0.1 -0.1)">
       <defs>
        <path id="Monaco-68" d="M 484 0 
L 484 5044 
L 1066 5044 
L 1066 2728 
Q 1316 3131 1669 3359 
Q 2022 3588 2375 3588 
Q 2672 3588 2917 3436 
Q 3163 3284 3259 3069 
Q 3338 2903 3366 2717 
Q 3394 2531 3394 1950 
L 3394 0 
L 2813 0 
L 2813 2022 
Q 2813 2525 2764 2686 
Q 2716 2847 2586 2950 
Q 2456 3053 2303 3053 
Q 1997 3053 1645 2762 
Q 1294 2472 1066 2034 
L 1066 0 
L 484 0 
z
" transform="scale(0.015625)"/>
       </defs>
       <use xlink:href="#Monaco-68"/>
      </g>
     </g>
    </g>
    <g id="xtick_16">
     <g id="line2d_31">
      <path d="M 312.663647 228.452366 
L 312.663647 11.012366 
" clip-path="url(#pfa7bb77202)" style="fill: none; stroke-dasharray: 0.5,0.825; stroke-dashoffset: 0; stroke: #9c94aa; stroke-opacity: 0.5; stroke-width: 0.5"/>
     </g>
     <g id="line2d_32">
      <g>
       <use xlink:href="#ma67c793643" x="312.663647" y="228.452366" style="fill: #cac5d3; stroke: #cac5d3; stroke-width: 0.8"/>
      </g>
     </g>
     <g id="text_16">
      <!-- w -->
      <g style="fill: #cac5d3" transform="translate(309.662865 243.333616)scale(0.1 -0.1)">
       <defs>
        <path id="Monaco-77" d="M 631 0 
L 63 3491 
L 603 3491 
L 934 1366 
L 1022 872 
L 1106 1366 
L 1663 3491 
L 2184 3491 
L 2813 1366 
L 2922 872 
L 2994 1366 
L 3328 3491 
L 3775 3491 
L 3209 0 
L 2666 0 
L 1997 2247 
L 1891 2741 
L 1875 2741 
L 1778 2250 
L 1197 0 
L 631 0 
z
" transform="scale(0.015625)"/>
       </defs>
       <use xlink:href="#Monaco-77"/>
      </g>
     </g>
    </g>
    <g id="xtick_17">
     <g id="line2d_33">
      <path d="M 328.767543 228.452366 
L 328.767543 11.012366 
" clip-path="url(#pfa7bb77202)" style="fill: none; stroke-dasharray: 0.5,0.825; stroke-dashoffset: 0; stroke: #9c94aa; stroke-opacity: 0.5; stroke-width: 0.5"/>
     </g>
     <g id="line2d_34">
      <g>
       <use xlink:href="#ma67c793643" x="328.767543" y="228.452366" style="fill: #cac5d3; stroke: #cac5d3; stroke-width: 0.8"/>
      </g>
     </g>
     <g id="text_17">
      <!-- m -->
      <g style="fill: #cac5d3" transform="translate(325.766761 243.333616)scale(0.1 -0.1)">
       <defs>
        <path id="Monaco-6d" d="M 222 0 
L 222 3491 
L 731 3491 
L 731 2691 
Q 972 3200 1180 3394 
Q 1388 3588 1600 3588 
Q 1853 3588 2008 3389 
Q 2163 3191 2163 2825 
L 2163 2638 
Q 2266 2956 2411 3154 
Q 2556 3353 2712 3470 
Q 2869 3588 3072 3588 
Q 3297 3588 3456 3397 
Q 3616 3206 3616 2638 
L 3616 0 
L 3106 0 
L 3106 2384 
Q 3106 2678 3087 2786 
Q 3069 2894 3012 2950 
Q 2956 3006 2891 3006 
Q 2728 3006 2542 2757 
Q 2356 2509 2163 1934 
L 2163 0 
L 1675 0 
L 1675 2381 
Q 1675 2844 1584 2925 
Q 1494 3006 1422 3006 
Q 1263 3006 1080 2728 
Q 897 2450 731 2016 
L 731 0 
L 222 0 
z
" transform="scale(0.015625)"/>
       </defs>
       <use xlink:href="#Monaco-6d"/>
      </g>
     </g>
    </g>
    <g id="xtick_18">
     <g id="line2d_35">
      <path d="M 344.871439 228.452366 
L 344.871439 11.012366 
" clip-path="url(#pfa7bb77202)" style="fill: none; stroke-dasharray: 0.5,0.825; stroke-dashoffset: 0; stroke: #9c94aa; stroke-opacity: 0.5; stroke-width: 0.5"/>
     </g>
     <g id="line2d_36">
      <g>
       <use xlink:href="#ma67c793643" x="344.871439" y="228.452366" style="fill: #cac5d3; stroke: #cac5d3; stroke-width: 0.8"/>
      </g>
     </g>
     <g id="text_18">
      <!-- ' -->
      <g style="fill: #cac5d3" transform="translate(341.870657 243.333616)scale(0.1 -0.1)">
       <defs>
        <path id="Monaco-27" d="M 2134 3103 
L 1716 3103 
L 1388 5044 
L 2453 5044 
L 2134 3103 
z
" transform="scale(0.015625)"/>
       </defs>
       <use xlink:href="#Monaco-27"/>
      </g>
     </g>
    </g>
    <g id="xtick_19">
     <g id="line2d_37">
      <path d="M 360.975335 228.452366 
L 360.975335 11.012366 
" clip-path="url(#pfa7bb77202)" style="fill: none; stroke-dasharray: 0.5,0.825; stroke-dashoffset: 0; stroke: #9c94aa; stroke-opacity: 0.5; stroke-width: 0.5"/>
     </g>
     <g id="line2d_38">
      <g>
       <use xlink:href="#ma67c793643" x="360.975335" y="228.452366" style="fill: #cac5d3; stroke: #cac5d3; stroke-width: 0.8"/>
      </g>
     </g>
     <g id="text_19">
      <!-- k -->
      <g style="fill: #cac5d3" transform="translate(357.974554 243.333616)scale(0.1 -0.1)">
       <defs>
        <path id="Monaco-6b" d="M 641 0 
L 641 5044 
L 1222 5044 
L 1222 1875 
L 2900 3491 
L 3675 3491 
L 2000 1875 
L 3719 0 
L 2919 0 
L 1222 1875 
L 1222 0 
L 641 0 
z
" transform="scale(0.015625)"/>
       </defs>
       <use xlink:href="#Monaco-6b"/>
      </g>
     </g>
    </g>
    <g id="xtick_20">
     <g id="line2d_39">
      <path d="M 377.079231 228.452366 
L 377.079231 11.012366 
" clip-path="url(#pfa7bb77202)" style="fill: none; stroke-dasharray: 0.5,0.825; stroke-dashoffset: 0; stroke: #9c94aa; stroke-opacity: 0.5; stroke-width: 0.5"/>
     </g>
     <g id="line2d_40">
      <g>
       <use xlink:href="#ma67c793643" x="377.079231" y="228.452366" style="fill: #cac5d3; stroke: #cac5d3; stroke-width: 0.8"/>
      </g>
     </g>
     <g id="text_20">
      <!-- b -->
      <g style="fill: #cac5d3" transform="translate(374.07845 243.333616)scale(0.1 -0.1)">
       <defs>
        <path id="Monaco-62" d="M 1022 2706 
Q 1291 3144 1662 3366 
Q 2034 3588 2347 3588 
Q 2784 3588 3134 3209 
Q 3484 2831 3484 2063 
Q 3484 1456 3251 979 
Q 3019 503 2631 226 
Q 2244 -50 1672 -50 
Q 1509 -50 1172 -16 
Q 1122 -9 1022 0 
L 441 0 
L 441 5044 
L 1022 5044 
L 1022 2706 
z
M 1022 2016 
L 1022 519 
Q 1338 438 1603 438 
Q 2131 438 2492 852 
Q 2853 1266 2853 1984 
Q 2853 2506 2656 2768 
Q 2459 3031 2209 3031 
Q 1938 3031 1611 2756 
Q 1284 2481 1022 2016 
z
" transform="scale(0.015625)"/>
       </defs>
       <use xlink:href="#Monaco-62"/>
      </g>
     </g>
    </g>
    <g id="xtick_21">
     <g id="line2d_41">
      <path d="M 393.183127 228.452366 
L 393.183127 11.012366 
" clip-path="url(#pfa7bb77202)" style="fill: none; stroke-dasharray: 0.5,0.825; stroke-dashoffset: 0; stroke: #9c94aa; stroke-opacity: 0.5; stroke-width: 0.5"/>
     </g>
     <g id="line2d_42">
      <g>
       <use xlink:href="#ma67c793643" x="393.183127" y="228.452366" style="fill: #cac5d3; stroke: #cac5d3; stroke-width: 0.8"/>
      </g>
     </g>
     <g id="text_21">
      <!-- p -->
      <g style="fill: #cac5d3" transform="translate(390.182346 243.333616)scale(0.1 -0.1)">
       <defs>
        <path id="Monaco-70" d="M 1022 2706 
Q 1291 3144 1662 3366 
Q 2034 3588 2347 3588 
Q 2784 3588 3134 3209 
Q 3484 2831 3484 2063 
Q 3484 1456 3251 979 
Q 3019 503 2631 226 
Q 2244 -50 1672 -50 
Q 1509 -50 1172 -16 
Q 1122 -9 1022 0 
L 1022 -1356 
L 441 -1356 
L 441 3491 
L 1022 3491 
L 1022 2706 
z
M 1022 2016 
L 1022 519 
Q 1338 438 1603 438 
Q 2131 438 2492 852 
Q 2853 1266 2853 1984 
Q 2853 2506 2656 2768 
Q 2459 3031 2209 3031 
Q 1938 3031 1611 2756 
Q 1284 2481 1022 2016 
z
" transform="scale(0.015625)"/>
       </defs>
       <use xlink:href="#Monaco-70"/>
      </g>
     </g>
    </g>
    <g id="xtick_22">
     <g id="line2d_43">
      <path d="M 409.287023 228.452366 
L 409.287023 11.012366 
" clip-path="url(#pfa7bb77202)" style="fill: none; stroke-dasharray: 0.5,0.825; stroke-dashoffset: 0; stroke: #9c94aa; stroke-opacity: 0.5; stroke-width: 0.5"/>
     </g>
     <g id="line2d_44">
      <g>
       <use xlink:href="#ma67c793643" x="409.287023" y="228.452366" style="fill: #cac5d3; stroke: #cac5d3; stroke-width: 0.8"/>
      </g>
     </g>
     <g id="text_22">
      <!-- c -->
      <g style="fill: #cac5d3" transform="translate(406.286242 243.333616)scale(0.1 -0.1)">
       <defs>
        <path id="Monaco-63" d="M 3422 100 
Q 2838 -97 2309 -97 
Q 1784 -97 1376 145 
Q 969 388 741 802 
Q 513 1216 513 1744 
Q 513 2538 1030 3063 
Q 1547 3588 2278 3588 
Q 2819 3588 3422 3384 
L 3422 2825 
Q 2813 3103 2331 3103 
Q 2013 3103 1731 2945 
Q 1450 2788 1297 2453 
Q 1144 2119 1144 1766 
Q 1144 1294 1439 866 
Q 1734 438 2366 438 
Q 2556 438 2740 464 
Q 2925 491 3422 659 
L 3422 100 
z
" transform="scale(0.015625)"/>
       </defs>
       <use xlink:href="#Monaco-63"/>
      </g>
     </g>
    </g>
    <g id="xtick_23">
     <g id="line2d_45">
      <path d="M 425.390919 228.452366 
L 425.390919 11.012366 
" clip-path="url(#pfa7bb77202)" style="fill: none; stroke-dasharray: 0.5,0.825; stroke-dashoffset: 0; stroke: #9c94aa; stroke-opacity: 0.5; stroke-width: 0.5"/>
     </g>
     <g id="line2d_46">
      <g>
       <use xlink:href="#ma67c793643" x="425.390919" y="228.452366" style="fill: #cac5d3; stroke: #cac5d3; stroke-width: 0.8"/>
      </g>
     </g>
     <g id="text_23">
      <!-- f -->
      <g style="fill: #cac5d3" transform="translate(422.390138 243.333616)scale(0.1 -0.1)">
       <defs>
        <path id="Monaco-66" d="M 1297 0 
L 1297 2716 
L 522 2716 
L 522 3200 
L 1297 3200 
L 1297 3363 
Q 1297 4053 1453 4384 
Q 1609 4716 1936 4928 
Q 2263 5141 2800 5141 
Q 3206 5141 3625 5056 
L 3625 4503 
Q 3172 4653 2822 4653 
Q 2544 4653 2331 4550 
Q 2119 4447 1998 4214 
Q 1878 3981 1878 3425 
L 1878 3200 
L 3263 3200 
L 3263 2716 
L 1878 2716 
L 1878 0 
L 1297 0 
z
" transform="scale(0.015625)"/>
       </defs>
       <use xlink:href="#Monaco-66"/>
      </g>
     </g>
    </g>
    <g id="xtick_24">
     <g id="line2d_47">
      <path d="M 441.494815 228.452366 
L 441.494815 11.012366 
" clip-path="url(#pfa7bb77202)" style="fill: none; stroke-dasharray: 0.5,0.825; stroke-dashoffset: 0; stroke: #9c94aa; stroke-opacity: 0.5; stroke-width: 0.5"/>
     </g>
     <g id="line2d_48">
      <g>
       <use xlink:href="#ma67c793643" x="441.494815" y="228.452366" style="fill: #cac5d3; stroke: #cac5d3; stroke-width: 0.8"/>
      </g>
     </g>
     <g id="text_24">
      <!-- ) -->
      <g style="fill: #cac5d3" transform="translate(438.494034 243.333616)scale(0.1 -0.1)">
       <defs>
        <path id="Monaco-29" d="M 491 5141 
Q 1356 5084 1950 4648 
Q 2544 4213 2898 3472 
Q 3253 2731 3253 1988 
Q 3253 1244 2898 503 
Q 2544 -238 1950 -673 
Q 1356 -1109 491 -1163 
L 491 -678 
Q 1144 -616 1614 -237 
Q 2084 141 2354 728 
Q 2625 1316 2625 1988 
Q 2625 2659 2354 3246 
Q 2084 3834 1614 4214 
Q 1144 4594 491 4653 
L 491 5141 
z
" transform="scale(0.015625)"/>
       </defs>
       <use xlink:href="#Monaco-29"/>
      </g>
     </g>
    </g>
    <g id="xtick_25">
     <g id="line2d_49">
      <path d="M 457.598711 228.452366 
L 457.598711 11.012366 
" clip-path="url(#pfa7bb77202)" style="fill: none; stroke-dasharray: 0.5,0.825; stroke-dashoffset: 0; stroke: #9c94aa; stroke-opacity: 0.5; stroke-width: 0.5"/>
     </g>
     <g id="line2d_50">
      <g>
       <use xlink:href="#ma67c793643" x="457.598711" y="228.452366" style="fill: #cac5d3; stroke: #cac5d3; stroke-width: 0.8"/>
      </g>
     </g>
     <g id="text_25">
      <!-- ( -->
      <g style="fill: #cac5d3" transform="translate(454.59793 243.333616)scale(0.1 -0.1)">
       <defs>
        <path id="Monaco-28" d="M 3350 -1163 
Q 2484 -1109 1890 -673 
Q 1297 -238 942 503 
Q 588 1244 588 1988 
Q 588 2731 942 3472 
Q 1297 4213 1890 4648 
Q 2484 5084 3350 5141 
L 3350 4653 
Q 2697 4594 2226 4214 
Q 1756 3834 1487 3246 
Q 1219 2659 1219 1988 
Q 1219 1316 1487 728 
Q 1756 141 2226 -237 
Q 2697 -616 3350 -678 
L 3350 -1163 
z
" transform="scale(0.015625)"/>
       </defs>
       <use xlink:href="#Monaco-28"/>
      </g>
     </g>
    </g>
    <g id="xtick_26">
     <g id="line2d_51">
      <path d="M 473.702608 228.452366 
L 473.702608 11.012366 
" clip-path="url(#pfa7bb77202)" style="fill: none; stroke-dasharray: 0.5,0.825; stroke-dashoffset: 0; stroke: #9c94aa; stroke-opacity: 0.5; stroke-width: 0.5"/>
     </g>
     <g id="line2d_52">
      <g>
       <use xlink:href="#ma67c793643" x="473.702608" y="228.452366" style="fill: #cac5d3; stroke: #cac5d3; stroke-width: 0.8"/>
      </g>
     </g>
     <g id="text_26">
      <!-- j -->
      <g style="fill: #cac5d3" transform="translate(470.701826 243.485178)scale(0.1 -0.1)">
       <defs>
        <path id="Monaco-6a" d="M 538 -1369 
L 538 -825 
Q 1025 -969 1359 -969 
Q 1650 -969 1853 -867 
Q 2056 -766 2170 -525 
Q 2284 -284 2284 313 
L 2284 3006 
L 803 3006 
L 803 3491 
L 2866 3491 
L 2866 422 
Q 2866 -466 2656 -811 
Q 2447 -1156 2150 -1306 
Q 1853 -1456 1338 -1456 
Q 966 -1456 538 -1369 
z
M 2188 4750 
Q 2188 4947 2320 5044 
Q 2453 5141 2575 5141 
Q 2697 5141 2830 5044 
Q 2963 4947 2963 4750 
Q 2963 4556 2830 4459 
Q 2697 4363 2575 4363 
Q 2453 4363 2320 4459 
Q 2188 4556 2188 4750 
z
" transform="scale(0.015625)"/>
       </defs>
       <use xlink:href="#Monaco-6a"/>
      </g>
     </g>
    </g>
   </g>
   <g id="matplotlib.axis_2">
    <g id="ytick_1">
     <g id="line2d_53">
      <path d="M 49.203906 228.452366 
L 495.603906 228.452366 
" clip-path="url(#pfa7bb77202)" style="fill: none; stroke-dasharray: 0.5,0.825; stroke-dashoffset: 0; stroke: #9c94aa; stroke-opacity: 0.5; stroke-width: 0.5"/>
     </g>
     <g id="line2d_54">
      <defs>
       <path id="ma1abd0e0d1" d="M 0 0 
L -3.5 0 
" style="stroke: #cac5d3; stroke-width: 0.8"/>
      </defs>
      <g>
       <use xlink:href="#ma1abd0e0d1" x="49.203906" y="228.452366" style="fill: #cac5d3; stroke: #cac5d3; stroke-width: 0.8"/>
      </g>
     </g>
     <g id="text_27">
      <!-- 0 -->
      <g style="fill: #cac5d3" transform="translate(36.202344 232.392991)scale(0.1 -0.1)">
       <defs>
        <path id="Monaco-30" d="M 1919 4994 
Q 2747 4994 3181 4298 
Q 3616 3603 3616 2425 
Q 3616 1244 3181 548 
Q 2747 -147 1919 -147 
Q 1094 -147 658 548 
Q 222 1244 222 2425 
Q 222 3603 658 4298 
Q 1094 4994 1919 4994 
z
M 972 1388 
L 2650 4016 
Q 2491 4306 2305 4407 
Q 2119 4509 1919 4509 
Q 1397 4509 1125 3929 
Q 853 3350 853 2459 
Q 853 2256 865 2022 
Q 878 1788 972 1388 
z
M 2859 3438 
L 1194 794 
Q 1328 566 1503 452 
Q 1678 338 1894 338 
Q 2488 338 2738 1002 
Q 2988 1666 2988 2475 
Q 2988 2975 2859 3438 
z
" transform="scale(0.015625)"/>
       </defs>
       <use xlink:href="#Monaco-30"/>
      </g>
     </g>
    </g>
    <g id="ytick_2">
     <g id="line2d_55">
      <path d="M 49.203906 184.990018 
L 495.603906 184.990018 
" clip-path="url(#pfa7bb77202)" style="fill: none; stroke-dasharray: 0.5,0.825; stroke-dashoffset: 0; stroke: #9c94aa; stroke-opacity: 0.5; stroke-width: 0.5"/>
     </g>
     <g id="line2d_56">
      <g>
       <use xlink:href="#ma1abd0e0d1" x="49.203906" y="184.990018" style="fill: #cac5d3; stroke: #cac5d3; stroke-width: 0.8"/>
      </g>
     </g>
     <g id="text_28">
      <!-- 2 -->
      <g style="fill: #cac5d3" transform="translate(36.202344 188.930643)scale(0.1 -0.1)">
       <defs>
        <path id="Monaco-32" d="M 3400 0 
L 466 0 
L 466 534 
Q 466 741 550 977 
Q 634 1213 871 1506 
Q 1109 1800 1375 2072 
L 1706 2409 
Q 1806 2513 2143 2888 
Q 2481 3263 2589 3463 
Q 2697 3663 2697 3856 
Q 2697 4169 2447 4339 
Q 2197 4509 1884 4509 
Q 1706 4509 1486 4468 
Q 1266 4428 1100 4373 
Q 934 4319 563 4150 
L 563 4666 
Q 956 4853 1351 4923 
Q 1747 4994 2003 4994 
Q 2381 4994 2698 4870 
Q 3016 4747 3170 4487 
Q 3325 4228 3325 3934 
Q 3325 3606 3126 3262 
Q 2928 2919 2378 2378 
L 2022 2025 
L 1722 1731 
Q 1438 1444 1263 1175 
Q 1088 906 1069 534 
L 3400 534 
L 3400 0 
z
" transform="scale(0.015625)"/>
       </defs>
       <use xlink:href="#Monaco-32"/>
      </g>
     </g>
    </g>
    <g id="ytick_3">
     <g id="line2d_57">
      <path d="M 49.203906 141.527669 
L 495.603906 141.527669 
" clip-path="url(#pfa7bb77202)" style="fill: none; stroke-dasharray: 0.5,0.825; stroke-dashoffset: 0; stroke: #9c94aa; stroke-opacity: 0.5; stroke-width: 0.5"/>
     </g>
     <g id="line2d_58">
      <g>
       <use xlink:href="#ma1abd0e0d1" x="49.203906" y="141.527669" style="fill: #cac5d3; stroke: #cac5d3; stroke-width: 0.8"/>
      </g>
     </g>
     <g id="text_29">
      <!-- 4 -->
      <g style="fill: #cac5d3" transform="translate(36.202344 145.468294)scale(0.1 -0.1)">
       <defs>
        <path id="Monaco-34" d="M 2209 0 
L 2209 1356 
L 150 1356 
L 150 1844 
L 2209 4850 
L 2794 4850 
L 2794 1844 
L 3691 1844 
L 3691 1356 
L 2794 1356 
L 2794 0 
L 2209 0 
z
M 2209 1844 
L 2209 3969 
L 769 1844 
L 2209 1844 
z
" transform="scale(0.015625)"/>
       </defs>
       <use xlink:href="#Monaco-34"/>
      </g>
     </g>
    </g>
    <g id="ytick_4">
     <g id="line2d_59">
      <path d="M 49.203906 98.065321 
L 495.603906 98.065321 
" clip-path="url(#pfa7bb77202)" style="fill: none; stroke-dasharray: 0.5,0.825; stroke-dashoffset: 0; stroke: #9c94aa; stroke-opacity: 0.5; stroke-width: 0.5"/>
     </g>
     <g id="line2d_60">
      <g>
       <use xlink:href="#ma1abd0e0d1" x="49.203906" y="98.065321" style="fill: #cac5d3; stroke: #cac5d3; stroke-width: 0.8"/>
      </g>
     </g>
     <g id="text_30">
      <!-- 6 -->
      <g style="fill: #cac5d3" transform="translate(36.202344 102.005946)scale(0.1 -0.1)">
       <defs>
        <path id="Monaco-36" d="M 913 2275 
Q 1138 2609 1470 2820 
Q 1803 3031 2203 3031 
Q 2581 3031 2920 2847 
Q 3259 2663 3437 2333 
Q 3616 2003 3616 1566 
Q 3616 875 3173 364 
Q 2731 -147 2009 -147 
Q 1159 -147 739 564 
Q 319 1275 319 2372 
Q 319 3584 853 4289 
Q 1388 4994 2300 4994 
Q 2791 4994 3253 4850 
L 3253 4263 
Q 2734 4509 2275 4509 
Q 1625 4509 1269 3912 
Q 913 3316 913 2400 
L 913 2275 
z
M 2053 338 
Q 2288 338 2525 477 
Q 2763 616 2898 905 
Q 3034 1194 3034 1534 
Q 3034 1978 2804 2262 
Q 2575 2547 2150 2547 
Q 1709 2547 1426 2217 
Q 1144 1888 1144 1416 
Q 1144 941 1420 639 
Q 1697 338 2053 338 
z
" transform="scale(0.015625)"/>
       </defs>
       <use xlink:href="#Monaco-36"/>
      </g>
     </g>
    </g>
    <g id="ytick_5">
     <g id="line2d_61">
      <path d="M 49.203906 54.602973 
L 495.603906 54.602973 
" clip-path="url(#pfa7bb77202)" style="fill: none; stroke-dasharray: 0.5,0.825; stroke-dashoffset: 0; stroke: #9c94aa; stroke-opacity: 0.5; stroke-width: 0.5"/>
     </g>
     <g id="line2d_62">
      <g>
       <use xlink:href="#ma1abd0e0d1" x="49.203906" y="54.602973" style="fill: #cac5d3; stroke: #cac5d3; stroke-width: 0.8"/>
      </g>
     </g>
     <g id="text_31">
      <!-- 8 -->
      <g style="fill: #cac5d3" transform="translate(36.202344 58.543598)scale(0.1 -0.1)">
       <defs>
        <path id="Monaco-38" d="M 1434 2616 
L 1328 2694 
Q 1106 2850 893 3154 
Q 681 3459 681 3825 
Q 681 4309 1062 4651 
Q 1444 4994 2031 4994 
Q 2391 4994 2678 4864 
Q 2966 4734 3122 4481 
Q 3278 4228 3278 3928 
Q 3278 3722 3206 3530 
Q 3134 3338 2992 3148 
Q 2850 2959 2428 2616 
L 2691 2406 
Q 3150 2031 3309 1759 
Q 3469 1488 3469 1150 
Q 3469 625 3087 239 
Q 2706 -147 1944 -147 
Q 1178 -147 797 214 
Q 416 575 416 1109 
Q 416 1906 1434 2616 
z
M 2031 2913 
Q 2472 3247 2583 3472 
Q 2694 3697 2694 3891 
Q 2694 4125 2487 4317 
Q 2281 4509 1956 4509 
Q 1606 4509 1423 4300 
Q 1241 4091 1241 3866 
Q 1241 3647 1394 3453 
Q 1547 3259 1884 3019 
L 2031 2913 
z
M 1872 2306 
Q 1047 1672 1047 1119 
Q 1047 791 1319 566 
Q 1591 341 1963 341 
Q 2303 341 2572 556 
Q 2841 772 2841 1094 
Q 2841 1409 2514 1734 
Q 2188 2059 2059 2159 
L 1872 2306 
z
" transform="scale(0.015625)"/>
       </defs>
       <use xlink:href="#Monaco-38"/>
      </g>
     </g>
    </g>
    <g id="ytick_6">
     <g id="line2d_63">
      <path d="M 49.203906 11.140625 
L 495.603906 11.140625 
" clip-path="url(#pfa7bb77202)" style="fill: none; stroke-dasharray: 0.5,0.825; stroke-dashoffset: 0; stroke: #9c94aa; stroke-opacity: 0.5; stroke-width: 0.5"/>
     </g>
     <g id="line2d_64">
      <g>
       <use xlink:href="#ma1abd0e0d1" x="49.203906" y="11.140625" style="fill: #cac5d3; stroke: #cac5d3; stroke-width: 0.8"/>
      </g>
     </g>
     <g id="text_32">
      <!-- 10 -->
      <g style="fill: #cac5d3" transform="translate(30.200781 15.08125)scale(0.1 -0.1)">
       <defs>
        <path id="Monaco-31" d="M 1775 484 
L 1775 4228 
Q 1513 4019 1266 3872 
Q 1019 3725 588 3572 
L 588 4097 
Q 1272 4388 1775 4850 
L 2356 4850 
L 2356 484 
L 3522 484 
L 3522 0 
L 588 0 
L 588 484 
L 1775 484 
z
" transform="scale(0.015625)"/>
       </defs>
       <use xlink:href="#Monaco-31"/>
       <use xlink:href="#Monaco-30" x="60.009766"/>
      </g>
     </g>
    </g>
    <g id="text_33">
     <!-- I -->
     <g style="fill: #cac5d3" transform="translate(7.2 117.613616)scale(0.1 -0.1)">
      <defs>
       <path id="Monaco-49" d="M 538 0 
L 538 484 
L 1603 484 
L 1603 4363 
L 538 4363 
L 538 4850 
L 3300 4850 
L 3300 4363 
L 2234 4363 
L 2234 484 
L 3300 484 
L 3300 0 
L 538 0 
z
" transform="scale(0.015625)"/>
      </defs>
      <use xlink:href="#Monaco-49"/>
     </g>
    </g>
   </g>
   <g id="patch_3">
    <path d="M 49.203906 228.452366 
L 49.203906 11.012366 
" style="fill: none; stroke: #cac5d3; stroke-width: 0.8; stroke-linejoin: miter; stroke-linecap: square"/>
   </g>
   <g id="patch_4">
    <path d="M 495.603906 228.452366 
L 495.603906 11.012366 
" style="fill: none; stroke: #cac5d3; stroke-width: 0.8; stroke-linejoin: miter; stroke-linecap: square"/>
   </g>
   <g id="patch_5">
    <path d="M 49.203906 228.452366 
L 495.603906 228.452366 
" style="fill: none; stroke: #cac5d3; stroke-width: 0.8; stroke-linejoin: miter; stroke-linecap: square"/>
   </g>
   <g id="patch_6">
    <path d="M 49.203906 11.012366 
L 495.603906 11.012366 
" style="fill: none; stroke: #cac5d3; stroke-width: 0.8; stroke-linejoin: miter; stroke-linecap: square"/>
   </g>
   <g id="patch_7">
    <path d="M 69.494815 228.452366 
L 72.715595 228.452366 
L 72.715595 165.901814 
L 69.494815 165.901814 
z
" clip-path="url(#pfa7bb77202)" style="fill: #cac5d3"/>
   </g>
   <g id="patch_8">
    <path d="M 85.598711 228.452366 
L 88.819491 228.452366 
L 88.819491 165.271612 
L 85.598711 165.271612 
z
" clip-path="url(#pfa7bb77202)" style="fill: #cac5d3"/>
   </g>
   <g id="patch_9">
    <path d="M 101.702608 228.452366 
L 104.923387 228.452366 
L 104.923387 159.139036 
L 101.702608 159.139036 
z
" clip-path="url(#pfa7bb77202)" style="fill: #cac5d3"/>
   </g>
   <g id="patch_10">
    <path d="M 117.806504 228.452366 
L 121.027283 228.452366 
L 121.027283 147.286111 
L 117.806504 147.286111 
z
" clip-path="url(#pfa7bb77202)" style="fill: #cac5d3"/>
   </g>
   <g id="patch_11">
    <path d="M 133.9104 228.452366 
L 137.131179 228.452366 
L 137.131179 141.057496 
L 133.9104 141.057496 
z
" clip-path="url(#pfa7bb77202)" style="fill: #cac5d3"/>
   </g>
   <g id="patch_12">
    <path d="M 150.014296 228.452366 
L 153.235075 228.452366 
L 153.235075 138.54804 
L 150.014296 138.54804 
z
" clip-path="url(#pfa7bb77202)" style="fill: #cac5d3"/>
   </g>
   <g id="patch_13">
    <path d="M 166.118192 228.452366 
L 169.338971 228.452366 
L 169.338971 137.407862 
L 166.118192 137.407862 
z
" clip-path="url(#pfa7bb77202)" style="fill: #cac5d3"/>
   </g>
   <g id="patch_14">
    <path d="M 182.222088 228.452366 
L 185.442867 228.452366 
L 185.442867 133.715192 
L 182.222088 133.715192 
z
" clip-path="url(#pfa7bb77202)" style="fill: #cac5d3"/>
   </g>
   <g id="patch_15">
    <path d="M 198.325984 228.452366 
L 201.546763 228.452366 
L 201.546763 132.380886 
L 198.325984 132.380886 
z
" clip-path="url(#pfa7bb77202)" style="fill: #cac5d3"/>
   </g>
   <g id="patch_16">
    <path d="M 214.42988 228.452366 
L 217.650659 228.452366 
L 217.650659 126.391026 
L 214.42988 126.391026 
z
" clip-path="url(#pfa7bb77202)" style="fill: #cac5d3"/>
   </g>
   <g id="patch_17">
    <path d="M 230.533776 228.452366 
L 233.754556 228.452366 
L 233.754556 122.283099 
L 230.533776 122.283099 
z
" clip-path="url(#pfa7bb77202)" style="fill: #cac5d3"/>
   </g>
   <g id="patch_18">
    <path d="M 246.637672 228.452366 
L 249.858452 228.452366 
L 249.858452 121.00327 
L 246.637672 121.00327 
z
" clip-path="url(#pfa7bb77202)" style="fill: #cac5d3"/>
   </g>
   <g id="patch_19">
    <path d="M 262.741569 228.452366 
L 265.962348 228.452366 
L 265.962348 117.554581 
L 262.741569 117.554581 
z
" clip-path="url(#pfa7bb77202)" style="fill: #cac5d3"/>
   </g>
   <g id="patch_20">
    <path d="M 278.845465 228.452366 
L 282.066244 228.452366 
L 282.066244 111.984018 
L 278.845465 111.984018 
z
" clip-path="url(#pfa7bb77202)" style="fill: #cac5d3"/>
   </g>
   <g id="patch_21">
    <path d="M 294.949361 228.452366 
L 298.17014 228.452366 
L 298.17014 108.291348 
L 294.949361 108.291348 
z
" clip-path="url(#pfa7bb77202)" style="fill: #cac5d3"/>
   </g>
   <g id="patch_22">
    <path d="M 311.053257 228.452366 
L 314.274036 228.452366 
L 314.274036 107.29598 
L 311.053257 107.29598 
z
" clip-path="url(#pfa7bb77202)" style="fill: #cac5d3"/>
   </g>
   <g id="patch_23">
    <path d="M 327.157153 228.452366 
L 330.377932 228.452366 
L 330.377932 93.556049 
L 327.157153 93.556049 
z
" clip-path="url(#pfa7bb77202)" style="fill: #cac5d3"/>
   </g>
   <g id="patch_24">
    <path d="M 343.261049 228.452366 
L 346.481828 228.452366 
L 346.481828 91.94793 
L 343.261049 91.94793 
z
" clip-path="url(#pfa7bb77202)" style="fill: #cac5d3"/>
   </g>
   <g id="patch_25">
    <path d="M 359.364945 228.452366 
L 362.585724 228.452366 
L 362.585724 88.460844 
L 359.364945 88.460844 
z
" clip-path="url(#pfa7bb77202)" style="fill: #cac5d3"/>
   </g>
   <g id="patch_26">
    <path d="M 375.468841 228.452366 
L 378.689621 228.452366 
L 378.689621 84.536797 
L 375.468841 84.536797 
z
" clip-path="url(#pfa7bb77202)" style="fill: #cac5d3"/>
   </g>
   <g id="patch_27">
    <path d="M 391.572737 228.452366 
L 394.793517 228.452366 
L 394.793517 77.540922 
L 391.572737 77.540922 
z
" clip-path="url(#pfa7bb77202)" style="fill: #cac5d3"/>
   </g>
   <g id="patch_28">
    <path d="M 407.676634 228.452366 
L 410.897413 228.452366 
L 410.897413 74.812988 
L 407.676634 74.812988 
z
" clip-path="url(#pfa7bb77202)" style="fill: #cac5d3"/>
   </g>
   <g id="patch_29">
    <path d="M 423.78053 228.452366 
L 427.001309 228.452366 
L 427.001309 68.521669 
L 423.78053 68.521669 
z
" clip-path="url(#pfa7bb77202)" style="fill: #cac5d3"/>
   </g>
   <g id="patch_30">
    <path d="M 439.884426 228.452366 
L 443.105205 228.452366 
L 443.105205 43.097826 
L 439.884426 43.097826 
z
" clip-path="url(#pfa7bb77202)" style="fill: #cac5d3"/>
   </g>
   <g id="patch_31">
    <path d="M 455.988322 228.452366 
L 459.209101 228.452366 
L 459.209101 43.097826 
L 455.988322 43.097826 
z
" clip-path="url(#pfa7bb77202)" style="fill: #cac5d3"/>
   </g>
   <g id="patch_32">
    <path d="M 472.092218 228.452366 
L 475.312997 228.452366 
L 475.312997 21.366652 
L 472.092218 21.366652 
z
" clip-path="url(#pfa7bb77202)" style="fill: #cac5d3"/>
   </g>
  </g>
 </g>
 <defs>
  <clipPath id="pfa7bb77202">
   <rect x="49.203906" y="11.012366" width="446.4" height="217.44"/>
  </clipPath>
 </defs>
</svg>
