<?xml version="1.0" encoding="utf-8" standalone="no"?>
<!DOCTYPE svg PUBLIC "-//W3C//DTD SVG 1.1//EN"
  "http://www.w3.org/Graphics/SVG/1.1/DTD/svg11.dtd">
<svg xmlns:xlink="http://www.w3.org/1999/xlink" width="393.2pt" height="197.715313pt" viewBox="0 0 393.2 197.715313" xmlns="http://www.w3.org/2000/svg" version="1.1">
 <metadata>
  <rdf:RDF xmlns:dc="http://purl.org/dc/elements/1.1/" xmlns:cc="http://creativecommons.org/ns#" xmlns:rdf="http://www.w3.org/1999/02/22-rdf-syntax-ns#">
   <cc:Work>
    <dc:type rdf:resource="http://purl.org/dc/dcmitype/StillImage"/>
    <dc:date>2022-07-07T16:10:03.466067</dc:date>
    <dc:format>image/svg+xml</dc:format>
    <dc:creator>
     <cc:Agent>
      <dc:title>Matplotlib v3.5.2, https://matplotlib.org/</dc:title>
     </cc:Agent>
    </dc:creator>
   </cc:Work>
  </rdf:RDF>
 </metadata>
 <defs>
  <style type="text/css">*{stroke-linejoin: round; stroke-linecap: butt}</style>
 </defs>
 <g id="figure_1">
  <g id="patch_1">
   <path d="M 0 197.715313 
L 393.2 197.715313 
L 393.2 0 
L 0 0 
z
" style="fill: #131516"/>
  </g>
  <g id="axes_1">
   <g id="patch_2">
    <path d="M 51.2 173.915313 
L 386 173.915313 
L 386 7.595313 
L 51.2 7.595313 
L 51.2 173.915313 
z
" style="fill: none"/>
   </g>
   <g id="matplotlib.axis_1">
    <g id="xtick_1">
     <g id="line2d_1">
      <path d="M 68.814746 173.915313 
L 68.814746 7.595313 
" clip-path="url(#p15ac16aa67)" style="fill: none; stroke-dasharray: 2.96,1.28; stroke-dashoffset: 0; stroke: #bbb5ac; stroke-opacity: 0.5; stroke-width: 0.8"/>
     </g>
     <g id="line2d_2">
      <defs>
       <path id="m96038b334e" d="M 0 0 
L 0 3.5 
" style="stroke: #bbb5ac; stroke-width: 0.8"/>
      </defs>
      <g>
       <use xlink:href="#m96038b334e" x="68.814746" y="173.915313" style="fill: #bbb5ac; stroke: #bbb5ac; stroke-width: 0.8"/>
      </g>
     </g>
     <g id="text_1">
      <!-- n -->
      <g style="fill: #d2cec8" transform="translate(65.814746 188.215313)scale(0.1 -0.1)">
       <defs>
        <path id="JetBrainsMono-Regular-6e" d="M 589 0 
L 589 3520 
L 1165 3520 
L 1165 2848 
L 1171 2848 
Q 1216 3200 1459 3392 
Q 1702 3584 2106 3584 
Q 2637 3584 2950 3257 
Q 3264 2931 3264 2368 
L 3264 0 
L 2688 0 
L 2688 2304 
Q 2688 2682 2486 2883 
Q 2285 3085 1939 3085 
Q 1581 3085 1373 2867 
Q 1165 2650 1165 2240 
L 1165 0 
L 589 0 
z
" transform="scale(0.015625)"/>
       </defs>
       <use xlink:href="#JetBrainsMono-Regular-6e"/>
      </g>
     </g>
    </g>
    <g id="xtick_2">
     <g id="line2d_3">
      <path d="M 80.797566 173.915313 
L 80.797566 7.595313 
" clip-path="url(#p15ac16aa67)" style="fill: none; stroke-dasharray: 2.96,1.28; stroke-dashoffset: 0; stroke: #bbb5ac; stroke-opacity: 0.5; stroke-width: 0.8"/>
     </g>
     <g id="line2d_4">
      <g>
       <use xlink:href="#m96038b334e" x="80.797566" y="173.915313" style="fill: #bbb5ac; stroke: #bbb5ac; stroke-width: 0.8"/>
      </g>
     </g>
     <g id="text_2">
      <!-- e -->
      <g style="fill: #d2cec8" transform="translate(77.797566 188.215313)scale(0.1 -0.1)">
       <defs>
        <path id="JetBrainsMono-Regular-65" d="M 1920 -64 
Q 1504 -64 1193 102 
Q 883 269 713 573 
Q 544 877 544 1280 
L 544 2240 
Q 544 2650 713 2950 
Q 883 3251 1193 3417 
Q 1504 3584 1920 3584 
Q 2336 3584 2646 3417 
Q 2957 3251 3126 2950 
Q 3296 2650 3296 2240 
L 3296 1619 
L 1107 1619 
L 1107 1280 
Q 1107 864 1318 643 
Q 1530 422 1920 422 
Q 2253 422 2457 540 
Q 2662 659 2707 896 
L 3283 896 
Q 3226 454 2851 195 
Q 2477 -64 1920 -64 
z
M 1107 2054 
L 2733 2054 
L 2733 2240 
Q 2733 2656 2525 2880 
Q 2317 3104 1920 3104 
Q 1530 3104 1318 2880 
Q 1107 2656 1107 2240 
L 1107 2054 
z
" transform="scale(0.015625)"/>
       </defs>
       <use xlink:href="#JetBrainsMono-Regular-65"/>
      </g>
     </g>
    </g>
    <g id="xtick_3">
     <g id="line2d_5">
      <path d="M 92.780387 173.915313 
L 92.780387 7.595313 
" clip-path="url(#p15ac16aa67)" style="fill: none; stroke-dasharray: 2.96,1.28; stroke-dashoffset: 0; stroke: #bbb5ac; stroke-opacity: 0.5; stroke-width: 0.8"/>
     </g>
     <g id="line2d_6">
      <g>
       <use xlink:href="#m96038b334e" x="92.780387" y="173.915313" style="fill: #bbb5ac; stroke: #bbb5ac; stroke-width: 0.8"/>
      </g>
     </g>
     <g id="text_3">
      <!-- o -->
      <g style="fill: #d2cec8" transform="translate(89.780387 188.215313)scale(0.1 -0.1)">
       <defs>
        <path id="JetBrainsMono-Regular-6f" d="M 1920 -51 
Q 1280 -51 912 310 
Q 544 672 544 1293 
L 544 2227 
Q 544 2854 912 3212 
Q 1280 3571 1920 3571 
Q 2560 3571 2928 3212 
Q 3296 2854 3296 2234 
L 3296 1293 
Q 3296 672 2928 310 
Q 2560 -51 1920 -51 
z
M 1920 461 
Q 2298 461 2509 672 
Q 2720 883 2720 1293 
L 2720 2227 
Q 2720 2637 2509 2848 
Q 2298 3059 1920 3059 
Q 1549 3059 1334 2848 
Q 1120 2637 1120 2227 
L 1120 1293 
Q 1120 883 1334 672 
Q 1549 461 1920 461 
z
" transform="scale(0.015625)"/>
       </defs>
       <use xlink:href="#JetBrainsMono-Regular-6f"/>
      </g>
     </g>
    </g>
    <g id="xtick_4">
     <g id="line2d_7">
      <path d="M 104.763207 173.915313 
L 104.763207 7.595313 
" clip-path="url(#p15ac16aa67)" style="fill: none; stroke-dasharray: 2.96,1.28; stroke-dashoffset: 0; stroke: #bbb5ac; stroke-opacity: 0.5; stroke-width: 0.8"/>
     </g>
     <g id="line2d_8">
      <g>
       <use xlink:href="#m96038b334e" x="104.763207" y="173.915313" style="fill: #bbb5ac; stroke: #bbb5ac; stroke-width: 0.8"/>
      </g>
     </g>
     <g id="text_4">
      <!-- a -->
      <g style="fill: #d2cec8" transform="translate(101.763207 188.215313)scale(0.1 -0.1)">
       <defs>
        <path id="JetBrainsMono-Regular-61" d="M 1613 -64 
Q 1056 -64 736 221 
Q 416 506 416 992 
Q 416 1485 736 1766 
Q 1056 2048 1600 2048 
L 2688 2048 
L 2688 2400 
Q 2688 2720 2493 2899 
Q 2298 3078 1952 3078 
Q 1645 3078 1433 2944 
Q 1222 2810 1171 2592 
L 595 2592 
Q 627 2886 809 3110 
Q 992 3334 1289 3459 
Q 1587 3584 1952 3584 
Q 2560 3584 2912 3270 
Q 3264 2957 3264 2419 
L 3264 0 
L 2701 0 
L 2701 672 
L 2694 672 
Q 2656 333 2365 134 
Q 2074 -64 1613 -64 
z
M 1754 390 
Q 2163 390 2425 595 
Q 2688 800 2688 1120 
L 2688 1619 
L 1613 1619 
Q 1325 1619 1158 1459 
Q 992 1299 992 1024 
Q 992 730 1193 560 
Q 1395 390 1754 390 
z
" transform="scale(0.015625)"/>
       </defs>
       <use xlink:href="#JetBrainsMono-Regular-61"/>
      </g>
     </g>
    </g>
    <g id="xtick_5">
     <g id="line2d_9">
      <path d="M 116.746027 173.915313 
L 116.746027 7.595313 
" clip-path="url(#p15ac16aa67)" style="fill: none; stroke-dasharray: 2.96,1.28; stroke-dashoffset: 0; stroke: #bbb5ac; stroke-opacity: 0.5; stroke-width: 0.8"/>
     </g>
     <g id="line2d_10">
      <g>
       <use xlink:href="#m96038b334e" x="116.746027" y="173.915313" style="fill: #bbb5ac; stroke: #bbb5ac; stroke-width: 0.8"/>
      </g>
     </g>
     <g id="text_5">
      <!-- r -->
      <g style="fill: #d2cec8" transform="translate(113.746027 188.215313)scale(0.1 -0.1)">
       <defs>
        <path id="JetBrainsMono-Regular-72" d="M 698 0 
L 698 3520 
L 1274 3520 
L 1274 2848 
L 1280 2848 
Q 1325 3200 1568 3392 
Q 1811 3584 2214 3584 
Q 2765 3584 3091 3235 
Q 3418 2886 3418 2291 
L 3418 2048 
L 2842 2048 
L 2842 2240 
Q 2842 2643 2637 2864 
Q 2432 3085 2042 3085 
Q 1274 3085 1274 2240 
L 1274 0 
L 698 0 
z
" transform="scale(0.015625)"/>
       </defs>
       <use xlink:href="#JetBrainsMono-Regular-72"/>
      </g>
     </g>
    </g>
    <g id="xtick_6">
     <g id="line2d_11">
      <path d="M 128.728848 173.915313 
L 128.728848 7.595313 
" clip-path="url(#p15ac16aa67)" style="fill: none; stroke-dasharray: 2.96,1.28; stroke-dashoffset: 0; stroke: #bbb5ac; stroke-opacity: 0.5; stroke-width: 0.8"/>
     </g>
     <g id="line2d_12">
      <g>
       <use xlink:href="#m96038b334e" x="128.728848" y="173.915313" style="fill: #bbb5ac; stroke: #bbb5ac; stroke-width: 0.8"/>
      </g>
     </g>
     <g id="text_6">
      <!-- u -->
      <g style="fill: #d2cec8" transform="translate(125.728848 188.215313)scale(0.1 -0.1)">
       <defs>
        <path id="JetBrainsMono-Regular-75" d="M 1914 -64 
Q 1306 -64 941 297 
Q 576 659 576 1280 
L 576 3520 
L 1152 3520 
L 1152 1280 
Q 1152 883 1357 662 
Q 1562 442 1914 442 
Q 2272 442 2480 662 
Q 2688 883 2688 1280 
L 2688 3520 
L 3264 3520 
L 3264 1280 
Q 3264 659 2893 297 
Q 2522 -64 1914 -64 
z
" transform="scale(0.015625)"/>
       </defs>
       <use xlink:href="#JetBrainsMono-Regular-75"/>
      </g>
     </g>
    </g>
    <g id="xtick_7">
     <g id="line2d_13">
      <path d="M 140.711668 173.915313 
L 140.711668 7.595313 
" clip-path="url(#p15ac16aa67)" style="fill: none; stroke-dasharray: 2.96,1.28; stroke-dashoffset: 0; stroke: #bbb5ac; stroke-opacity: 0.5; stroke-width: 0.8"/>
     </g>
     <g id="line2d_14">
      <g>
       <use xlink:href="#m96038b334e" x="140.711668" y="173.915313" style="fill: #bbb5ac; stroke: #bbb5ac; stroke-width: 0.8"/>
      </g>
     </g>
     <g id="text_7">
      <!-- g -->
      <g style="fill: #d2cec8" transform="translate(137.711668 188.215313)scale(0.1 -0.1)">
       <defs>
        <path id="JetBrainsMono-Regular-67" d="M 1030 -1152 
L 1030 -627 
L 2150 -627 
Q 2669 -627 2669 -128 
L 2669 320 
L 2682 960 
L 2669 960 
Q 2637 621 2384 422 
Q 2131 224 1734 224 
Q 1190 224 876 579 
Q 563 934 563 1536 
L 563 2278 
Q 563 2880 876 3232 
Q 1190 3584 1734 3584 
Q 2131 3584 2384 3385 
Q 2637 3187 2669 2848 
L 2675 2848 
L 2675 3520 
L 3245 3520 
L 3245 -128 
Q 3245 -602 2953 -877 
Q 2662 -1152 2144 -1152 
L 1030 -1152 
z
M 1907 723 
Q 2266 723 2470 947 
Q 2675 1171 2675 1568 
L 2675 2240 
Q 2675 2637 2470 2861 
Q 2266 3085 1907 3085 
Q 1542 3085 1340 2867 
Q 1139 2650 1139 2240 
L 1139 1568 
Q 1139 1158 1340 940 
Q 1542 723 1907 723 
z
" transform="scale(0.015625)"/>
       </defs>
       <use xlink:href="#JetBrainsMono-Regular-67"/>
      </g>
     </g>
    </g>
    <g id="xtick_8">
     <g id="line2d_15">
      <path d="M 152.694488 173.915313 
L 152.694488 7.595313 
" clip-path="url(#p15ac16aa67)" style="fill: none; stroke-dasharray: 2.96,1.28; stroke-dashoffset: 0; stroke: #bbb5ac; stroke-opacity: 0.5; stroke-width: 0.8"/>
     </g>
     <g id="line2d_16">
      <g>
       <use xlink:href="#m96038b334e" x="152.694488" y="173.915313" style="fill: #bbb5ac; stroke: #bbb5ac; stroke-width: 0.8"/>
      </g>
     </g>
     <g id="text_8">
      <!-- y -->
      <g style="fill: #d2cec8" transform="translate(149.694488 188.215313)scale(0.1 -0.1)">
       <defs>
        <path id="JetBrainsMono-Regular-79" d="M 1146 -1152 
L 1664 218 
L 320 3520 
L 947 3520 
L 1805 1344 
Q 1850 1235 1891 1084 
Q 1933 934 1958 832 
Q 1984 934 2029 1084 
Q 2074 1235 2118 1344 
L 2918 3520 
L 3520 3520 
L 1747 -1152 
L 1146 -1152 
z
" transform="scale(0.015625)"/>
       </defs>
       <use xlink:href="#JetBrainsMono-Regular-79"/>
      </g>
     </g>
    </g>
    <g id="xtick_9">
     <g id="line2d_17">
      <path d="M 164.677309 173.915313 
L 164.677309 7.595313 
" clip-path="url(#p15ac16aa67)" style="fill: none; stroke-dasharray: 2.96,1.28; stroke-dashoffset: 0; stroke: #bbb5ac; stroke-opacity: 0.5; stroke-width: 0.8"/>
     </g>
     <g id="line2d_18">
      <g>
       <use xlink:href="#m96038b334e" x="164.677309" y="173.915313" style="fill: #bbb5ac; stroke: #bbb5ac; stroke-width: 0.8"/>
      </g>
     </g>
     <g id="text_9">
      <!-- t -->
      <g style="fill: #d2cec8" transform="translate(161.677309 188.215313)scale(0.1 -0.1)">
       <defs>
        <path id="JetBrainsMono-Regular-74" d="M 2304 0 
Q 1869 0 1606 253 
Q 1344 506 1344 928 
L 1344 2995 
L 352 2995 
L 352 3520 
L 1344 3520 
L 1344 4512 
L 1920 4512 
L 1920 3520 
L 3328 3520 
L 3328 2995 
L 1920 2995 
L 1920 928 
Q 1920 749 2025 637 
Q 2131 525 2304 525 
L 3264 525 
L 3264 0 
L 2304 0 
z
" transform="scale(0.015625)"/>
       </defs>
       <use xlink:href="#JetBrainsMono-Regular-74"/>
      </g>
     </g>
    </g>
    <g id="xtick_10">
     <g id="line2d_19">
      <path d="M 176.660129 173.915313 
L 176.660129 7.595313 
" clip-path="url(#p15ac16aa67)" style="fill: none; stroke-dasharray: 2.96,1.28; stroke-dashoffset: 0; stroke: #bbb5ac; stroke-opacity: 0.5; stroke-width: 0.8"/>
     </g>
     <g id="line2d_20">
      <g>
       <use xlink:href="#m96038b334e" x="176.660129" y="173.915313" style="fill: #bbb5ac; stroke: #bbb5ac; stroke-width: 0.8"/>
      </g>
     </g>
     <g id="text_10">
      <!-- v -->
      <g style="fill: #d2cec8" transform="translate(173.660129 188.215313)scale(0.1 -0.1)">
       <defs>
        <path id="JetBrainsMono-Regular-76" d="M 1542 0 
L 320 3520 
L 915 3520 
L 1734 1152 
Q 1805 941 1856 745 
Q 1907 550 1933 442 
Q 1965 550 2009 745 
Q 2054 941 2125 1152 
L 2918 3520 
L 3520 3520 
L 2298 0 
L 1542 0 
z
" transform="scale(0.015625)"/>
       </defs>
       <use xlink:href="#JetBrainsMono-Regular-76"/>
      </g>
     </g>
    </g>
    <g id="xtick_11">
     <g id="line2d_21">
      <path d="M 188.642949 173.915313 
L 188.642949 7.595313 
" clip-path="url(#p15ac16aa67)" style="fill: none; stroke-dasharray: 2.96,1.28; stroke-dashoffset: 0; stroke: #bbb5ac; stroke-opacity: 0.5; stroke-width: 0.8"/>
     </g>
     <g id="line2d_22">
      <g>
       <use xlink:href="#m96038b334e" x="188.642949" y="173.915313" style="fill: #bbb5ac; stroke: #bbb5ac; stroke-width: 0.8"/>
      </g>
     </g>
     <g id="text_11">
      <!-- d -->
      <g style="fill: #d2cec8" transform="translate(185.642949 188.215313)scale(0.1 -0.1)">
       <defs>
        <path id="JetBrainsMono-Regular-64" d="M 1715 -64 
Q 1190 -64 867 288 
Q 544 640 544 1242 
L 544 2272 
Q 544 2880 864 3232 
Q 1184 3584 1715 3584 
Q 2112 3584 2368 3385 
Q 2624 3187 2669 2848 
L 2688 2848 
L 2675 3648 
L 2675 4672 
L 3251 4672 
L 3251 0 
L 2675 0 
L 2675 672 
L 2669 672 
Q 2624 326 2368 131 
Q 2112 -64 1715 -64 
z
M 1907 435 
Q 2266 435 2470 659 
Q 2675 883 2675 1280 
L 2675 2240 
Q 2675 2637 2470 2861 
Q 2266 3085 1907 3085 
Q 1542 3085 1331 2867 
Q 1120 2650 1120 2240 
L 1120 1280 
Q 1120 870 1331 652 
Q 1542 435 1907 435 
z
" transform="scale(0.015625)"/>
       </defs>
       <use xlink:href="#JetBrainsMono-Regular-64"/>
      </g>
     </g>
    </g>
    <g id="xtick_12">
     <g id="line2d_23">
      <path d="M 200.62577 173.915313 
L 200.62577 7.595313 
" clip-path="url(#p15ac16aa67)" style="fill: none; stroke-dasharray: 2.96,1.28; stroke-dashoffset: 0; stroke: #bbb5ac; stroke-opacity: 0.5; stroke-width: 0.8"/>
     </g>
     <g id="line2d_24">
      <g>
       <use xlink:href="#m96038b334e" x="200.62577" y="173.915313" style="fill: #bbb5ac; stroke: #bbb5ac; stroke-width: 0.8"/>
      </g>
     </g>
     <g id="text_12">
      <!-- i -->
      <g style="fill: #d2cec8" transform="translate(197.62577 188.215313)scale(0.1 -0.1)">
       <defs>
        <path id="JetBrainsMono-Regular-69" d="M 544 0 
L 544 525 
L 1792 525 
L 1792 2995 
L 672 2995 
L 672 3520 
L 2368 3520 
L 2368 525 
L 3552 525 
L 3552 0 
L 544 0 
z
M 2016 4154 
Q 1805 4154 1683 4262 
Q 1562 4371 1562 4557 
Q 1562 4749 1683 4861 
Q 1805 4973 2016 4973 
Q 2227 4973 2348 4861 
Q 2470 4749 2470 4557 
Q 2470 4371 2348 4262 
Q 2227 4154 2016 4154 
z
" transform="scale(0.015625)"/>
       </defs>
       <use xlink:href="#JetBrainsMono-Regular-69"/>
      </g>
     </g>
    </g>
    <g id="xtick_13">
     <g id="line2d_25">
      <path d="M 212.60859 173.915313 
L 212.60859 7.595313 
" clip-path="url(#p15ac16aa67)" style="fill: none; stroke-dasharray: 2.96,1.28; stroke-dashoffset: 0; stroke: #bbb5ac; stroke-opacity: 0.5; stroke-width: 0.8"/>
     </g>
     <g id="line2d_26">
      <g>
       <use xlink:href="#m96038b334e" x="212.60859" y="173.915313" style="fill: #bbb5ac; stroke: #bbb5ac; stroke-width: 0.8"/>
      </g>
     </g>
     <g id="text_13">
      <!-- l -->
      <g style="fill: #d2cec8" transform="translate(209.60859 188.215313)scale(0.1 -0.1)">
       <defs>
        <path id="JetBrainsMono-Regular-6c" d="M 2432 0 
Q 1965 0 1686 272 
Q 1408 544 1408 992 
L 1408 4147 
L 192 4147 
L 192 4672 
L 1984 4672 
L 1984 992 
Q 1984 774 2105 649 
Q 2227 525 2432 525 
L 3520 525 
L 3520 0 
L 2432 0 
z
" transform="scale(0.015625)"/>
       </defs>
       <use xlink:href="#JetBrainsMono-Regular-6c"/>
      </g>
     </g>
    </g>
    <g id="xtick_14">
     <g id="line2d_27">
      <path d="M 224.59141 173.915313 
L 224.59141 7.595313 
" clip-path="url(#p15ac16aa67)" style="fill: none; stroke-dasharray: 2.96,1.28; stroke-dashoffset: 0; stroke: #bbb5ac; stroke-opacity: 0.5; stroke-width: 0.8"/>
     </g>
     <g id="line2d_28">
      <g>
       <use xlink:href="#m96038b334e" x="224.59141" y="173.915313" style="fill: #bbb5ac; stroke: #bbb5ac; stroke-width: 0.8"/>
      </g>
     </g>
     <g id="text_14">
      <!-- s -->
      <g style="fill: #d2cec8" transform="translate(221.59141 188.215313)scale(0.1 -0.1)">
       <defs>
        <path id="JetBrainsMono-Regular-73" d="M 1811 -51 
Q 1267 -51 921 198 
Q 576 448 576 883 
L 1165 883 
Q 1165 685 1353 573 
Q 1542 461 1824 461 
L 2093 461 
Q 2432 461 2598 598 
Q 2765 736 2765 966 
Q 2765 1190 2608 1321 
Q 2451 1453 2157 1498 
L 1683 1574 
Q 1158 1664 908 1907 
Q 659 2150 659 2579 
Q 659 3059 969 3315 
Q 1280 3571 1862 3571 
L 2106 3571 
Q 2643 3571 2966 3331 
Q 3290 3091 3290 2694 
L 2701 2694 
Q 2701 2861 2537 2960 
Q 2374 3059 2093 3059 
L 1850 3059 
Q 1549 3059 1385 2934 
Q 1222 2810 1222 2579 
Q 1222 2195 1766 2106 
L 2240 2029 
Q 2810 1939 3069 1696 
Q 3328 1453 3328 992 
Q 3328 506 3017 227 
Q 2707 -51 2080 -51 
L 1811 -51 
z
" transform="scale(0.015625)"/>
       </defs>
       <use xlink:href="#JetBrainsMono-Regular-73"/>
      </g>
     </g>
    </g>
    <g id="xtick_15">
     <g id="line2d_29">
      <path d="M 236.57423 173.915313 
L 236.57423 7.595313 
" clip-path="url(#p15ac16aa67)" style="fill: none; stroke-dasharray: 2.96,1.28; stroke-dashoffset: 0; stroke: #bbb5ac; stroke-opacity: 0.5; stroke-width: 0.8"/>
     </g>
     <g id="line2d_30">
      <g>
       <use xlink:href="#m96038b334e" x="236.57423" y="173.915313" style="fill: #bbb5ac; stroke: #bbb5ac; stroke-width: 0.8"/>
      </g>
     </g>
     <g id="text_15">
      <!-- h -->
      <g style="fill: #d2cec8" transform="translate(233.57423 188.215313)scale(0.1 -0.1)">
       <defs>
        <path id="JetBrainsMono-Regular-68" d="M 589 0 
L 589 4672 
L 1165 4672 
L 1165 2848 
L 1171 2848 
Q 1216 3200 1459 3392 
Q 1702 3584 2106 3584 
Q 2637 3584 2950 3257 
Q 3264 2931 3264 2368 
L 3264 0 
L 2688 0 
L 2688 2304 
Q 2688 2682 2486 2890 
Q 2285 3098 1939 3098 
Q 1581 3098 1373 2874 
Q 1165 2650 1165 2240 
L 1165 0 
L 589 0 
z
" transform="scale(0.015625)"/>
       </defs>
       <use xlink:href="#JetBrainsMono-Regular-68"/>
      </g>
     </g>
    </g>
    <g id="xtick_16">
     <g id="line2d_31">
      <path d="M 248.557051 173.915313 
L 248.557051 7.595313 
" clip-path="url(#p15ac16aa67)" style="fill: none; stroke-dasharray: 2.96,1.28; stroke-dashoffset: 0; stroke: #bbb5ac; stroke-opacity: 0.5; stroke-width: 0.8"/>
     </g>
     <g id="line2d_32">
      <g>
       <use xlink:href="#m96038b334e" x="248.557051" y="173.915313" style="fill: #bbb5ac; stroke: #bbb5ac; stroke-width: 0.8"/>
      </g>
     </g>
     <g id="text_16">
      <!-- w -->
      <g style="fill: #d2cec8" transform="translate(245.557051 188.215313)scale(0.1 -0.1)">
       <defs>
        <path id="JetBrainsMono-Regular-77" d="M 787 0 
L 224 3520 
L 723 3520 
L 1075 1024 
Q 1094 883 1113 720 
Q 1133 557 1139 448 
L 1165 448 
Q 1178 557 1197 720 
Q 1216 883 1242 1024 
L 1632 3520 
L 2208 3520 
L 2598 1024 
Q 2624 883 2646 720 
Q 2669 557 2675 448 
L 2701 448 
Q 2714 557 2736 720 
Q 2758 883 2778 1024 
L 3142 3520 
L 3616 3520 
L 3027 0 
L 2394 0 
L 2016 2432 
Q 1990 2611 1964 2790 
Q 1939 2970 1926 3072 
L 1901 3072 
Q 1894 2970 1872 2790 
Q 1850 2611 1818 2432 
L 1421 0 
L 787 0 
z
" transform="scale(0.015625)"/>
       </defs>
       <use xlink:href="#JetBrainsMono-Regular-77"/>
      </g>
     </g>
    </g>
    <g id="xtick_17">
     <g id="line2d_33">
      <path d="M 260.539871 173.915313 
L 260.539871 7.595313 
" clip-path="url(#p15ac16aa67)" style="fill: none; stroke-dasharray: 2.96,1.28; stroke-dashoffset: 0; stroke: #bbb5ac; stroke-opacity: 0.5; stroke-width: 0.8"/>
     </g>
     <g id="line2d_34">
      <g>
       <use xlink:href="#m96038b334e" x="260.539871" y="173.915313" style="fill: #bbb5ac; stroke: #bbb5ac; stroke-width: 0.8"/>
      </g>
     </g>
     <g id="text_17">
      <!-- m -->
      <g style="fill: #d2cec8" transform="translate(257.539871 188.215313)scale(0.1 -0.1)">
       <defs>
        <path id="JetBrainsMono-Regular-6d" d="M 384 0 
L 384 3520 
L 890 3520 
L 890 3098 
L 928 3098 
Q 973 3315 1129 3449 
Q 1286 3584 1517 3584 
Q 1728 3584 1881 3453 
Q 2035 3322 2099 3098 
L 2138 3098 
Q 2182 3315 2342 3449 
Q 2502 3584 2739 3584 
Q 3059 3584 3257 3331 
Q 3456 3078 3456 2675 
L 3456 0 
L 2925 0 
L 2925 2682 
Q 2925 2906 2825 3024 
Q 2726 3142 2541 3142 
Q 2355 3142 2252 3024 
Q 2150 2906 2150 2688 
L 2150 0 
L 1690 0 
L 1690 2682 
Q 1690 2906 1584 3024 
Q 1478 3142 1293 3142 
Q 1114 3142 1014 3024 
Q 915 2906 915 2688 
L 915 0 
L 384 0 
z
" transform="scale(0.015625)"/>
       </defs>
       <use xlink:href="#JetBrainsMono-Regular-6d"/>
      </g>
     </g>
    </g>
    <g id="xtick_18">
     <g id="line2d_35">
      <path d="M 272.522691 173.915313 
L 272.522691 7.595313 
" clip-path="url(#p15ac16aa67)" style="fill: none; stroke-dasharray: 2.96,1.28; stroke-dashoffset: 0; stroke: #bbb5ac; stroke-opacity: 0.5; stroke-width: 0.8"/>
     </g>
     <g id="line2d_36">
      <g>
       <use xlink:href="#m96038b334e" x="272.522691" y="173.915313" style="fill: #bbb5ac; stroke: #bbb5ac; stroke-width: 0.8"/>
      </g>
     </g>
     <g id="text_18">
      <!-- ' -->
      <g style="fill: #d2cec8" transform="translate(269.522691 188.215313)scale(0.1 -0.1)">
       <defs>
        <path id="JetBrainsMono-Regular-27" d="M 1651 2752 
L 1574 3712 
L 1574 4672 
L 2195 4672 
L 2195 3712 
L 2125 2752 
L 1651 2752 
z
" transform="scale(0.015625)"/>
       </defs>
       <use xlink:href="#JetBrainsMono-Regular-27"/>
      </g>
     </g>
    </g>
    <g id="xtick_19">
     <g id="line2d_37">
      <path d="M 284.505512 173.915313 
L 284.505512 7.595313 
" clip-path="url(#p15ac16aa67)" style="fill: none; stroke-dasharray: 2.96,1.28; stroke-dashoffset: 0; stroke: #bbb5ac; stroke-opacity: 0.5; stroke-width: 0.8"/>
     </g>
     <g id="line2d_38">
      <g>
       <use xlink:href="#m96038b334e" x="284.505512" y="173.915313" style="fill: #bbb5ac; stroke: #bbb5ac; stroke-width: 0.8"/>
      </g>
     </g>
     <g id="text_19">
      <!-- k -->
      <g style="fill: #d2cec8" transform="translate(281.505512 188.215313)scale(0.1 -0.1)">
       <defs>
        <path id="JetBrainsMono-Regular-6b" d="M 608 0 
L 608 4672 
L 1184 4672 
L 1184 2067 
L 1862 2067 
L 2886 3520 
L 3546 3520 
L 2362 1843 
L 3565 0 
L 2893 0 
L 1869 1568 
L 1184 1568 
L 1184 0 
L 608 0 
z
" transform="scale(0.015625)"/>
       </defs>
       <use xlink:href="#JetBrainsMono-Regular-6b"/>
      </g>
     </g>
    </g>
    <g id="xtick_20">
     <g id="line2d_39">
      <path d="M 296.488332 173.915313 
L 296.488332 7.595313 
" clip-path="url(#p15ac16aa67)" style="fill: none; stroke-dasharray: 2.96,1.28; stroke-dashoffset: 0; stroke: #bbb5ac; stroke-opacity: 0.5; stroke-width: 0.8"/>
     </g>
     <g id="line2d_40">
      <g>
       <use xlink:href="#m96038b334e" x="296.488332" y="173.915313" style="fill: #bbb5ac; stroke: #bbb5ac; stroke-width: 0.8"/>
      </g>
     </g>
     <g id="text_20">
      <!-- b -->
      <g style="fill: #d2cec8" transform="translate(293.488332 188.215313)scale(0.1 -0.1)">
       <defs>
        <path id="JetBrainsMono-Regular-62" d="M 2125 -64 
Q 1728 -64 1472 131 
Q 1216 326 1171 672 
L 1165 672 
L 1165 0 
L 589 0 
L 589 4672 
L 1165 4672 
L 1165 3648 
L 1152 2848 
L 1171 2848 
Q 1216 3187 1472 3385 
Q 1728 3584 2125 3584 
Q 2656 3584 2976 3232 
Q 3296 2880 3296 2272 
L 3296 1242 
Q 3296 640 2976 288 
Q 2656 -64 2125 -64 
z
M 1933 435 
Q 2298 435 2509 652 
Q 2720 870 2720 1280 
L 2720 2240 
Q 2720 2650 2509 2867 
Q 2298 3085 1933 3085 
Q 1581 3085 1373 2861 
Q 1165 2637 1165 2240 
L 1165 1280 
Q 1165 883 1373 659 
Q 1581 435 1933 435 
z
" transform="scale(0.015625)"/>
       </defs>
       <use xlink:href="#JetBrainsMono-Regular-62"/>
      </g>
     </g>
    </g>
    <g id="xtick_21">
     <g id="line2d_41">
      <path d="M 308.471152 173.915313 
L 308.471152 7.595313 
" clip-path="url(#p15ac16aa67)" style="fill: none; stroke-dasharray: 2.96,1.28; stroke-dashoffset: 0; stroke: #bbb5ac; stroke-opacity: 0.5; stroke-width: 0.8"/>
     </g>
     <g id="line2d_42">
      <g>
       <use xlink:href="#m96038b334e" x="308.471152" y="173.915313" style="fill: #bbb5ac; stroke: #bbb5ac; stroke-width: 0.8"/>
      </g>
     </g>
     <g id="text_21">
      <!-- p -->
      <g style="fill: #d2cec8" transform="translate(305.471152 188.215313)scale(0.1 -0.1)">
       <defs>
        <path id="JetBrainsMono-Regular-70" d="M 595 -1152 
L 595 3520 
L 1171 3520 
L 1171 2848 
L 1178 2848 
Q 1222 3194 1481 3389 
Q 1741 3584 2138 3584 
Q 2669 3584 2985 3235 
Q 3302 2886 3302 2278 
L 3302 1248 
Q 3302 640 2985 288 
Q 2669 -64 2138 -64 
Q 1741 -64 1485 134 
Q 1229 333 1178 672 
L 1158 672 
L 1171 -128 
L 1171 -1152 
L 595 -1152 
z
M 1946 435 
Q 2310 435 2518 652 
Q 2726 870 2726 1280 
L 2726 2240 
Q 2726 2650 2518 2867 
Q 2310 3085 1946 3085 
Q 1594 3085 1382 2861 
Q 1171 2637 1171 2240 
L 1171 1280 
Q 1171 883 1382 659 
Q 1594 435 1946 435 
z
" transform="scale(0.015625)"/>
       </defs>
       <use xlink:href="#JetBrainsMono-Regular-70"/>
      </g>
     </g>
    </g>
    <g id="xtick_22">
     <g id="line2d_43">
      <path d="M 320.453973 173.915313 
L 320.453973 7.595313 
" clip-path="url(#p15ac16aa67)" style="fill: none; stroke-dasharray: 2.96,1.28; stroke-dashoffset: 0; stroke: #bbb5ac; stroke-opacity: 0.5; stroke-width: 0.8"/>
     </g>
     <g id="line2d_44">
      <g>
       <use xlink:href="#m96038b334e" x="320.453973" y="173.915313" style="fill: #bbb5ac; stroke: #bbb5ac; stroke-width: 0.8"/>
      </g>
     </g>
     <g id="text_22">
      <!-- c -->
      <g style="fill: #d2cec8" transform="translate(317.453973 188.215313)scale(0.1 -0.1)">
       <defs>
        <path id="JetBrainsMono-Regular-63" d="M 1946 -64 
Q 1306 -64 925 294 
Q 544 653 544 1280 
L 544 2240 
Q 544 2867 925 3225 
Q 1306 3584 1946 3584 
Q 2554 3584 2925 3257 
Q 3296 2931 3315 2368 
L 2739 2368 
Q 2720 2707 2512 2889 
Q 2304 3072 1946 3072 
Q 1568 3072 1344 2857 
Q 1120 2643 1120 2246 
L 1120 1280 
Q 1120 883 1344 665 
Q 1568 448 1946 448 
Q 2304 448 2512 633 
Q 2720 819 2739 1152 
L 3315 1152 
Q 3296 589 2925 262 
Q 2554 -64 1946 -64 
z
" transform="scale(0.015625)"/>
       </defs>
       <use xlink:href="#JetBrainsMono-Regular-63"/>
      </g>
     </g>
    </g>
    <g id="xtick_23">
     <g id="line2d_45">
      <path d="M 332.436793 173.915313 
L 332.436793 7.595313 
" clip-path="url(#p15ac16aa67)" style="fill: none; stroke-dasharray: 2.96,1.28; stroke-dashoffset: 0; stroke: #bbb5ac; stroke-opacity: 0.5; stroke-width: 0.8"/>
     </g>
     <g id="line2d_46">
      <g>
       <use xlink:href="#m96038b334e" x="332.436793" y="173.915313" style="fill: #bbb5ac; stroke: #bbb5ac; stroke-width: 0.8"/>
      </g>
     </g>
     <g id="text_23">
      <!-- f -->
      <g style="fill: #d2cec8" transform="translate(329.436793 188.215313)scale(0.1 -0.1)">
       <defs>
        <path id="JetBrainsMono-Regular-66" d="M 1408 0 
L 1408 2643 
L 384 2643 
L 384 3168 
L 1408 3168 
L 1408 3776 
Q 1408 4192 1670 4432 
Q 1933 4672 2394 4672 
L 3424 4672 
L 3424 4147 
L 2394 4147 
Q 1984 4147 1984 3776 
L 1984 3168 
L 3424 3168 
L 3424 2643 
L 1984 2643 
L 1984 0 
L 1408 0 
z
" transform="scale(0.015625)"/>
       </defs>
       <use xlink:href="#JetBrainsMono-Regular-66"/>
      </g>
     </g>
    </g>
    <g id="xtick_24">
     <g id="line2d_47">
      <path d="M 344.419613 173.915313 
L 344.419613 7.595313 
" clip-path="url(#p15ac16aa67)" style="fill: none; stroke-dasharray: 2.96,1.28; stroke-dashoffset: 0; stroke: #bbb5ac; stroke-opacity: 0.5; stroke-width: 0.8"/>
     </g>
     <g id="line2d_48">
      <g>
       <use xlink:href="#m96038b334e" x="344.419613" y="173.915313" style="fill: #bbb5ac; stroke: #bbb5ac; stroke-width: 0.8"/>
      </g>
     </g>
     <g id="text_24">
      <!-- ) -->
      <g style="fill: #d2cec8" transform="translate(341.419613 188.715313)scale(0.1 -0.1)">
       <defs>
        <path id="JetBrainsMono-Regular-29" d="M 736 -768 
L 736 -198 
Q 1152 -102 1453 163 
Q 1754 429 1917 832 
Q 2080 1235 2080 1728 
L 2080 2880 
Q 2080 3386 1913 3789 
Q 1747 4192 1446 4464 
Q 1146 4736 736 4832 
L 736 5376 
Q 1331 5229 1760 4877 
Q 2189 4525 2422 4016 
Q 2656 3507 2656 2880 
L 2656 1728 
Q 2656 774 2150 115 
Q 1645 -544 736 -768 
z
" transform="scale(0.015625)"/>
       </defs>
       <use xlink:href="#JetBrainsMono-Regular-29"/>
      </g>
     </g>
    </g>
    <g id="xtick_25">
     <g id="line2d_49">
      <path d="M 356.402434 173.915313 
L 356.402434 7.595313 
" clip-path="url(#p15ac16aa67)" style="fill: none; stroke-dasharray: 2.96,1.28; stroke-dashoffset: 0; stroke: #bbb5ac; stroke-opacity: 0.5; stroke-width: 0.8"/>
     </g>
     <g id="line2d_50">
      <g>
       <use xlink:href="#m96038b334e" x="356.402434" y="173.915313" style="fill: #bbb5ac; stroke: #bbb5ac; stroke-width: 0.8"/>
      </g>
     </g>
     <g id="text_25">
      <!-- ( -->
      <g style="fill: #d2cec8" transform="translate(353.402434 188.715313)scale(0.1 -0.1)">
       <defs>
        <path id="JetBrainsMono-Regular-28" d="M 3104 -768 
Q 2195 -544 1689 115 
Q 1184 774 1184 1728 
L 1184 2880 
Q 1184 3507 1417 4016 
Q 1651 4525 2083 4877 
Q 2515 5229 3104 5376 
L 3104 4832 
Q 2694 4736 2393 4464 
Q 2093 4192 1926 3789 
Q 1760 3386 1760 2880 
L 1760 1728 
Q 1760 1235 1923 832 
Q 2086 429 2390 163 
Q 2694 -102 3104 -198 
L 3104 -768 
z
" transform="scale(0.015625)"/>
       </defs>
       <use xlink:href="#JetBrainsMono-Regular-28"/>
      </g>
     </g>
    </g>
    <g id="xtick_26">
     <g id="line2d_51">
      <path d="M 368.385254 173.915313 
L 368.385254 7.595313 
" clip-path="url(#p15ac16aa67)" style="fill: none; stroke-dasharray: 2.96,1.28; stroke-dashoffset: 0; stroke: #bbb5ac; stroke-opacity: 0.5; stroke-width: 0.8"/>
     </g>
     <g id="line2d_52">
      <g>
       <use xlink:href="#m96038b334e" x="368.385254" y="173.915313" style="fill: #bbb5ac; stroke: #bbb5ac; stroke-width: 0.8"/>
      </g>
     </g>
     <g id="text_26">
      <!-- j -->
      <g style="fill: #d2cec8" transform="translate(365.385254 188.685626)scale(0.1 -0.1)">
       <defs>
        <path id="JetBrainsMono-Regular-6a" d="M 448 -1152 
L 448 -621 
L 1370 -621 
Q 1766 -621 1987 -406 
Q 2208 -192 2208 198 
L 2208 2995 
L 576 2995 
L 576 3520 
L 2784 3520 
L 2784 198 
Q 2784 -422 2400 -787 
Q 2016 -1152 1370 -1152 
L 448 -1152 
z
M 2464 4154 
Q 2253 4154 2131 4262 
Q 2010 4371 2010 4557 
Q 2010 4749 2131 4861 
Q 2253 4973 2464 4973 
Q 2675 4973 2796 4861 
Q 2918 4749 2918 4557 
Q 2918 4371 2796 4262 
Q 2675 4154 2464 4154 
z
" transform="scale(0.015625)"/>
       </defs>
       <use xlink:href="#JetBrainsMono-Regular-6a"/>
      </g>
     </g>
    </g>
   </g>
   <g id="matplotlib.axis_2">
    <g id="ytick_1">
     <g id="line2d_53">
      <path d="M 51.2 173.915313 
L 386 173.915313 
" clip-path="url(#p15ac16aa67)" style="fill: none; stroke-dasharray: 2.96,1.28; stroke-dashoffset: 0; stroke: #bbb5ac; stroke-opacity: 0.5; stroke-width: 0.8"/>
     </g>
     <g id="line2d_54">
      <defs>
       <path id="m7c3a7880fa" d="M 0 0 
L -3.5 0 
" style="stroke: #bbb5ac; stroke-width: 0.8"/>
      </defs>
      <g>
       <use xlink:href="#m7c3a7880fa" x="51.2" y="173.915313" style="fill: #bbb5ac; stroke: #bbb5ac; stroke-width: 0.8"/>
      </g>
     </g>
     <g id="text_27">
      <!-- 0.00 -->
      <g style="fill: #d2cec8" transform="translate(20.2 177.565313)scale(0.1 -0.1)">
       <defs>
        <path id="JetBrainsMono-Regular-30" d="M 1920 -64 
Q 1274 -64 893 310 
Q 512 685 512 1312 
L 512 3360 
Q 512 3987 893 4361 
Q 1274 4736 1920 4736 
Q 2566 4736 2947 4361 
Q 3328 3987 3328 3360 
L 3328 1312 
Q 3328 896 3155 585 
Q 2982 275 2665 105 
Q 2349 -64 1920 -64 
z
M 1920 429 
Q 2304 429 2537 675 
Q 2771 922 2771 1312 
L 2771 3360 
Q 2771 3750 2537 3996 
Q 2304 4243 1920 4243 
Q 1536 4243 1302 3996 
Q 1069 3750 1069 3360 
L 1069 1312 
Q 1069 922 1302 675 
Q 1536 429 1920 429 
z
M 1920 1958 
Q 1747 1958 1641 2067 
Q 1536 2176 1536 2355 
Q 1536 2528 1641 2633 
Q 1747 2739 1920 2739 
Q 2093 2739 2198 2633 
Q 2304 2528 2304 2355 
Q 2304 2176 2198 2067 
Q 2093 1958 1920 1958 
z
" transform="scale(0.015625)"/>
        <path id="JetBrainsMono-Regular-2e" d="M 1920 -64 
Q 1677 -64 1533 77 
Q 1389 218 1389 454 
Q 1389 704 1533 851 
Q 1677 998 1920 998 
Q 2163 998 2307 851 
Q 2451 704 2451 454 
Q 2451 218 2307 77 
Q 2163 -64 1920 -64 
z
" transform="scale(0.015625)"/>
       </defs>
       <use xlink:href="#JetBrainsMono-Regular-30"/>
       <use xlink:href="#JetBrainsMono-Regular-2e" x="59.999985"/>
       <use xlink:href="#JetBrainsMono-Regular-30" x="119.999969"/>
       <use xlink:href="#JetBrainsMono-Regular-30" x="179.999954"/>
      </g>
     </g>
    </g>
    <g id="ytick_2">
     <g id="line2d_55">
      <path d="M 51.2 150.620269 
L 386 150.620269 
" clip-path="url(#p15ac16aa67)" style="fill: none; stroke-dasharray: 2.96,1.28; stroke-dashoffset: 0; stroke: #bbb5ac; stroke-opacity: 0.5; stroke-width: 0.8"/>
     </g>
     <g id="line2d_56">
      <g>
       <use xlink:href="#m7c3a7880fa" x="51.2" y="150.620269" style="fill: #bbb5ac; stroke: #bbb5ac; stroke-width: 0.8"/>
      </g>
     </g>
     <g id="text_28">
      <!-- 0.02 -->
      <g style="fill: #d2cec8" transform="translate(20.2 154.270269)scale(0.1 -0.1)">
       <defs>
        <path id="JetBrainsMono-Regular-32" d="M 589 0 
L 589 570 
L 2080 2195 
Q 2413 2554 2563 2835 
Q 2714 3117 2714 3386 
Q 2714 3770 2490 3997 
Q 2266 4224 1882 4224 
Q 1491 4224 1264 3990 
Q 1037 3757 1037 3360 
L 461 3360 
Q 480 3994 864 4365 
Q 1248 4736 1882 4736 
Q 2528 4736 2909 4371 
Q 3290 4006 3290 3379 
Q 3290 3046 3094 2681 
Q 2899 2317 2464 1843 
L 1248 525 
L 3366 525 
L 3366 0 
L 589 0 
z
" transform="scale(0.015625)"/>
       </defs>
       <use xlink:href="#JetBrainsMono-Regular-30"/>
       <use xlink:href="#JetBrainsMono-Regular-2e" x="59.999985"/>
       <use xlink:href="#JetBrainsMono-Regular-30" x="119.999969"/>
       <use xlink:href="#JetBrainsMono-Regular-32" x="179.999954"/>
      </g>
     </g>
    </g>
    <g id="ytick_3">
     <g id="line2d_57">
      <path d="M 51.2 127.325224 
L 386 127.325224 
" clip-path="url(#p15ac16aa67)" style="fill: none; stroke-dasharray: 2.96,1.28; stroke-dashoffset: 0; stroke: #bbb5ac; stroke-opacity: 0.5; stroke-width: 0.8"/>
     </g>
     <g id="line2d_58">
      <g>
       <use xlink:href="#m7c3a7880fa" x="51.2" y="127.325224" style="fill: #bbb5ac; stroke: #bbb5ac; stroke-width: 0.8"/>
      </g>
     </g>
     <g id="text_29">
      <!-- 0.04 -->
      <g style="fill: #d2cec8" transform="translate(20.2 130.975224)scale(0.1 -0.1)">
       <defs>
        <path id="JetBrainsMono-Regular-34" d="M 2560 0 
L 2560 1024 
L 448 1024 
L 448 1926 
L 2150 4672 
L 2784 4672 
L 1024 1811 
L 1024 1549 
L 2560 1549 
L 2560 2688 
L 3136 2688 
L 3136 0 
L 2560 0 
z
" transform="scale(0.015625)"/>
       </defs>
       <use xlink:href="#JetBrainsMono-Regular-30"/>
       <use xlink:href="#JetBrainsMono-Regular-2e" x="59.999985"/>
       <use xlink:href="#JetBrainsMono-Regular-30" x="119.999969"/>
       <use xlink:href="#JetBrainsMono-Regular-34" x="179.999954"/>
      </g>
     </g>
    </g>
    <g id="ytick_4">
     <g id="line2d_59">
      <path d="M 51.2 104.030179 
L 386 104.030179 
" clip-path="url(#p15ac16aa67)" style="fill: none; stroke-dasharray: 2.96,1.28; stroke-dashoffset: 0; stroke: #bbb5ac; stroke-opacity: 0.5; stroke-width: 0.8"/>
     </g>
     <g id="line2d_60">
      <g>
       <use xlink:href="#m7c3a7880fa" x="51.2" y="104.030179" style="fill: #bbb5ac; stroke: #bbb5ac; stroke-width: 0.8"/>
      </g>
     </g>
     <g id="text_30">
      <!-- 0.06 -->
      <g style="fill: #d2cec8" transform="translate(20.2 107.680179)scale(0.1 -0.1)">
       <defs>
        <path id="JetBrainsMono-Regular-36" d="M 1926 -64 
Q 1472 -64 1129 125 
Q 787 314 598 650 
Q 410 986 410 1427 
Q 410 1734 522 2057 
Q 634 2381 832 2733 
L 1933 4672 
L 2560 4672 
L 1293 2515 
L 1318 2496 
Q 1434 2669 1651 2771 
Q 1869 2874 2144 2874 
Q 2528 2874 2819 2694 
Q 3110 2515 3270 2198 
Q 3430 1882 3430 1453 
Q 3430 998 3241 656 
Q 3053 314 2717 125 
Q 2381 -64 1926 -64 
z
M 1920 448 
Q 2336 448 2595 720 
Q 2854 992 2854 1440 
Q 2854 1888 2595 2160 
Q 2336 2432 1920 2432 
Q 1504 2432 1245 2160 
Q 986 1888 986 1440 
Q 986 992 1245 720 
Q 1504 448 1920 448 
z
" transform="scale(0.015625)"/>
       </defs>
       <use xlink:href="#JetBrainsMono-Regular-30"/>
       <use xlink:href="#JetBrainsMono-Regular-2e" x="59.999985"/>
       <use xlink:href="#JetBrainsMono-Regular-30" x="119.999969"/>
       <use xlink:href="#JetBrainsMono-Regular-36" x="179.999954"/>
      </g>
     </g>
    </g>
    <g id="ytick_5">
     <g id="line2d_61">
      <path d="M 51.2 80.735134 
L 386 80.735134 
" clip-path="url(#p15ac16aa67)" style="fill: none; stroke-dasharray: 2.96,1.28; stroke-dashoffset: 0; stroke: #bbb5ac; stroke-opacity: 0.5; stroke-width: 0.8"/>
     </g>
     <g id="line2d_62">
      <g>
       <use xlink:href="#m7c3a7880fa" x="51.2" y="80.735134" style="fill: #bbb5ac; stroke: #bbb5ac; stroke-width: 0.8"/>
      </g>
     </g>
     <g id="text_31">
      <!-- 0.08 -->
      <g style="fill: #d2cec8" transform="translate(20.2 84.385134)scale(0.1 -0.1)">
       <defs>
        <path id="JetBrainsMono-Regular-38" d="M 1920 -64 
Q 1472 -64 1133 93 
Q 794 250 608 528 
Q 422 806 422 1171 
Q 422 1568 675 1910 
Q 928 2253 1350 2445 
Q 934 2650 729 2934 
Q 525 3219 525 3546 
Q 525 3898 707 4166 
Q 890 4435 1203 4588 
Q 1517 4742 1920 4742 
Q 2323 4742 2640 4588 
Q 2957 4435 3136 4166 
Q 3315 3898 3315 3546 
Q 3315 3226 3110 2941 
Q 2906 2656 2490 2445 
Q 2912 2253 3165 1910 
Q 3418 1568 3418 1171 
Q 3418 806 3232 528 
Q 3046 250 2710 93 
Q 2374 -64 1920 -64 
z
M 1734 2733 
L 1920 2662 
L 2080 2726 
Q 2381 2842 2566 3056 
Q 2752 3270 2752 3526 
Q 2752 3840 2521 4035 
Q 2291 4230 1920 4230 
Q 1549 4230 1318 4032 
Q 1088 3834 1088 3526 
Q 1088 3264 1267 3053 
Q 1446 2842 1734 2733 
z
M 1920 448 
Q 2342 448 2598 669 
Q 2854 890 2854 1248 
Q 2854 1530 2681 1757 
Q 2509 1984 2195 2106 
L 1920 2214 
L 1626 2099 
Q 1318 1978 1152 1750 
Q 986 1523 986 1248 
Q 986 890 1242 669 
Q 1498 448 1920 448 
z
" transform="scale(0.015625)"/>
       </defs>
       <use xlink:href="#JetBrainsMono-Regular-30"/>
       <use xlink:href="#JetBrainsMono-Regular-2e" x="59.999985"/>
       <use xlink:href="#JetBrainsMono-Regular-30" x="119.999969"/>
       <use xlink:href="#JetBrainsMono-Regular-38" x="179.999954"/>
      </g>
     </g>
    </g>
    <g id="ytick_6">
     <g id="line2d_63">
      <path d="M 51.2 57.44009 
L 386 57.44009 
" clip-path="url(#p15ac16aa67)" style="fill: none; stroke-dasharray: 2.96,1.28; stroke-dashoffset: 0; stroke: #bbb5ac; stroke-opacity: 0.5; stroke-width: 0.8"/>
     </g>
     <g id="line2d_64">
      <g>
       <use xlink:href="#m7c3a7880fa" x="51.2" y="57.44009" style="fill: #bbb5ac; stroke: #bbb5ac; stroke-width: 0.8"/>
      </g>
     </g>
     <g id="text_32">
      <!-- 0.10 -->
      <g style="fill: #d2cec8" transform="translate(20.2 61.09009)scale(0.1 -0.1)">
       <defs>
        <path id="JetBrainsMono-Regular-31" d="M 576 0 
L 576 525 
L 1843 525 
L 1843 4192 
L 576 3245 
L 576 3885 
L 1632 4672 
L 2419 4672 
L 2419 525 
L 3456 525 
L 3456 0 
L 576 0 
z
" transform="scale(0.015625)"/>
       </defs>
       <use xlink:href="#JetBrainsMono-Regular-30"/>
       <use xlink:href="#JetBrainsMono-Regular-2e" x="59.999985"/>
       <use xlink:href="#JetBrainsMono-Regular-31" x="119.999969"/>
       <use xlink:href="#JetBrainsMono-Regular-30" x="179.999954"/>
      </g>
     </g>
    </g>
    <g id="ytick_7">
     <g id="line2d_65">
      <path d="M 51.2 34.145045 
L 386 34.145045 
" clip-path="url(#p15ac16aa67)" style="fill: none; stroke-dasharray: 2.96,1.28; stroke-dashoffset: 0; stroke: #bbb5ac; stroke-opacity: 0.5; stroke-width: 0.8"/>
     </g>
     <g id="line2d_66">
      <g>
       <use xlink:href="#m7c3a7880fa" x="51.2" y="34.145045" style="fill: #bbb5ac; stroke: #bbb5ac; stroke-width: 0.8"/>
      </g>
     </g>
     <g id="text_33">
      <!-- 0.12 -->
      <g style="fill: #d2cec8" transform="translate(20.2 37.795045)scale(0.1 -0.1)">
       <use xlink:href="#JetBrainsMono-Regular-30"/>
       <use xlink:href="#JetBrainsMono-Regular-2e" x="59.999985"/>
       <use xlink:href="#JetBrainsMono-Regular-31" x="119.999969"/>
       <use xlink:href="#JetBrainsMono-Regular-32" x="179.999954"/>
      </g>
     </g>
    </g>
    <g id="ytick_8">
     <g id="line2d_67">
      <path d="M 51.2 10.85 
L 386 10.85 
" clip-path="url(#p15ac16aa67)" style="fill: none; stroke-dasharray: 2.96,1.28; stroke-dashoffset: 0; stroke: #bbb5ac; stroke-opacity: 0.5; stroke-width: 0.8"/>
     </g>
     <g id="line2d_68">
      <g>
       <use xlink:href="#m7c3a7880fa" x="51.2" y="10.85" style="fill: #bbb5ac; stroke: #bbb5ac; stroke-width: 0.8"/>
      </g>
     </g>
     <g id="text_34">
      <!-- 0.14 -->
      <g style="fill: #d2cec8" transform="translate(20.2 14.5)scale(0.1 -0.1)">
       <use xlink:href="#JetBrainsMono-Regular-30"/>
       <use xlink:href="#JetBrainsMono-Regular-2e" x="59.999985"/>
       <use xlink:href="#JetBrainsMono-Regular-31" x="119.999969"/>
       <use xlink:href="#JetBrainsMono-Regular-34" x="179.999954"/>
      </g>
     </g>
    </g>
    <g id="text_35">
     <!-- p -->
     <g style="fill: #d2cec8" transform="translate(7.2 88.955313)scale(0.1 -0.1)">
      <use xlink:href="#JetBrainsMono-Regular-70"/>
     </g>
    </g>
   </g>
   <g id="patch_3">
    <path d="M 51.2 173.915313 
L 51.2 7.595313 
" style="fill: none; stroke: #bbb5ac; stroke-width: 0.8; stroke-linejoin: miter; stroke-linecap: square"/>
   </g>
   <g id="patch_4">
    <path d="M 386 173.915313 
L 386 7.595313 
" style="fill: none; stroke: #bbb5ac; stroke-width: 0.8; stroke-linejoin: miter; stroke-linecap: square"/>
   </g>
   <g id="patch_5">
    <path d="M 51.2 173.915313 
L 386 173.915313 
" style="fill: none; stroke: #bbb5ac; stroke-width: 0.8; stroke-linejoin: miter; stroke-linecap: square"/>
   </g>
   <g id="patch_6">
    <path d="M 51.2 7.595313 
L 386 7.595313 
" style="fill: none; stroke: #bbb5ac; stroke-width: 0.8; stroke-linejoin: miter; stroke-linecap: square"/>
   </g>
   <g id="patch_7">
    <path d="M 66.418182 173.915313 
L 71.21131 173.915313 
L 71.21131 15.515313 
L 66.418182 15.515313 
z
" clip-path="url(#p15ac16aa67)" style="fill: #d2cec8"/>
   </g>
   <g id="patch_8">
    <path d="M 78.401002 173.915313 
L 83.19413 173.915313 
L 83.19413 18.667552 
L 78.401002 18.667552 
z
" clip-path="url(#p15ac16aa67)" style="fill: #d2cec8"/>
   </g>
   <g id="patch_9">
    <path d="M 90.383822 173.915313 
L 95.176951 173.915313 
L 95.176951 46.249642 
L 90.383822 46.249642 
z
" clip-path="url(#p15ac16aa67)" style="fill: #d2cec8"/>
   </g>
   <g id="patch_10">
    <path d="M 102.366643 173.915313 
L 107.159771 173.915313 
L 107.159771 86.440687 
L 102.366643 86.440687 
z
" clip-path="url(#p15ac16aa67)" style="fill: #d2cec8"/>
   </g>
   <g id="patch_11">
    <path d="M 114.349463 173.915313 
L 119.142591 173.915313 
L 119.142591 102.201881 
L 114.349463 102.201881 
z
" clip-path="url(#p15ac16aa67)" style="fill: #d2cec8"/>
   </g>
   <g id="patch_12">
    <path d="M 126.332283 173.915313 
L 131.125412 173.915313 
L 131.125412 107.718299 
L 126.332283 107.718299 
z
" clip-path="url(#p15ac16aa67)" style="fill: #d2cec8"/>
   </g>
   <g id="patch_13">
    <path d="M 138.315104 173.915313 
L 143.108232 173.915313 
L 143.108232 110.082478 
L 138.315104 110.082478 
z
" clip-path="url(#p15ac16aa67)" style="fill: #d2cec8"/>
   </g>
   <g id="patch_14">
    <path d="M 150.297924 173.915313 
L 155.091052 173.915313 
L 155.091052 117.175015 
L 150.297924 117.175015 
z
" clip-path="url(#p15ac16aa67)" style="fill: #d2cec8"/>
   </g>
   <g id="patch_15">
    <path d="M 162.280744 173.915313 
L 167.073873 173.915313 
L 167.073873 119.539194 
L 162.280744 119.539194 
z
" clip-path="url(#p15ac16aa67)" style="fill: #d2cec8"/>
   </g>
   <g id="patch_16">
    <path d="M 174.263565 173.915313 
L 179.056693 173.915313 
L 179.056693 128.99591 
L 174.263565 128.99591 
z
" clip-path="url(#p15ac16aa67)" style="fill: #d2cec8"/>
   </g>
   <g id="patch_17">
    <path d="M 186.246385 173.915313 
L 191.039513 173.915313 
L 191.039513 134.512328 
L 186.246385 134.512328 
z
" clip-path="url(#p15ac16aa67)" style="fill: #d2cec8"/>
   </g>
   <g id="patch_18">
    <path d="M 198.229205 173.915313 
L 203.022334 173.915313 
L 203.022334 136.088448 
L 198.229205 136.088448 
z
" clip-path="url(#p15ac16aa67)" style="fill: #d2cec8"/>
   </g>
   <g id="patch_19">
    <path d="M 210.212026 173.915313 
L 215.005154 173.915313 
L 215.005154 140.028746 
L 210.212026 140.028746 
z
" clip-path="url(#p15ac16aa67)" style="fill: #d2cec8"/>
   </g>
   <g id="patch_20">
    <path d="M 222.194846 173.915313 
L 226.987974 173.915313 
L 226.987974 145.545164 
L 222.194846 145.545164 
z
" clip-path="url(#p15ac16aa67)" style="fill: #d2cec8"/>
   </g>
   <g id="patch_21">
    <path d="M 234.177666 173.915313 
L 238.970795 173.915313 
L 238.970795 148.697403 
L 234.177666 148.697403 
z
" clip-path="url(#p15ac16aa67)" style="fill: #d2cec8"/>
   </g>
   <g id="patch_22">
    <path d="M 246.160487 173.915313 
L 250.953615 173.915313 
L 250.953615 149.485463 
L 246.160487 149.485463 
z
" clip-path="url(#p15ac16aa67)" style="fill: #d2cec8"/>
   </g>
   <g id="patch_23">
    <path d="M 258.143307 173.915313 
L 262.936435 173.915313 
L 262.936435 158.154119 
L 258.143307 158.154119 
z
" clip-path="url(#p15ac16aa67)" style="fill: #d2cec8"/>
   </g>
   <g id="patch_24">
    <path d="M 270.126127 173.915313 
L 274.919256 173.915313 
L 274.919256 158.942179 
L 270.126127 158.942179 
z
" clip-path="url(#p15ac16aa67)" style="fill: #d2cec8"/>
   </g>
   <g id="patch_25">
    <path d="M 282.108948 173.915313 
L 286.902076 173.915313 
L 286.902076 160.518299 
L 282.108948 160.518299 
z
" clip-path="url(#p15ac16aa67)" style="fill: #d2cec8"/>
   </g>
   <g id="patch_26">
    <path d="M 294.091768 173.915313 
L 298.884896 173.915313 
L 298.884896 162.094418 
L 294.091768 162.094418 
z
" clip-path="url(#p15ac16aa67)" style="fill: #d2cec8"/>
   </g>
   <g id="patch_27">
    <path d="M 306.074588 173.915313 
L 310.867717 173.915313 
L 310.867717 164.458597 
L 306.074588 164.458597 
z
" clip-path="url(#p15ac16aa67)" style="fill: #d2cec8"/>
   </g>
   <g id="patch_28">
    <path d="M 318.057409 173.915313 
L 322.850537 173.915313 
L 322.850537 165.246657 
L 318.057409 165.246657 
z
" clip-path="url(#p15ac16aa67)" style="fill: #d2cec8"/>
   </g>
   <g id="patch_29">
    <path d="M 330.040229 173.915313 
L 334.833357 173.915313 
L 334.833357 166.822776 
L 330.040229 166.822776 
z
" clip-path="url(#p15ac16aa67)" style="fill: #d2cec8"/>
   </g>
   <g id="patch_30">
    <path d="M 342.023049 173.915313 
L 346.816178 173.915313 
L 346.816178 170.763075 
L 342.023049 170.763075 
z
" clip-path="url(#p15ac16aa67)" style="fill: #d2cec8"/>
   </g>
   <g id="patch_31">
    <path d="M 354.00587 173.915313 
L 358.798998 173.915313 
L 358.798998 170.763075 
L 354.00587 170.763075 
z
" clip-path="url(#p15ac16aa67)" style="fill: #d2cec8"/>
   </g>
   <g id="patch_32">
    <path d="M 365.98869 173.915313 
L 370.781818 173.915313 
L 370.781818 172.339194 
L 365.98869 172.339194 
z
" clip-path="url(#p15ac16aa67)" style="fill: #d2cec8"/>
   </g>
  </g>
 </g>
 <defs>
  <clipPath id="p15ac16aa67">
   <rect x="51.2" y="7.595313" width="334.8" height="166.32"/>
  </clipPath>
 </defs>
</svg>
