<?xml version="1.0" encoding="utf-8" standalone="no"?>
<!DOCTYPE svg PUBLIC "-//W3C//DTD SVG 1.1//EN"
  "http://www.w3.org/Graphics/SVG/1.1/DTD/svg11.dtd">
<svg xmlns:xlink="http://www.w3.org/1999/xlink" width="527.308125pt" height="254.84pt" viewBox="0 0 527.308125 254.84" xmlns="http://www.w3.org/2000/svg" version="1.1">
 <metadata>
  <rdf:RDF xmlns:dc="http://purl.org/dc/elements/1.1/" xmlns:cc="http://creativecommons.org/ns#" xmlns:rdf="http://www.w3.org/1999/02/22-rdf-syntax-ns#">
   <cc:Work>
    <dc:type rdf:resource="http://purl.org/dc/dcmitype/StillImage"/>
    <dc:date>2022-02-13T10:49:31.921435</dc:date>
    <dc:format>image/svg+xml</dc:format>
    <dc:creator>
     <cc:Agent>
      <dc:title>Matplotlib v3.5.0, https://matplotlib.org/</dc:title>
     </cc:Agent>
    </dc:creator>
   </cc:Work>
  </rdf:RDF>
 </metadata>
 <defs>
  <style type="text/css">*{stroke-linejoin: round; stroke-linecap: butt}</style>
 </defs>
 <g id="figure_1">
  <g id="patch_1">
   <path d="M 0 254.84 
L 527.308125 254.84 
L 527.308125 0 
L 0 0 
L 0 254.84 
z
" style="fill: none"/>
  </g>
  <g id="axes_1">
   <g id="patch_2">
    <path d="M 73.708125 224.64 
L 520.108125 224.64 
L 520.108125 7.2 
L 73.708125 7.2 
L 73.708125 224.64 
z
" style="fill: none"/>
   </g>
   <g id="patch_3">
    <path d="M 93.999034 224.64 
L 134.580852 224.64 
L 134.580852 17.554286 
L 93.999034 17.554286 
z
" clip-path="url(#p7801540b0b)" style="fill: #cac5d3"/>
   </g>
   <g id="patch_4">
    <path d="M 134.580852 224.64 
L 175.16267 224.64 
L 175.16267 224.64 
L 134.580852 224.64 
z
" clip-path="url(#p7801540b0b)" style="fill: #cac5d3"/>
   </g>
   <g id="patch_5">
    <path d="M 175.16267 224.64 
L 215.744489 224.64 
L 215.744489 224.64 
L 175.16267 224.64 
z
" clip-path="url(#p7801540b0b)" style="fill: #cac5d3"/>
   </g>
   <g id="patch_6">
    <path d="M 215.744489 224.64 
L 256.326307 224.64 
L 256.326307 224.64 
L 215.744489 224.64 
z
" clip-path="url(#p7801540b0b)" style="fill: #cac5d3"/>
   </g>
   <g id="patch_7">
    <path d="M 256.326307 224.64 
L 296.908125 224.64 
L 296.908125 224.64 
L 256.326307 224.64 
z
" clip-path="url(#p7801540b0b)" style="fill: #cac5d3"/>
   </g>
   <g id="patch_8">
    <path d="M 296.908125 224.64 
L 337.489943 224.64 
L 337.489943 224.64 
L 296.908125 224.64 
z
" clip-path="url(#p7801540b0b)" style="fill: #cac5d3"/>
   </g>
   <g id="patch_9">
    <path d="M 337.489943 224.64 
L 378.071761 224.64 
L 378.071761 224.64 
L 337.489943 224.64 
z
" clip-path="url(#p7801540b0b)" style="fill: #cac5d3"/>
   </g>
   <g id="patch_10">
    <path d="M 378.071761 224.64 
L 418.65358 224.64 
L 418.65358 224.64 
L 378.071761 224.64 
z
" clip-path="url(#p7801540b0b)" style="fill: #cac5d3"/>
   </g>
   <g id="patch_11">
    <path d="M 418.65358 224.64 
L 459.235398 224.64 
L 459.235398 224.64 
L 418.65358 224.64 
z
" clip-path="url(#p7801540b0b)" style="fill: #cac5d3"/>
   </g>
   <g id="patch_12">
    <path d="M 459.235398 224.64 
L 499.817216 224.64 
L 499.817216 97.716498 
L 459.235398 97.716498 
z
" clip-path="url(#p7801540b0b)" style="fill: #cac5d3"/>
   </g>
   <g id="matplotlib.axis_1">
    <g id="xtick_1">
     <g id="line2d_1">
      <path d="M 93.999034 224.64 
L 93.999034 7.2 
" clip-path="url(#p7801540b0b)" style="fill: none; stroke-dasharray: 0.5,0.825; stroke-dashoffset: 0; stroke: #9c94aa; stroke-opacity: 0.5; stroke-width: 0.5"/>
     </g>
     <g id="line2d_2">
      <defs>
       <path id="md8f80c3cc9" d="M 0 0 
L 0 3.5 
" style="stroke: #cac5d3; stroke-width: 0.8"/>
      </defs>
      <g>
       <use xlink:href="#md8f80c3cc9" x="93.999034" y="224.64" style="fill: #cac5d3; stroke: #cac5d3; stroke-width: 0.8"/>
      </g>
     </g>
     <g id="text_1">
      <!-- 4.0 -->
      <g style="fill: #cac5d3" transform="translate(79.595284 244.25)scale(0.16 -0.16)">
       <defs>
        <path id="Monaco-34" d="M 2209 0 
L 2209 1356 
L 150 1356 
L 150 1844 
L 2209 4850 
L 2794 4850 
L 2794 1844 
L 3691 1844 
L 3691 1356 
L 2794 1356 
L 2794 0 
L 2209 0 
z
M 2209 1844 
L 2209 3969 
L 769 1844 
L 2209 1844 
z
" transform="scale(0.015625)"/>
        <path id="Monaco-2e" d="M 1919 -147 
Q 1709 -147 1559 3 
Q 1409 153 1409 363 
Q 1409 575 1561 723 
Q 1713 872 1919 872 
Q 2125 872 2276 723 
Q 2428 575 2428 363 
Q 2428 153 2278 3 
Q 2128 -147 1919 -147 
z
" transform="scale(0.015625)"/>
        <path id="Monaco-30" d="M 1919 4994 
Q 2747 4994 3181 4298 
Q 3616 3603 3616 2425 
Q 3616 1244 3181 548 
Q 2747 -147 1919 -147 
Q 1094 -147 658 548 
Q 222 1244 222 2425 
Q 222 3603 658 4298 
Q 1094 4994 1919 4994 
z
M 972 1388 
L 2650 4016 
Q 2491 4306 2305 4407 
Q 2119 4509 1919 4509 
Q 1397 4509 1125 3929 
Q 853 3350 853 2459 
Q 853 2256 865 2022 
Q 878 1788 972 1388 
z
M 2859 3438 
L 1194 794 
Q 1328 566 1503 452 
Q 1678 338 1894 338 
Q 2488 338 2738 1002 
Q 2988 1666 2988 2475 
Q 2988 2975 2859 3438 
z
" transform="scale(0.015625)"/>
       </defs>
       <use xlink:href="#Monaco-34"/>
       <use xlink:href="#Monaco-2e" x="60.009766"/>
       <use xlink:href="#Monaco-30" x="120.019531"/>
      </g>
     </g>
    </g>
    <g id="xtick_2">
     <g id="line2d_3">
      <path d="M 175.16267 224.64 
L 175.16267 7.2 
" clip-path="url(#p7801540b0b)" style="fill: none; stroke-dasharray: 0.5,0.825; stroke-dashoffset: 0; stroke: #9c94aa; stroke-opacity: 0.5; stroke-width: 0.5"/>
     </g>
     <g id="line2d_4">
      <g>
       <use xlink:href="#md8f80c3cc9" x="175.16267" y="224.64" style="fill: #cac5d3; stroke: #cac5d3; stroke-width: 0.8"/>
      </g>
     </g>
     <g id="text_2">
      <!-- 4.2 -->
      <g style="fill: #cac5d3" transform="translate(160.75892 244.25)scale(0.16 -0.16)">
       <defs>
        <path id="Monaco-32" d="M 3400 0 
L 466 0 
L 466 534 
Q 466 741 550 977 
Q 634 1213 871 1506 
Q 1109 1800 1375 2072 
L 1706 2409 
Q 1806 2513 2143 2888 
Q 2481 3263 2589 3463 
Q 2697 3663 2697 3856 
Q 2697 4169 2447 4339 
Q 2197 4509 1884 4509 
Q 1706 4509 1486 4468 
Q 1266 4428 1100 4373 
Q 934 4319 563 4150 
L 563 4666 
Q 956 4853 1351 4923 
Q 1747 4994 2003 4994 
Q 2381 4994 2698 4870 
Q 3016 4747 3170 4487 
Q 3325 4228 3325 3934 
Q 3325 3606 3126 3262 
Q 2928 2919 2378 2378 
L 2022 2025 
L 1722 1731 
Q 1438 1444 1263 1175 
Q 1088 906 1069 534 
L 3400 534 
L 3400 0 
z
" transform="scale(0.015625)"/>
       </defs>
       <use xlink:href="#Monaco-34"/>
       <use xlink:href="#Monaco-2e" x="60.009766"/>
       <use xlink:href="#Monaco-32" x="120.019531"/>
      </g>
     </g>
    </g>
    <g id="xtick_3">
     <g id="line2d_5">
      <path d="M 256.326307 224.64 
L 256.326307 7.2 
" clip-path="url(#p7801540b0b)" style="fill: none; stroke-dasharray: 0.5,0.825; stroke-dashoffset: 0; stroke: #9c94aa; stroke-opacity: 0.5; stroke-width: 0.5"/>
     </g>
     <g id="line2d_6">
      <g>
       <use xlink:href="#md8f80c3cc9" x="256.326307" y="224.64" style="fill: #cac5d3; stroke: #cac5d3; stroke-width: 0.8"/>
      </g>
     </g>
     <g id="text_3">
      <!-- 4.4 -->
      <g style="fill: #cac5d3" transform="translate(241.922557 244.25)scale(0.16 -0.16)">
       <use xlink:href="#Monaco-34"/>
       <use xlink:href="#Monaco-2e" x="60.009766"/>
       <use xlink:href="#Monaco-34" x="120.019531"/>
      </g>
     </g>
    </g>
    <g id="xtick_4">
     <g id="line2d_7">
      <path d="M 337.489943 224.64 
L 337.489943 7.2 
" clip-path="url(#p7801540b0b)" style="fill: none; stroke-dasharray: 0.5,0.825; stroke-dashoffset: 0; stroke: #9c94aa; stroke-opacity: 0.5; stroke-width: 0.5"/>
     </g>
     <g id="line2d_8">
      <g>
       <use xlink:href="#md8f80c3cc9" x="337.489943" y="224.64" style="fill: #cac5d3; stroke: #cac5d3; stroke-width: 0.8"/>
      </g>
     </g>
     <g id="text_4">
      <!-- 4.6 -->
      <g style="fill: #cac5d3" transform="translate(323.086193 244.25)scale(0.16 -0.16)">
       <defs>
        <path id="Monaco-36" d="M 913 2275 
Q 1138 2609 1470 2820 
Q 1803 3031 2203 3031 
Q 2581 3031 2920 2847 
Q 3259 2663 3437 2333 
Q 3616 2003 3616 1566 
Q 3616 875 3173 364 
Q 2731 -147 2009 -147 
Q 1159 -147 739 564 
Q 319 1275 319 2372 
Q 319 3584 853 4289 
Q 1388 4994 2300 4994 
Q 2791 4994 3253 4850 
L 3253 4263 
Q 2734 4509 2275 4509 
Q 1625 4509 1269 3912 
Q 913 3316 913 2400 
L 913 2275 
z
M 2053 338 
Q 2288 338 2525 477 
Q 2763 616 2898 905 
Q 3034 1194 3034 1534 
Q 3034 1978 2804 2262 
Q 2575 2547 2150 2547 
Q 1709 2547 1426 2217 
Q 1144 1888 1144 1416 
Q 1144 941 1420 639 
Q 1697 338 2053 338 
z
" transform="scale(0.015625)"/>
       </defs>
       <use xlink:href="#Monaco-34"/>
       <use xlink:href="#Monaco-2e" x="60.009766"/>
       <use xlink:href="#Monaco-36" x="120.019531"/>
      </g>
     </g>
    </g>
    <g id="xtick_5">
     <g id="line2d_9">
      <path d="M 418.65358 224.64 
L 418.65358 7.2 
" clip-path="url(#p7801540b0b)" style="fill: none; stroke-dasharray: 0.5,0.825; stroke-dashoffset: 0; stroke: #9c94aa; stroke-opacity: 0.5; stroke-width: 0.5"/>
     </g>
     <g id="line2d_10">
      <g>
       <use xlink:href="#md8f80c3cc9" x="418.65358" y="224.64" style="fill: #cac5d3; stroke: #cac5d3; stroke-width: 0.8"/>
      </g>
     </g>
     <g id="text_5">
      <!-- 4.8 -->
      <g style="fill: #cac5d3" transform="translate(404.24983 244.25)scale(0.16 -0.16)">
       <defs>
        <path id="Monaco-38" d="M 1434 2616 
L 1328 2694 
Q 1106 2850 893 3154 
Q 681 3459 681 3825 
Q 681 4309 1062 4651 
Q 1444 4994 2031 4994 
Q 2391 4994 2678 4864 
Q 2966 4734 3122 4481 
Q 3278 4228 3278 3928 
Q 3278 3722 3206 3530 
Q 3134 3338 2992 3148 
Q 2850 2959 2428 2616 
L 2691 2406 
Q 3150 2031 3309 1759 
Q 3469 1488 3469 1150 
Q 3469 625 3087 239 
Q 2706 -147 1944 -147 
Q 1178 -147 797 214 
Q 416 575 416 1109 
Q 416 1906 1434 2616 
z
M 2031 2913 
Q 2472 3247 2583 3472 
Q 2694 3697 2694 3891 
Q 2694 4125 2487 4317 
Q 2281 4509 1956 4509 
Q 1606 4509 1423 4300 
Q 1241 4091 1241 3866 
Q 1241 3647 1394 3453 
Q 1547 3259 1884 3019 
L 2031 2913 
z
M 1872 2306 
Q 1047 1672 1047 1119 
Q 1047 791 1319 566 
Q 1591 341 1963 341 
Q 2303 341 2572 556 
Q 2841 772 2841 1094 
Q 2841 1409 2514 1734 
Q 2188 2059 2059 2159 
L 1872 2306 
z
" transform="scale(0.015625)"/>
       </defs>
       <use xlink:href="#Monaco-34"/>
       <use xlink:href="#Monaco-2e" x="60.009766"/>
       <use xlink:href="#Monaco-38" x="120.019531"/>
      </g>
     </g>
    </g>
    <g id="xtick_6">
     <g id="line2d_11">
      <path d="M 499.817216 224.64 
L 499.817216 7.2 
" clip-path="url(#p7801540b0b)" style="fill: none; stroke-dasharray: 0.5,0.825; stroke-dashoffset: 0; stroke: #9c94aa; stroke-opacity: 0.5; stroke-width: 0.5"/>
     </g>
     <g id="line2d_12">
      <g>
       <use xlink:href="#md8f80c3cc9" x="499.817216" y="224.64" style="fill: #cac5d3; stroke: #cac5d3; stroke-width: 0.8"/>
      </g>
     </g>
     <g id="text_6">
      <!-- 5.0 -->
      <g style="fill: #cac5d3" transform="translate(485.413466 244.25)scale(0.16 -0.16)">
       <defs>
        <path id="Monaco-35" d="M 588 2522 
L 588 4850 
L 3303 4850 
L 3303 4291 
L 1169 4291 
L 1169 3103 
L 1269 3103 
Q 2316 3103 2881 2665 
Q 3447 2228 3447 1488 
Q 3447 1019 3219 647 
Q 2991 275 2575 64 
Q 2159 -147 1691 -147 
Q 1222 -147 491 81 
L 491 716 
Q 756 572 1084 480 
Q 1413 388 1691 388 
Q 1969 388 2234 522 
Q 2500 656 2647 914 
Q 2794 1172 2794 1441 
Q 2794 1894 2392 2208 
Q 1991 2522 966 2522 
L 588 2522 
z
" transform="scale(0.015625)"/>
       </defs>
       <use xlink:href="#Monaco-35"/>
       <use xlink:href="#Monaco-2e" x="60.009766"/>
       <use xlink:href="#Monaco-30" x="120.019531"/>
      </g>
     </g>
    </g>
   </g>
   <g id="matplotlib.axis_2">
    <g id="ytick_1">
     <g id="line2d_13">
      <path d="M 73.708125 224.64 
L 520.108125 224.64 
" clip-path="url(#p7801540b0b)" style="fill: none; stroke-dasharray: 0.5,0.825; stroke-dashoffset: 0; stroke: #9c94aa; stroke-opacity: 0.5; stroke-width: 0.5"/>
     </g>
     <g id="line2d_14">
      <defs>
       <path id="mdc5f410acb" d="M 0 0 
L -3.5 0 
" style="stroke: #cac5d3; stroke-width: 0.8"/>
      </defs>
      <g>
       <use xlink:href="#mdc5f410acb" x="73.708125" y="224.64" style="fill: #cac5d3; stroke: #cac5d3; stroke-width: 0.8"/>
      </g>
     </g>
     <g id="text_7">
      <!-- 0 -->
      <g style="fill: #cac5d3" transform="translate(57.105625 230.945)scale(0.16 -0.16)">
       <use xlink:href="#Monaco-30"/>
      </g>
     </g>
    </g>
    <g id="ytick_2">
     <g id="line2d_15">
      <path d="M 73.708125 157.838157 
L 520.108125 157.838157 
" clip-path="url(#p7801540b0b)" style="fill: none; stroke-dasharray: 0.5,0.825; stroke-dashoffset: 0; stroke: #9c94aa; stroke-opacity: 0.5; stroke-width: 0.5"/>
     </g>
     <g id="line2d_16">
      <g>
       <use xlink:href="#mdc5f410acb" x="73.708125" y="157.838157" style="fill: #cac5d3; stroke: #cac5d3; stroke-width: 0.8"/>
      </g>
     </g>
     <g id="text_8">
      <!-- 20 -->
      <g style="fill: #cac5d3" transform="translate(47.503125 164.143157)scale(0.16 -0.16)">
       <use xlink:href="#Monaco-32"/>
       <use xlink:href="#Monaco-30" x="60.009766"/>
      </g>
     </g>
    </g>
    <g id="ytick_3">
     <g id="line2d_17">
      <path d="M 73.708125 91.036313 
L 520.108125 91.036313 
" clip-path="url(#p7801540b0b)" style="fill: none; stroke-dasharray: 0.5,0.825; stroke-dashoffset: 0; stroke: #9c94aa; stroke-opacity: 0.5; stroke-width: 0.5"/>
     </g>
     <g id="line2d_18">
      <g>
       <use xlink:href="#mdc5f410acb" x="73.708125" y="91.036313" style="fill: #cac5d3; stroke: #cac5d3; stroke-width: 0.8"/>
      </g>
     </g>
     <g id="text_9">
      <!-- 40 -->
      <g style="fill: #cac5d3" transform="translate(47.503125 97.341313)scale(0.16 -0.16)">
       <use xlink:href="#Monaco-34"/>
       <use xlink:href="#Monaco-30" x="60.009766"/>
      </g>
     </g>
    </g>
    <g id="ytick_4">
     <g id="line2d_19">
      <path d="M 73.708125 24.23447 
L 520.108125 24.23447 
" clip-path="url(#p7801540b0b)" style="fill: none; stroke-dasharray: 0.5,0.825; stroke-dashoffset: 0; stroke: #9c94aa; stroke-opacity: 0.5; stroke-width: 0.5"/>
     </g>
     <g id="line2d_20">
      <g>
       <use xlink:href="#mdc5f410acb" x="73.708125" y="24.23447" style="fill: #cac5d3; stroke: #cac5d3; stroke-width: 0.8"/>
      </g>
     </g>
     <g id="text_10">
      <!-- 60 -->
      <g style="fill: #cac5d3" transform="translate(47.503125 30.53947)scale(0.16 -0.16)">
       <use xlink:href="#Monaco-36"/>
       <use xlink:href="#Monaco-30" x="60.009766"/>
      </g>
     </g>
    </g>
    <g id="text_11">
     <!-- Questions -->
     <g style="fill: #cac5d3" transform="translate(23.265625 169.934062)rotate(-90)scale(0.2 -0.2)">
      <defs>
       <path id="Monaco-51" d="M 2331 -91 
Q 2550 -453 2722 -593 
Q 2894 -734 3169 -803 
Q 3444 -872 3778 -872 
L 3834 -872 
L 3834 -1356 
L 3688 -1356 
Q 3084 -1356 2809 -1231 
Q 2534 -1106 2290 -847 
Q 2047 -588 1847 -141 
Q 1275 -78 942 222 
Q 609 522 415 1150 
Q 222 1778 222 2500 
Q 222 3556 644 4275 
Q 1066 4994 1919 4994 
Q 2744 4994 3180 4300 
Q 3616 3606 3616 2422 
Q 3616 1859 3502 1345 
Q 3388 831 3108 442 
Q 2828 53 2331 -91 
z
M 1919 4509 
Q 1463 4509 1158 3992 
Q 853 3475 853 2425 
Q 853 1375 1158 858 
Q 1463 341 1919 341 
Q 2375 341 2679 858 
Q 2984 1375 2984 2425 
Q 2984 3475 2679 3992 
Q 2375 4509 1919 4509 
z
" transform="scale(0.015625)"/>
       <path id="Monaco-75" d="M 3356 3491 
L 3356 0 
L 2775 0 
L 2775 766 
Q 2494 334 2150 118 
Q 1806 -97 1463 -97 
Q 1156 -97 901 67 
Q 647 231 547 498 
Q 447 766 447 1541 
L 447 3491 
L 1028 3491 
L 1028 1469 
Q 1028 966 1076 805 
Q 1125 644 1254 541 
Q 1384 438 1534 438 
Q 1841 438 2192 727 
Q 2544 1016 2775 1456 
L 2775 3491 
L 3356 3491 
z
" transform="scale(0.015625)"/>
       <path id="Monaco-65" d="M 3388 231 
Q 2691 -100 2069 -100 
Q 1597 -100 1225 134 
Q 853 369 629 805 
Q 406 1241 406 1738 
Q 406 2216 618 2656 
Q 831 3097 1212 3342 
Q 1594 3588 2063 3588 
Q 2684 3588 3061 3144 
Q 3438 2700 3438 1775 
L 3438 1650 
L 1031 1650 
Q 1031 1288 1182 988 
Q 1334 688 1581 538 
Q 1828 388 2144 388 
Q 2706 388 3388 763 
L 3388 231 
z
M 1066 2084 
L 2806 2084 
L 2806 2169 
Q 2806 2597 2597 2850 
Q 2388 3103 2038 3103 
Q 1684 3103 1426 2845 
Q 1169 2588 1066 2084 
z
" transform="scale(0.015625)"/>
       <path id="Monaco-73" d="M 525 184 
L 525 800 
Q 875 572 1265 480 
Q 1656 388 1928 388 
Q 2369 388 2562 530 
Q 2756 672 2756 884 
Q 2756 1025 2666 1125 
Q 2575 1225 2216 1372 
L 2016 1453 
L 1613 1613 
Q 963 1866 794 2081 
Q 622 2294 622 2600 
Q 622 3031 955 3309 
Q 1288 3588 2034 3588 
Q 2594 3588 3094 3425 
L 3094 2897 
Q 2519 3103 2013 3103 
Q 1644 3103 1436 2973 
Q 1228 2844 1228 2650 
Q 1228 2463 1409 2350 
Q 1588 2238 1991 2091 
L 2384 1947 
Q 2925 1750 3144 1519 
Q 3363 1288 3363 941 
Q 3363 488 3014 195 
Q 2666 -97 1900 -97 
Q 1231 -97 525 184 
z
" transform="scale(0.015625)"/>
       <path id="Monaco-74" d="M 3403 141 
Q 2994 -31 2809 -64 
Q 2625 -97 2453 -97 
Q 2088 -97 1784 43 
Q 1481 184 1326 459 
Q 1172 734 1172 1309 
L 1172 2716 
L 300 2716 
L 300 3200 
L 1172 3200 
L 1172 4606 
L 1753 4606 
L 1753 3200 
L 3306 3200 
L 3306 2716 
L 1753 2716 
L 1753 1319 
Q 1753 897 1853 723 
Q 1953 550 2120 469 
Q 2288 388 2516 388 
Q 2938 388 3403 653 
L 3403 141 
z
" transform="scale(0.015625)"/>
       <path id="Monaco-69" d="M 1463 0 
L 1463 3006 
L 494 3006 
L 494 3491 
L 2044 3491 
L 2044 484 
L 3016 484 
L 3016 0 
L 1463 0 
z
M 1366 4750 
Q 1366 4947 1500 5044 
Q 1634 5141 1753 5141 
Q 1875 5141 2009 5044 
Q 2144 4947 2144 4750 
Q 2144 4556 2009 4459 
Q 1875 4363 1753 4363 
Q 1634 4363 1500 4459 
Q 1366 4556 1366 4750 
z
" transform="scale(0.015625)"/>
       <path id="Monaco-6f" d="M 1922 -97 
Q 1172 -97 722 426 
Q 272 950 272 1747 
Q 272 2544 722 3066 
Q 1172 3588 1922 3588 
Q 2669 3588 3119 3066 
Q 3569 2544 3569 1747 
Q 3569 950 3119 426 
Q 2669 -97 1922 -97 
z
M 1922 388 
Q 2388 388 2663 750 
Q 2938 1113 2938 1747 
Q 2938 2378 2663 2740 
Q 2388 3103 1922 3103 
Q 1453 3103 1178 2740 
Q 903 2378 903 1747 
Q 903 1113 1178 750 
Q 1453 388 1922 388 
z
" transform="scale(0.015625)"/>
       <path id="Monaco-6e" d="M 484 0 
L 484 3491 
L 1066 3491 
L 1066 2728 
Q 1316 3131 1669 3359 
Q 2022 3588 2375 3588 
Q 2684 3588 2937 3423 
Q 3191 3259 3292 2993 
Q 3394 2728 3394 1950 
L 3394 0 
L 2813 0 
L 2813 2022 
Q 2813 2525 2764 2686 
Q 2716 2847 2586 2950 
Q 2456 3053 2303 3053 
Q 1997 3053 1645 2762 
Q 1294 2472 1066 2034 
L 1066 0 
L 484 0 
z
" transform="scale(0.015625)"/>
      </defs>
      <use xlink:href="#Monaco-51"/>
      <use xlink:href="#Monaco-75" x="60.009766"/>
      <use xlink:href="#Monaco-65" x="120.019531"/>
      <use xlink:href="#Monaco-73" x="180.029297"/>
      <use xlink:href="#Monaco-74" x="240.039062"/>
      <use xlink:href="#Monaco-69" x="300.048828"/>
      <use xlink:href="#Monaco-6f" x="360.058594"/>
      <use xlink:href="#Monaco-6e" x="420.068359"/>
      <use xlink:href="#Monaco-73" x="480.078125"/>
     </g>
    </g>
   </g>
   <g id="patch_13">
    <path d="M 73.708125 224.64 
L 73.708125 7.2 
" style="fill: none; stroke: #cac5d3; stroke-width: 0.8; stroke-linejoin: miter; stroke-linecap: square"/>
   </g>
   <g id="patch_14">
    <path d="M 520.108125 224.64 
L 520.108125 7.2 
" style="fill: none; stroke: #cac5d3; stroke-width: 0.8; stroke-linejoin: miter; stroke-linecap: square"/>
   </g>
   <g id="patch_15">
    <path d="M 73.708125 224.64 
L 520.108125 224.64 
" style="fill: none; stroke: #cac5d3; stroke-width: 0.8; stroke-linejoin: miter; stroke-linecap: square"/>
   </g>
   <g id="patch_16">
    <path d="M 73.708125 7.2 
L 520.108125 7.2 
" style="fill: none; stroke: #cac5d3; stroke-width: 0.8; stroke-linejoin: miter; stroke-linecap: square"/>
   </g>
  </g>
 </g>
 <defs>
  <clipPath id="p7801540b0b">
   <rect x="73.708125" y="7.2" width="446.4" height="217.44"/>
  </clipPath>
 </defs>
</svg>
