<?xml version="1.0" encoding="utf-8" standalone="no"?>
<!DOCTYPE svg PUBLIC "-//W3C//DTD SVG 1.1//EN"
  "http://www.w3.org/Graphics/SVG/1.1/DTD/svg11.dtd">
<svg xmlns:xlink="http://www.w3.org/1999/xlink" width="387.770312pt" height="196.82pt" viewBox="0 0 387.770312 196.82" xmlns="http://www.w3.org/2000/svg" version="1.1">
 <metadata>
  <rdf:RDF xmlns:dc="http://purl.org/dc/elements/1.1/" xmlns:cc="http://creativecommons.org/ns#" xmlns:rdf="http://www.w3.org/1999/02/22-rdf-syntax-ns#">
   <cc:Work>
    <dc:type rdf:resource="http://purl.org/dc/dcmitype/StillImage"/>
    <dc:date>2022-07-07T16:22:37.644402</dc:date>
    <dc:format>image/svg+xml</dc:format>
    <dc:creator>
     <cc:Agent>
      <dc:title>Matplotlib v3.5.2, https://matplotlib.org/</dc:title>
     </cc:Agent>
    </dc:creator>
   </cc:Work>
  </rdf:RDF>
 </metadata>
 <defs>
  <style type="text/css">*{stroke-linejoin: round; stroke-linecap: butt}</style>
 </defs>
 <g id="figure_1">
  <g id="patch_1">
   <path d="M 0 196.82 
L 387.770312 196.82 
L 387.770312 0 
L 0 0 
z
" style="fill: #131516"/>
  </g>
  <g id="axes_1">
   <g id="patch_2">
    <path d="M 45.770313 173.52 
L 380.570312 173.52 
L 380.570312 7.2 
L 45.770313 7.2 
L 45.770313 173.52 
z
" style="fill: none"/>
   </g>
   <g id="patch_3">
    <path d="M 60.988494 173.52 
L 68.597585 173.52 
L 68.597585 107.213023 
L 60.988494 107.213023 
z
" clip-path="url(#p5cbd73c2d3)" style="fill: #d2cec8"/>
   </g>
   <g id="patch_4">
    <path d="M 68.597585 173.52 
L 76.206676 173.52 
L 76.206676 134.84093 
L 68.597585 134.84093 
z
" clip-path="url(#p5cbd73c2d3)" style="fill: #d2cec8"/>
   </g>
   <g id="patch_5">
    <path d="M 76.206676 173.52 
L 83.815767 173.52 
L 83.815767 74.059535 
L 76.206676 74.059535 
z
" clip-path="url(#p5cbd73c2d3)" style="fill: #d2cec8"/>
   </g>
   <g id="patch_6">
    <path d="M 83.815767 173.52 
L 91.424858 173.52 
L 91.424858 75.901395 
L 83.815767 75.901395 
z
" clip-path="url(#p5cbd73c2d3)" style="fill: #d2cec8"/>
   </g>
   <g id="patch_7">
    <path d="M 91.424858 173.52 
L 99.033949 173.52 
L 99.033949 83.268837 
L 91.424858 83.268837 
z
" clip-path="url(#p5cbd73c2d3)" style="fill: #d2cec8"/>
   </g>
   <g id="patch_8">
    <path d="M 99.033949 173.52 
L 106.64304 173.52 
L 106.64304 64.850233 
L 99.033949 64.850233 
z
" clip-path="url(#p5cbd73c2d3)" style="fill: #d2cec8"/>
   </g>
   <g id="patch_9">
    <path d="M 106.64304 173.52 
L 114.252131 173.52 
L 114.252131 55.64093 
L 106.64304 55.64093 
z
" clip-path="url(#p5cbd73c2d3)" style="fill: #d2cec8"/>
   </g>
   <g id="patch_10">
    <path d="M 114.252131 173.52 
L 121.861222 173.52 
L 121.861222 37.222326 
L 114.252131 37.222326 
z
" clip-path="url(#p5cbd73c2d3)" style="fill: #d2cec8"/>
   </g>
   <g id="patch_11">
    <path d="M 121.861222 173.52 
L 129.470313 173.52 
L 129.470313 50.115349 
L 121.861222 50.115349 
z
" clip-path="url(#p5cbd73c2d3)" style="fill: #d2cec8"/>
   </g>
   <g id="patch_12">
    <path d="M 129.470313 173.52 
L 137.079403 173.52 
L 137.079403 64.850233 
L 129.470313 64.850233 
z
" clip-path="url(#p5cbd73c2d3)" style="fill: #d2cec8"/>
   </g>
   <g id="patch_13">
    <path d="M 137.079403 173.52 
L 144.688494 173.52 
L 144.688494 72.217674 
L 137.079403 72.217674 
z
" clip-path="url(#p5cbd73c2d3)" style="fill: #d2cec8"/>
   </g>
   <g id="patch_14">
    <path d="M 144.688494 173.52 
L 152.297585 173.52 
L 152.297585 68.533953 
L 144.688494 68.533953 
z
" clip-path="url(#p5cbd73c2d3)" style="fill: #d2cec8"/>
   </g>
   <g id="patch_15">
    <path d="M 152.297585 173.52 
L 159.906676 173.52 
L 159.906676 83.268837 
L 152.297585 83.268837 
z
" clip-path="url(#p5cbd73c2d3)" style="fill: #d2cec8"/>
   </g>
   <g id="patch_16">
    <path d="M 159.906676 173.52 
L 167.515767 173.52 
L 167.515767 15.12 
L 159.906676 15.12 
z
" clip-path="url(#p5cbd73c2d3)" style="fill: #d2cec8"/>
   </g>
   <g id="patch_17">
    <path d="M 167.515767 173.52 
L 175.124858 173.52 
L 175.124858 127.473488 
L 167.515767 127.473488 
z
" clip-path="url(#p5cbd73c2d3)" style="fill: #d2cec8"/>
   </g>
   <g id="patch_18">
    <path d="M 175.124858 173.52 
L 182.733949 173.52 
L 182.733949 134.84093 
L 175.124858 134.84093 
z
" clip-path="url(#p5cbd73c2d3)" style="fill: #d2cec8"/>
   </g>
   <g id="patch_19">
    <path d="M 182.733949 173.52 
L 190.34304 173.52 
L 190.34304 127.473488 
L 182.733949 127.473488 
z
" clip-path="url(#p5cbd73c2d3)" style="fill: #d2cec8"/>
   </g>
   <g id="patch_20">
    <path d="M 190.34304 173.52 
L 197.952131 173.52 
L 197.952131 145.892093 
L 190.34304 145.892093 
z
" clip-path="url(#p5cbd73c2d3)" style="fill: #d2cec8"/>
   </g>
   <g id="patch_21">
    <path d="M 197.952131 173.52 
L 205.561222 173.52 
L 205.561222 142.208372 
L 197.952131 142.208372 
z
" clip-path="url(#p5cbd73c2d3)" style="fill: #d2cec8"/>
   </g>
   <g id="patch_22">
    <path d="M 205.561222 173.52 
L 213.170312 173.52 
L 213.170312 136.682791 
L 205.561222 136.682791 
z
" clip-path="url(#p5cbd73c2d3)" style="fill: #d2cec8"/>
   </g>
   <g id="patch_23">
    <path d="M 213.170313 173.52 
L 220.779403 173.52 
L 220.779403 158.785116 
L 213.170313 158.785116 
z
" clip-path="url(#p5cbd73c2d3)" style="fill: #d2cec8"/>
   </g>
   <g id="patch_24">
    <path d="M 220.779403 173.52 
L 228.388494 173.52 
L 228.388494 142.208372 
L 220.779403 142.208372 
z
" clip-path="url(#p5cbd73c2d3)" style="fill: #d2cec8"/>
   </g>
   <g id="patch_25">
    <path d="M 228.388494 173.52 
L 235.997585 173.52 
L 235.997585 142.208372 
L 228.388494 142.208372 
z
" clip-path="url(#p5cbd73c2d3)" style="fill: #d2cec8"/>
   </g>
   <g id="patch_26">
    <path d="M 235.997585 173.52 
L 243.606676 173.52 
L 243.606676 164.310698 
L 235.997585 164.310698 
z
" clip-path="url(#p5cbd73c2d3)" style="fill: #d2cec8"/>
   </g>
   <g id="patch_27">
    <path d="M 243.606676 173.52 
L 251.215767 173.52 
L 251.215767 158.785116 
L 243.606676 158.785116 
z
" clip-path="url(#p5cbd73c2d3)" style="fill: #d2cec8"/>
   </g>
   <g id="patch_28">
    <path d="M 251.215767 173.52 
L 258.824858 173.52 
L 258.824858 164.310698 
L 251.215767 164.310698 
z
" clip-path="url(#p5cbd73c2d3)" style="fill: #d2cec8"/>
   </g>
   <g id="patch_29">
    <path d="M 258.824858 173.52 
L 266.433949 173.52 
L 266.433949 153.259535 
L 258.824858 153.259535 
z
" clip-path="url(#p5cbd73c2d3)" style="fill: #d2cec8"/>
   </g>
   <g id="patch_30">
    <path d="M 266.433949 173.52 
L 274.04304 173.52 
L 274.04304 166.152558 
L 266.433949 166.152558 
z
" clip-path="url(#p5cbd73c2d3)" style="fill: #d2cec8"/>
   </g>
   <g id="patch_31">
    <path d="M 274.04304 173.52 
L 281.652131 173.52 
L 281.652131 167.994419 
L 274.04304 167.994419 
z
" clip-path="url(#p5cbd73c2d3)" style="fill: #d2cec8"/>
   </g>
   <g id="patch_32">
    <path d="M 281.652131 173.52 
L 289.261222 173.52 
L 289.261222 166.152558 
L 281.652131 166.152558 
z
" clip-path="url(#p5cbd73c2d3)" style="fill: #d2cec8"/>
   </g>
   <g id="patch_33">
    <path d="M 289.261222 173.52 
L 296.870313 173.52 
L 296.870313 171.67814 
L 289.261222 171.67814 
z
" clip-path="url(#p5cbd73c2d3)" style="fill: #d2cec8"/>
   </g>
   <g id="patch_34">
    <path d="M 296.870312 173.52 
L 304.479403 173.52 
L 304.479403 169.836279 
L 296.870312 169.836279 
z
" clip-path="url(#p5cbd73c2d3)" style="fill: #d2cec8"/>
   </g>
   <g id="patch_35">
    <path d="M 304.479403 173.52 
L 312.088494 173.52 
L 312.088494 171.67814 
L 304.479403 171.67814 
z
" clip-path="url(#p5cbd73c2d3)" style="fill: #d2cec8"/>
   </g>
   <g id="patch_36">
    <path d="M 312.088494 173.52 
L 319.697585 173.52 
L 319.697585 171.67814 
L 312.088494 171.67814 
z
" clip-path="url(#p5cbd73c2d3)" style="fill: #d2cec8"/>
   </g>
   <g id="patch_37">
    <path d="M 319.697585 173.52 
L 327.306676 173.52 
L 327.306676 171.67814 
L 319.697585 171.67814 
z
" clip-path="url(#p5cbd73c2d3)" style="fill: #d2cec8"/>
   </g>
   <g id="patch_38">
    <path d="M 327.306676 173.52 
L 334.915767 173.52 
L 334.915767 169.836279 
L 327.306676 169.836279 
z
" clip-path="url(#p5cbd73c2d3)" style="fill: #d2cec8"/>
   </g>
   <g id="patch_39">
    <path d="M 334.915767 173.52 
L 342.524858 173.52 
L 342.524858 167.994419 
L 334.915767 167.994419 
z
" clip-path="url(#p5cbd73c2d3)" style="fill: #d2cec8"/>
   </g>
   <g id="patch_40">
    <path d="M 342.524858 173.52 
L 350.133949 173.52 
L 350.133949 173.52 
L 342.524858 173.52 
z
" clip-path="url(#p5cbd73c2d3)" style="fill: #d2cec8"/>
   </g>
   <g id="patch_41">
    <path d="M 350.133949 173.52 
L 357.74304 173.52 
L 357.74304 173.52 
L 350.133949 173.52 
z
" clip-path="url(#p5cbd73c2d3)" style="fill: #d2cec8"/>
   </g>
   <g id="patch_42">
    <path d="M 357.74304 173.52 
L 365.352131 173.52 
L 365.352131 171.67814 
L 357.74304 171.67814 
z
" clip-path="url(#p5cbd73c2d3)" style="fill: #d2cec8"/>
   </g>
   <g id="matplotlib.axis_1">
    <g id="xtick_1">
     <g id="line2d_1">
      <path d="M 57.714816 173.52 
L 57.714816 7.2 
" clip-path="url(#p5cbd73c2d3)" style="fill: none; stroke-dasharray: 2.96,1.28; stroke-dashoffset: 0; stroke: #bbb5ac; stroke-opacity: 0.5; stroke-width: 0.8"/>
     </g>
     <g id="line2d_2">
      <defs>
       <path id="m9058a04035" d="M 0 0 
L 0 3.5 
" style="stroke: #bbb5ac; stroke-width: 0.8"/>
      </defs>
      <g>
       <use xlink:href="#m9058a04035" x="57.714816" y="173.52" style="fill: #bbb5ac; stroke: #bbb5ac; stroke-width: 0.8"/>
      </g>
     </g>
     <g id="text_1">
      <!-- 0 -->
      <g style="fill: #d2cec8" transform="translate(54.714816 187.82)scale(0.1 -0.1)">
       <defs>
        <path id="JetBrainsMono-Regular-30" d="M 1920 -64 
Q 1274 -64 893 310 
Q 512 685 512 1312 
L 512 3360 
Q 512 3987 893 4361 
Q 1274 4736 1920 4736 
Q 2566 4736 2947 4361 
Q 3328 3987 3328 3360 
L 3328 1312 
Q 3328 896 3155 585 
Q 2982 275 2665 105 
Q 2349 -64 1920 -64 
z
M 1920 429 
Q 2304 429 2537 675 
Q 2771 922 2771 1312 
L 2771 3360 
Q 2771 3750 2537 3996 
Q 2304 4243 1920 4243 
Q 1536 4243 1302 3996 
Q 1069 3750 1069 3360 
L 1069 1312 
Q 1069 922 1302 675 
Q 1536 429 1920 429 
z
M 1920 1958 
Q 1747 1958 1641 2067 
Q 1536 2176 1536 2355 
Q 1536 2528 1641 2633 
Q 1747 2739 1920 2739 
Q 2093 2739 2198 2633 
Q 2304 2528 2304 2355 
Q 2304 2176 2198 2067 
Q 2093 1958 1920 1958 
z
" transform="scale(0.015625)"/>
       </defs>
       <use xlink:href="#JetBrainsMono-Regular-30"/>
      </g>
     </g>
    </g>
    <g id="xtick_2">
     <g id="line2d_3">
      <path d="M 128.497057 173.52 
L 128.497057 7.2 
" clip-path="url(#p5cbd73c2d3)" style="fill: none; stroke-dasharray: 2.96,1.28; stroke-dashoffset: 0; stroke: #bbb5ac; stroke-opacity: 0.5; stroke-width: 0.8"/>
     </g>
     <g id="line2d_4">
      <g>
       <use xlink:href="#m9058a04035" x="128.497057" y="173.52" style="fill: #bbb5ac; stroke: #bbb5ac; stroke-width: 0.8"/>
      </g>
     </g>
     <g id="text_2">
      <!-- 10 -->
      <g style="fill: #d2cec8" transform="translate(122.497057 187.82)scale(0.1 -0.1)">
       <defs>
        <path id="JetBrainsMono-Regular-31" d="M 576 0 
L 576 525 
L 1843 525 
L 1843 4192 
L 576 3245 
L 576 3885 
L 1632 4672 
L 2419 4672 
L 2419 525 
L 3456 525 
L 3456 0 
L 576 0 
z
" transform="scale(0.015625)"/>
       </defs>
       <use xlink:href="#JetBrainsMono-Regular-31"/>
       <use xlink:href="#JetBrainsMono-Regular-30" x="59.999985"/>
      </g>
     </g>
    </g>
    <g id="xtick_3">
     <g id="line2d_5">
      <path d="M 199.279298 173.52 
L 199.279298 7.2 
" clip-path="url(#p5cbd73c2d3)" style="fill: none; stroke-dasharray: 2.96,1.28; stroke-dashoffset: 0; stroke: #bbb5ac; stroke-opacity: 0.5; stroke-width: 0.8"/>
     </g>
     <g id="line2d_6">
      <g>
       <use xlink:href="#m9058a04035" x="199.279298" y="173.52" style="fill: #bbb5ac; stroke: #bbb5ac; stroke-width: 0.8"/>
      </g>
     </g>
     <g id="text_3">
      <!-- 20 -->
      <g style="fill: #d2cec8" transform="translate(193.279298 187.82)scale(0.1 -0.1)">
       <defs>
        <path id="JetBrainsMono-Regular-32" d="M 589 0 
L 589 570 
L 2080 2195 
Q 2413 2554 2563 2835 
Q 2714 3117 2714 3386 
Q 2714 3770 2490 3997 
Q 2266 4224 1882 4224 
Q 1491 4224 1264 3990 
Q 1037 3757 1037 3360 
L 461 3360 
Q 480 3994 864 4365 
Q 1248 4736 1882 4736 
Q 2528 4736 2909 4371 
Q 3290 4006 3290 3379 
Q 3290 3046 3094 2681 
Q 2899 2317 2464 1843 
L 1248 525 
L 3366 525 
L 3366 0 
L 589 0 
z
" transform="scale(0.015625)"/>
       </defs>
       <use xlink:href="#JetBrainsMono-Regular-32"/>
       <use xlink:href="#JetBrainsMono-Regular-30" x="59.999985"/>
      </g>
     </g>
    </g>
    <g id="xtick_4">
     <g id="line2d_7">
      <path d="M 270.061539 173.52 
L 270.061539 7.2 
" clip-path="url(#p5cbd73c2d3)" style="fill: none; stroke-dasharray: 2.96,1.28; stroke-dashoffset: 0; stroke: #bbb5ac; stroke-opacity: 0.5; stroke-width: 0.8"/>
     </g>
     <g id="line2d_8">
      <g>
       <use xlink:href="#m9058a04035" x="270.061539" y="173.52" style="fill: #bbb5ac; stroke: #bbb5ac; stroke-width: 0.8"/>
      </g>
     </g>
     <g id="text_4">
      <!-- 30 -->
      <g style="fill: #d2cec8" transform="translate(264.061539 187.82)scale(0.1 -0.1)">
       <defs>
        <path id="JetBrainsMono-Regular-33" d="M 1850 -64 
Q 1427 -64 1110 105 
Q 794 275 621 576 
Q 448 877 448 1280 
L 1024 1280 
Q 1024 890 1245 669 
Q 1466 448 1856 448 
Q 2253 448 2470 678 
Q 2688 909 2688 1280 
L 2688 1600 
Q 2688 1997 2470 2214 
Q 2253 2432 1856 2432 
L 1350 2432 
L 1350 2931 
L 2464 4147 
L 640 4147 
L 640 4672 
L 3117 4672 
L 3117 4134 
L 2022 2938 
Q 2592 2893 2928 2534 
Q 3264 2176 3264 1600 
L 3264 1280 
Q 3264 877 3088 576 
Q 2912 275 2592 105 
Q 2272 -64 1850 -64 
z
" transform="scale(0.015625)"/>
       </defs>
       <use xlink:href="#JetBrainsMono-Regular-33"/>
       <use xlink:href="#JetBrainsMono-Regular-30" x="59.999985"/>
      </g>
     </g>
    </g>
    <g id="xtick_5">
     <g id="line2d_9">
      <path d="M 340.84378 173.52 
L 340.84378 7.2 
" clip-path="url(#p5cbd73c2d3)" style="fill: none; stroke-dasharray: 2.96,1.28; stroke-dashoffset: 0; stroke: #bbb5ac; stroke-opacity: 0.5; stroke-width: 0.8"/>
     </g>
     <g id="line2d_10">
      <g>
       <use xlink:href="#m9058a04035" x="340.84378" y="173.52" style="fill: #bbb5ac; stroke: #bbb5ac; stroke-width: 0.8"/>
      </g>
     </g>
     <g id="text_5">
      <!-- 40 -->
      <g style="fill: #d2cec8" transform="translate(334.84378 187.82)scale(0.1 -0.1)">
       <defs>
        <path id="JetBrainsMono-Regular-34" d="M 2560 0 
L 2560 1024 
L 448 1024 
L 448 1926 
L 2150 4672 
L 2784 4672 
L 1024 1811 
L 1024 1549 
L 2560 1549 
L 2560 2688 
L 3136 2688 
L 3136 0 
L 2560 0 
z
" transform="scale(0.015625)"/>
       </defs>
       <use xlink:href="#JetBrainsMono-Regular-34"/>
       <use xlink:href="#JetBrainsMono-Regular-30" x="59.999985"/>
      </g>
     </g>
    </g>
   </g>
   <g id="matplotlib.axis_2">
    <g id="ytick_1">
     <g id="line2d_11">
      <path d="M 45.770313 173.52 
L 380.570312 173.52 
" clip-path="url(#p5cbd73c2d3)" style="fill: none; stroke-dasharray: 2.96,1.28; stroke-dashoffset: 0; stroke: #bbb5ac; stroke-opacity: 0.5; stroke-width: 0.8"/>
     </g>
     <g id="line2d_12">
      <defs>
       <path id="m38509c2ba9" d="M 0 0 
L -3.5 0 
" style="stroke: #bbb5ac; stroke-width: 0.8"/>
      </defs>
      <g>
       <use xlink:href="#m38509c2ba9" x="45.770313" y="173.52" style="fill: #bbb5ac; stroke: #bbb5ac; stroke-width: 0.8"/>
      </g>
     </g>
     <g id="text_6">
      <!-- 0 -->
      <g style="fill: #d2cec8" transform="translate(32.770313 177.17)scale(0.1 -0.1)">
       <use xlink:href="#JetBrainsMono-Regular-30"/>
      </g>
     </g>
    </g>
    <g id="ytick_2">
     <g id="line2d_13">
      <path d="M 45.770313 136.682791 
L 380.570312 136.682791 
" clip-path="url(#p5cbd73c2d3)" style="fill: none; stroke-dasharray: 2.96,1.28; stroke-dashoffset: 0; stroke: #bbb5ac; stroke-opacity: 0.5; stroke-width: 0.8"/>
     </g>
     <g id="line2d_14">
      <g>
       <use xlink:href="#m38509c2ba9" x="45.770313" y="136.682791" style="fill: #bbb5ac; stroke: #bbb5ac; stroke-width: 0.8"/>
      </g>
     </g>
     <g id="text_7">
      <!-- 20 -->
      <g style="fill: #d2cec8" transform="translate(26.770313 140.332791)scale(0.1 -0.1)">
       <use xlink:href="#JetBrainsMono-Regular-32"/>
       <use xlink:href="#JetBrainsMono-Regular-30" x="59.999985"/>
      </g>
     </g>
    </g>
    <g id="ytick_3">
     <g id="line2d_15">
      <path d="M 45.770313 99.845581 
L 380.570312 99.845581 
" clip-path="url(#p5cbd73c2d3)" style="fill: none; stroke-dasharray: 2.96,1.28; stroke-dashoffset: 0; stroke: #bbb5ac; stroke-opacity: 0.5; stroke-width: 0.8"/>
     </g>
     <g id="line2d_16">
      <g>
       <use xlink:href="#m38509c2ba9" x="45.770313" y="99.845581" style="fill: #bbb5ac; stroke: #bbb5ac; stroke-width: 0.8"/>
      </g>
     </g>
     <g id="text_8">
      <!-- 40 -->
      <g style="fill: #d2cec8" transform="translate(26.770313 103.495581)scale(0.1 -0.1)">
       <use xlink:href="#JetBrainsMono-Regular-34"/>
       <use xlink:href="#JetBrainsMono-Regular-30" x="59.999985"/>
      </g>
     </g>
    </g>
    <g id="ytick_4">
     <g id="line2d_17">
      <path d="M 45.770313 63.008372 
L 380.570312 63.008372 
" clip-path="url(#p5cbd73c2d3)" style="fill: none; stroke-dasharray: 2.96,1.28; stroke-dashoffset: 0; stroke: #bbb5ac; stroke-opacity: 0.5; stroke-width: 0.8"/>
     </g>
     <g id="line2d_18">
      <g>
       <use xlink:href="#m38509c2ba9" x="45.770313" y="63.008372" style="fill: #bbb5ac; stroke: #bbb5ac; stroke-width: 0.8"/>
      </g>
     </g>
     <g id="text_9">
      <!-- 60 -->
      <g style="fill: #d2cec8" transform="translate(26.770313 66.658372)scale(0.1 -0.1)">
       <defs>
        <path id="JetBrainsMono-Regular-36" d="M 1926 -64 
Q 1472 -64 1129 125 
Q 787 314 598 650 
Q 410 986 410 1427 
Q 410 1734 522 2057 
Q 634 2381 832 2733 
L 1933 4672 
L 2560 4672 
L 1293 2515 
L 1318 2496 
Q 1434 2669 1651 2771 
Q 1869 2874 2144 2874 
Q 2528 2874 2819 2694 
Q 3110 2515 3270 2198 
Q 3430 1882 3430 1453 
Q 3430 998 3241 656 
Q 3053 314 2717 125 
Q 2381 -64 1926 -64 
z
M 1920 448 
Q 2336 448 2595 720 
Q 2854 992 2854 1440 
Q 2854 1888 2595 2160 
Q 2336 2432 1920 2432 
Q 1504 2432 1245 2160 
Q 986 1888 986 1440 
Q 986 992 1245 720 
Q 1504 448 1920 448 
z
" transform="scale(0.015625)"/>
       </defs>
       <use xlink:href="#JetBrainsMono-Regular-36"/>
       <use xlink:href="#JetBrainsMono-Regular-30" x="59.999985"/>
      </g>
     </g>
    </g>
    <g id="ytick_5">
     <g id="line2d_19">
      <path d="M 45.770313 26.171163 
L 380.570312 26.171163 
" clip-path="url(#p5cbd73c2d3)" style="fill: none; stroke-dasharray: 2.96,1.28; stroke-dashoffset: 0; stroke: #bbb5ac; stroke-opacity: 0.5; stroke-width: 0.8"/>
     </g>
     <g id="line2d_20">
      <g>
       <use xlink:href="#m38509c2ba9" x="45.770313" y="26.171163" style="fill: #bbb5ac; stroke: #bbb5ac; stroke-width: 0.8"/>
      </g>
     </g>
     <g id="text_10">
      <!-- 80 -->
      <g style="fill: #d2cec8" transform="translate(26.770313 29.821163)scale(0.1 -0.1)">
       <defs>
        <path id="JetBrainsMono-Regular-38" d="M 1920 -64 
Q 1472 -64 1133 93 
Q 794 250 608 528 
Q 422 806 422 1171 
Q 422 1568 675 1910 
Q 928 2253 1350 2445 
Q 934 2650 729 2934 
Q 525 3219 525 3546 
Q 525 3898 707 4166 
Q 890 4435 1203 4588 
Q 1517 4742 1920 4742 
Q 2323 4742 2640 4588 
Q 2957 4435 3136 4166 
Q 3315 3898 3315 3546 
Q 3315 3226 3110 2941 
Q 2906 2656 2490 2445 
Q 2912 2253 3165 1910 
Q 3418 1568 3418 1171 
Q 3418 806 3232 528 
Q 3046 250 2710 93 
Q 2374 -64 1920 -64 
z
M 1734 2733 
L 1920 2662 
L 2080 2726 
Q 2381 2842 2566 3056 
Q 2752 3270 2752 3526 
Q 2752 3840 2521 4035 
Q 2291 4230 1920 4230 
Q 1549 4230 1318 4032 
Q 1088 3834 1088 3526 
Q 1088 3264 1267 3053 
Q 1446 2842 1734 2733 
z
M 1920 448 
Q 2342 448 2598 669 
Q 2854 890 2854 1248 
Q 2854 1530 2681 1757 
Q 2509 1984 2195 2106 
L 1920 2214 
L 1626 2099 
Q 1318 1978 1152 1750 
Q 986 1523 986 1248 
Q 986 890 1242 669 
Q 1498 448 1920 448 
z
" transform="scale(0.015625)"/>
       </defs>
       <use xlink:href="#JetBrainsMono-Regular-38"/>
       <use xlink:href="#JetBrainsMono-Regular-30" x="59.999985"/>
      </g>
     </g>
    </g>
    <g id="text_11">
     <!-- Questions -->
     <g style="fill: #d2cec8" transform="translate(14.970313 117.36)rotate(-90)scale(0.1 -0.1)">
      <defs>
       <path id="JetBrainsMono-Regular-51" d="M 2701 -1152 
L 2042 -58 
Q 2016 -58 1984 -61 
Q 1952 -64 1920 -64 
Q 1274 -64 893 310 
Q 512 685 512 1312 
L 512 3360 
Q 512 3987 893 4361 
Q 1274 4736 1920 4736 
Q 2566 4736 2947 4361 
Q 3328 3987 3328 3360 
L 3328 1312 
Q 3328 883 3142 563 
Q 2957 243 2618 83 
L 3366 -1152 
L 2701 -1152 
z
M 1920 448 
Q 2298 448 2525 685 
Q 2752 922 2752 1312 
L 2752 3360 
Q 2752 3757 2525 3990 
Q 2298 4224 1920 4224 
Q 1542 4224 1315 3990 
Q 1088 3757 1088 3360 
L 1088 1312 
Q 1088 922 1315 685 
Q 1542 448 1920 448 
z
" transform="scale(0.015625)"/>
       <path id="JetBrainsMono-Regular-75" d="M 1914 -64 
Q 1306 -64 941 297 
Q 576 659 576 1280 
L 576 3520 
L 1152 3520 
L 1152 1280 
Q 1152 883 1357 662 
Q 1562 442 1914 442 
Q 2272 442 2480 662 
Q 2688 883 2688 1280 
L 2688 3520 
L 3264 3520 
L 3264 1280 
Q 3264 659 2893 297 
Q 2522 -64 1914 -64 
z
" transform="scale(0.015625)"/>
       <path id="JetBrainsMono-Regular-65" d="M 1920 -64 
Q 1504 -64 1193 102 
Q 883 269 713 573 
Q 544 877 544 1280 
L 544 2240 
Q 544 2650 713 2950 
Q 883 3251 1193 3417 
Q 1504 3584 1920 3584 
Q 2336 3584 2646 3417 
Q 2957 3251 3126 2950 
Q 3296 2650 3296 2240 
L 3296 1619 
L 1107 1619 
L 1107 1280 
Q 1107 864 1318 643 
Q 1530 422 1920 422 
Q 2253 422 2457 540 
Q 2662 659 2707 896 
L 3283 896 
Q 3226 454 2851 195 
Q 2477 -64 1920 -64 
z
M 1107 2054 
L 2733 2054 
L 2733 2240 
Q 2733 2656 2525 2880 
Q 2317 3104 1920 3104 
Q 1530 3104 1318 2880 
Q 1107 2656 1107 2240 
L 1107 2054 
z
" transform="scale(0.015625)"/>
       <path id="JetBrainsMono-Regular-73" d="M 1811 -51 
Q 1267 -51 921 198 
Q 576 448 576 883 
L 1165 883 
Q 1165 685 1353 573 
Q 1542 461 1824 461 
L 2093 461 
Q 2432 461 2598 598 
Q 2765 736 2765 966 
Q 2765 1190 2608 1321 
Q 2451 1453 2157 1498 
L 1683 1574 
Q 1158 1664 908 1907 
Q 659 2150 659 2579 
Q 659 3059 969 3315 
Q 1280 3571 1862 3571 
L 2106 3571 
Q 2643 3571 2966 3331 
Q 3290 3091 3290 2694 
L 2701 2694 
Q 2701 2861 2537 2960 
Q 2374 3059 2093 3059 
L 1850 3059 
Q 1549 3059 1385 2934 
Q 1222 2810 1222 2579 
Q 1222 2195 1766 2106 
L 2240 2029 
Q 2810 1939 3069 1696 
Q 3328 1453 3328 992 
Q 3328 506 3017 227 
Q 2707 -51 2080 -51 
L 1811 -51 
z
" transform="scale(0.015625)"/>
       <path id="JetBrainsMono-Regular-74" d="M 2304 0 
Q 1869 0 1606 253 
Q 1344 506 1344 928 
L 1344 2995 
L 352 2995 
L 352 3520 
L 1344 3520 
L 1344 4512 
L 1920 4512 
L 1920 3520 
L 3328 3520 
L 3328 2995 
L 1920 2995 
L 1920 928 
Q 1920 749 2025 637 
Q 2131 525 2304 525 
L 3264 525 
L 3264 0 
L 2304 0 
z
" transform="scale(0.015625)"/>
       <path id="JetBrainsMono-Regular-69" d="M 544 0 
L 544 525 
L 1792 525 
L 1792 2995 
L 672 2995 
L 672 3520 
L 2368 3520 
L 2368 525 
L 3552 525 
L 3552 0 
L 544 0 
z
M 2016 4154 
Q 1805 4154 1683 4262 
Q 1562 4371 1562 4557 
Q 1562 4749 1683 4861 
Q 1805 4973 2016 4973 
Q 2227 4973 2348 4861 
Q 2470 4749 2470 4557 
Q 2470 4371 2348 4262 
Q 2227 4154 2016 4154 
z
" transform="scale(0.015625)"/>
       <path id="JetBrainsMono-Regular-6f" d="M 1920 -51 
Q 1280 -51 912 310 
Q 544 672 544 1293 
L 544 2227 
Q 544 2854 912 3212 
Q 1280 3571 1920 3571 
Q 2560 3571 2928 3212 
Q 3296 2854 3296 2234 
L 3296 1293 
Q 3296 672 2928 310 
Q 2560 -51 1920 -51 
z
M 1920 461 
Q 2298 461 2509 672 
Q 2720 883 2720 1293 
L 2720 2227 
Q 2720 2637 2509 2848 
Q 2298 3059 1920 3059 
Q 1549 3059 1334 2848 
Q 1120 2637 1120 2227 
L 1120 1293 
Q 1120 883 1334 672 
Q 1549 461 1920 461 
z
" transform="scale(0.015625)"/>
       <path id="JetBrainsMono-Regular-6e" d="M 589 0 
L 589 3520 
L 1165 3520 
L 1165 2848 
L 1171 2848 
Q 1216 3200 1459 3392 
Q 1702 3584 2106 3584 
Q 2637 3584 2950 3257 
Q 3264 2931 3264 2368 
L 3264 0 
L 2688 0 
L 2688 2304 
Q 2688 2682 2486 2883 
Q 2285 3085 1939 3085 
Q 1581 3085 1373 2867 
Q 1165 2650 1165 2240 
L 1165 0 
L 589 0 
z
" transform="scale(0.015625)"/>
      </defs>
      <use xlink:href="#JetBrainsMono-Regular-51"/>
      <use xlink:href="#JetBrainsMono-Regular-75" x="59.999985"/>
      <use xlink:href="#JetBrainsMono-Regular-65" x="119.999969"/>
      <use xlink:href="#JetBrainsMono-Regular-73" x="179.999954"/>
      <use xlink:href="#JetBrainsMono-Regular-74" x="239.999939"/>
      <use xlink:href="#JetBrainsMono-Regular-69" x="299.999924"/>
      <use xlink:href="#JetBrainsMono-Regular-6f" x="359.999908"/>
      <use xlink:href="#JetBrainsMono-Regular-6e" x="419.999893"/>
      <use xlink:href="#JetBrainsMono-Regular-73" x="479.999878"/>
     </g>
    </g>
   </g>
   <g id="patch_43">
    <path d="M 45.770313 173.52 
L 45.770313 7.2 
" style="fill: none; stroke: #bbb5ac; stroke-width: 0.8; stroke-linejoin: miter; stroke-linecap: square"/>
   </g>
   <g id="patch_44">
    <path d="M 380.570312 173.52 
L 380.570312 7.2 
" style="fill: none; stroke: #bbb5ac; stroke-width: 0.8; stroke-linejoin: miter; stroke-linecap: square"/>
   </g>
   <g id="patch_45">
    <path d="M 45.770313 173.52 
L 380.570312 173.52 
" style="fill: none; stroke: #bbb5ac; stroke-width: 0.8; stroke-linejoin: miter; stroke-linecap: square"/>
   </g>
   <g id="patch_46">
    <path d="M 45.770313 7.2 
L 380.570312 7.2 
" style="fill: none; stroke: #bbb5ac; stroke-width: 0.8; stroke-linejoin: miter; stroke-linecap: square"/>
   </g>
  </g>
 </g>
 <defs>
  <clipPath id="p5cbd73c2d3">
   <rect x="45.770313" y="7.2" width="334.8" height="166.32"/>
  </clipPath>
 </defs>
</svg>
