<?xml version="1.0" encoding="utf-8" standalone="no"?>
<!DOCTYPE svg PUBLIC "-//W3C//DTD SVG 1.1//EN"
  "http://www.w3.org/Graphics/SVG/1.1/DTD/svg11.dtd">
<svg xmlns:xlink="http://www.w3.org/1999/xlink" width="393.770312pt" height="196.82pt" viewBox="0 0 393.770312 196.82" xmlns="http://www.w3.org/2000/svg" version="1.1">
 <metadata>
  <rdf:RDF xmlns:dc="http://purl.org/dc/elements/1.1/" xmlns:cc="http://creativecommons.org/ns#" xmlns:rdf="http://www.w3.org/1999/02/22-rdf-syntax-ns#">
   <cc:Work>
    <dc:type rdf:resource="http://purl.org/dc/dcmitype/StillImage"/>
    <dc:date>2022-07-07T16:10:09.228116</dc:date>
    <dc:format>image/svg+xml</dc:format>
    <dc:creator>
     <cc:Agent>
      <dc:title>Matplotlib v3.5.2, https://matplotlib.org/</dc:title>
     </cc:Agent>
    </dc:creator>
   </cc:Work>
  </rdf:RDF>
 </metadata>
 <defs>
  <style type="text/css">*{stroke-linejoin: round; stroke-linecap: butt}</style>
 </defs>
 <g id="figure_1">
  <g id="patch_1">
   <path d="M 0 196.82 
L 393.770312 196.82 
L 393.770312 0 
L 0 0 
z
" style="fill: #131516"/>
  </g>
  <g id="axes_1">
   <g id="patch_2">
    <path d="M 51.770313 173.52 
L 386.570312 173.52 
L 386.570312 7.2 
L 51.770313 7.2 
L 51.770313 173.52 
z
" style="fill: none"/>
   </g>
   <g id="patch_3">
    <path d="M 66.988494 173.52 
L 74.597585 173.52 
L 74.597585 104.697931 
L 66.988494 104.697931 
z
" clip-path="url(#p6408e552d4)" style="fill: #d2cec8"/>
   </g>
   <g id="patch_4">
    <path d="M 74.597585 173.52 
L 82.206676 173.52 
L 82.206676 55.53931 
L 74.597585 55.53931 
z
" clip-path="url(#p6408e552d4)" style="fill: #d2cec8"/>
   </g>
   <g id="patch_5">
    <path d="M 82.206676 173.52 
L 89.815767 173.52 
L 89.815767 27.136552 
L 82.206676 27.136552 
z
" clip-path="url(#p6408e552d4)" style="fill: #d2cec8"/>
   </g>
   <g id="patch_6">
    <path d="M 89.815767 173.52 
L 97.424858 173.52 
L 97.424858 24.951724 
L 89.815767 24.951724 
z
" clip-path="url(#p6408e552d4)" style="fill: #d2cec8"/>
   </g>
   <g id="patch_7">
    <path d="M 97.424858 173.52 
L 105.033949 173.52 
L 105.033949 15.12 
L 97.424858 15.12 
z
" clip-path="url(#p6408e552d4)" style="fill: #d2cec8"/>
   </g>
   <g id="patch_8">
    <path d="M 105.033949 173.52 
L 112.64304 173.52 
L 112.64304 57.724138 
L 105.033949 57.724138 
z
" clip-path="url(#p6408e552d4)" style="fill: #d2cec8"/>
   </g>
   <g id="patch_9">
    <path d="M 112.64304 173.52 
L 120.252131 173.52 
L 120.252131 83.942069 
L 112.64304 83.942069 
z
" clip-path="url(#p6408e552d4)" style="fill: #d2cec8"/>
   </g>
   <g id="patch_10">
    <path d="M 120.252131 173.52 
L 127.861222 173.52 
L 127.861222 99.235862 
L 120.252131 99.235862 
z
" clip-path="url(#p6408e552d4)" style="fill: #d2cec8"/>
   </g>
   <g id="patch_11">
    <path d="M 127.861222 173.52 
L 135.470312 173.52 
L 135.470312 121.084138 
L 127.861222 121.084138 
z
" clip-path="url(#p6408e552d4)" style="fill: #d2cec8"/>
   </g>
   <g id="patch_12">
    <path d="M 135.470313 173.52 
L 143.079403 173.52 
L 143.079403 144.024828 
L 135.470313 144.024828 
z
" clip-path="url(#p6408e552d4)" style="fill: #d2cec8"/>
   </g>
   <g id="patch_13">
    <path d="M 143.079403 173.52 
L 150.688494 173.52 
L 150.688494 150.57931 
L 143.079403 150.57931 
z
" clip-path="url(#p6408e552d4)" style="fill: #d2cec8"/>
   </g>
   <g id="patch_14">
    <path d="M 150.688494 173.52 
L 158.297585 173.52 
L 158.297585 153.856552 
L 150.688494 153.856552 
z
" clip-path="url(#p6408e552d4)" style="fill: #d2cec8"/>
   </g>
   <g id="patch_15">
    <path d="M 158.297585 173.52 
L 165.906676 173.52 
L 165.906676 163.688276 
L 158.297585 163.688276 
z
" clip-path="url(#p6408e552d4)" style="fill: #d2cec8"/>
   </g>
   <g id="patch_16">
    <path d="M 165.906676 173.52 
L 173.515767 173.52 
L 173.515767 154.948966 
L 165.906676 154.948966 
z
" clip-path="url(#p6408e552d4)" style="fill: #d2cec8"/>
   </g>
   <g id="patch_17">
    <path d="M 173.515767 173.52 
L 181.124858 173.52 
L 181.124858 170.242759 
L 173.515767 170.242759 
z
" clip-path="url(#p6408e552d4)" style="fill: #d2cec8"/>
   </g>
   <g id="patch_18">
    <path d="M 181.124858 173.52 
L 188.733949 173.52 
L 188.733949 170.242759 
L 181.124858 170.242759 
z
" clip-path="url(#p6408e552d4)" style="fill: #d2cec8"/>
   </g>
   <g id="patch_19">
    <path d="M 188.733949 173.52 
L 196.34304 173.52 
L 196.34304 171.335172 
L 188.733949 171.335172 
z
" clip-path="url(#p6408e552d4)" style="fill: #d2cec8"/>
   </g>
   <g id="patch_20">
    <path d="M 196.34304 173.52 
L 203.952131 173.52 
L 203.952131 171.335172 
L 196.34304 171.335172 
z
" clip-path="url(#p6408e552d4)" style="fill: #d2cec8"/>
   </g>
   <g id="patch_21">
    <path d="M 203.952131 173.52 
L 211.561222 173.52 
L 211.561222 172.427586 
L 203.952131 172.427586 
z
" clip-path="url(#p6408e552d4)" style="fill: #d2cec8"/>
   </g>
   <g id="patch_22">
    <path d="M 211.561222 173.52 
L 219.170312 173.52 
L 219.170312 172.427586 
L 211.561222 172.427586 
z
" clip-path="url(#p6408e552d4)" style="fill: #d2cec8"/>
   </g>
   <g id="patch_23">
    <path d="M 219.170312 173.52 
L 226.779403 173.52 
L 226.779403 173.52 
L 219.170312 173.52 
z
" clip-path="url(#p6408e552d4)" style="fill: #d2cec8"/>
   </g>
   <g id="patch_24">
    <path d="M 226.779403 173.52 
L 234.388494 173.52 
L 234.388494 173.52 
L 226.779403 173.52 
z
" clip-path="url(#p6408e552d4)" style="fill: #d2cec8"/>
   </g>
   <g id="patch_25">
    <path d="M 234.388494 173.52 
L 241.997585 173.52 
L 241.997585 173.52 
L 234.388494 173.52 
z
" clip-path="url(#p6408e552d4)" style="fill: #d2cec8"/>
   </g>
   <g id="patch_26">
    <path d="M 241.997585 173.52 
L 249.606676 173.52 
L 249.606676 172.427586 
L 241.997585 172.427586 
z
" clip-path="url(#p6408e552d4)" style="fill: #d2cec8"/>
   </g>
   <g id="patch_27">
    <path d="M 249.606676 173.52 
L 257.215767 173.52 
L 257.215767 172.427586 
L 249.606676 172.427586 
z
" clip-path="url(#p6408e552d4)" style="fill: #d2cec8"/>
   </g>
   <g id="patch_28">
    <path d="M 257.215767 173.52 
L 264.824858 173.52 
L 264.824858 173.52 
L 257.215767 173.52 
z
" clip-path="url(#p6408e552d4)" style="fill: #d2cec8"/>
   </g>
   <g id="patch_29">
    <path d="M 264.824858 173.52 
L 272.433949 173.52 
L 272.433949 172.427586 
L 264.824858 172.427586 
z
" clip-path="url(#p6408e552d4)" style="fill: #d2cec8"/>
   </g>
   <g id="patch_30">
    <path d="M 272.433949 173.52 
L 280.04304 173.52 
L 280.04304 173.52 
L 272.433949 173.52 
z
" clip-path="url(#p6408e552d4)" style="fill: #d2cec8"/>
   </g>
   <g id="patch_31">
    <path d="M 280.04304 173.52 
L 287.652131 173.52 
L 287.652131 173.52 
L 280.04304 173.52 
z
" clip-path="url(#p6408e552d4)" style="fill: #d2cec8"/>
   </g>
   <g id="patch_32">
    <path d="M 287.652131 173.52 
L 295.261222 173.52 
L 295.261222 172.427586 
L 287.652131 172.427586 
z
" clip-path="url(#p6408e552d4)" style="fill: #d2cec8"/>
   </g>
   <g id="patch_33">
    <path d="M 295.261222 173.52 
L 302.870312 173.52 
L 302.870312 173.52 
L 295.261222 173.52 
z
" clip-path="url(#p6408e552d4)" style="fill: #d2cec8"/>
   </g>
   <g id="patch_34">
    <path d="M 302.870312 173.52 
L 310.479403 173.52 
L 310.479403 173.52 
L 302.870312 173.52 
z
" clip-path="url(#p6408e552d4)" style="fill: #d2cec8"/>
   </g>
   <g id="patch_35">
    <path d="M 310.479403 173.52 
L 318.088494 173.52 
L 318.088494 173.52 
L 310.479403 173.52 
z
" clip-path="url(#p6408e552d4)" style="fill: #d2cec8"/>
   </g>
   <g id="patch_36">
    <path d="M 318.088494 173.52 
L 325.697585 173.52 
L 325.697585 173.52 
L 318.088494 173.52 
z
" clip-path="url(#p6408e552d4)" style="fill: #d2cec8"/>
   </g>
   <g id="patch_37">
    <path d="M 325.697585 173.52 
L 333.306676 173.52 
L 333.306676 172.427586 
L 325.697585 172.427586 
z
" clip-path="url(#p6408e552d4)" style="fill: #d2cec8"/>
   </g>
   <g id="patch_38">
    <path d="M 333.306676 173.52 
L 340.915767 173.52 
L 340.915767 173.52 
L 333.306676 173.52 
z
" clip-path="url(#p6408e552d4)" style="fill: #d2cec8"/>
   </g>
   <g id="patch_39">
    <path d="M 340.915767 173.52 
L 348.524858 173.52 
L 348.524858 173.52 
L 340.915767 173.52 
z
" clip-path="url(#p6408e552d4)" style="fill: #d2cec8"/>
   </g>
   <g id="patch_40">
    <path d="M 348.524858 173.52 
L 356.133949 173.52 
L 356.133949 173.52 
L 348.524858 173.52 
z
" clip-path="url(#p6408e552d4)" style="fill: #d2cec8"/>
   </g>
   <g id="patch_41">
    <path d="M 356.133949 173.52 
L 363.74304 173.52 
L 363.74304 173.52 
L 356.133949 173.52 
z
" clip-path="url(#p6408e552d4)" style="fill: #d2cec8"/>
   </g>
   <g id="patch_42">
    <path d="M 363.74304 173.52 
L 371.352131 173.52 
L 371.352131 172.427586 
L 363.74304 172.427586 
z
" clip-path="url(#p6408e552d4)" style="fill: #d2cec8"/>
   </g>
   <g id="matplotlib.axis_1">
    <g id="xtick_1">
     <g id="line2d_1">
      <path d="M 67.126008 173.52 
L 67.126008 7.2 
" clip-path="url(#p6408e552d4)" style="fill: none; stroke-dasharray: 2.96,1.28; stroke-dashoffset: 0; stroke: #bbb5ac; stroke-opacity: 0.5; stroke-width: 0.8"/>
     </g>
     <g id="line2d_2">
      <defs>
       <path id="m2532bf6243" d="M 0 0 
L 0 3.5 
" style="stroke: #bbb5ac; stroke-width: 0.8"/>
      </defs>
      <g>
       <use xlink:href="#m2532bf6243" x="67.126008" y="173.52" style="fill: #bbb5ac; stroke: #bbb5ac; stroke-width: 0.8"/>
      </g>
     </g>
     <g id="text_1">
      <!-- 0 -->
      <g style="fill: #d2cec8" transform="translate(64.126008 187.82)scale(0.1 -0.1)">
       <defs>
        <path id="JetBrainsMono-Regular-30" d="M 1920 -64 
Q 1274 -64 893 310 
Q 512 685 512 1312 
L 512 3360 
Q 512 3987 893 4361 
Q 1274 4736 1920 4736 
Q 2566 4736 2947 4361 
Q 3328 3987 3328 3360 
L 3328 1312 
Q 3328 896 3155 585 
Q 2982 275 2665 105 
Q 2349 -64 1920 -64 
z
M 1920 429 
Q 2304 429 2537 675 
Q 2771 922 2771 1312 
L 2771 3360 
Q 2771 3750 2537 3996 
Q 2304 4243 1920 4243 
Q 1536 4243 1302 3996 
Q 1069 3750 1069 3360 
L 1069 1312 
Q 1069 922 1302 675 
Q 1536 429 1920 429 
z
M 1920 1958 
Q 1747 1958 1641 2067 
Q 1536 2176 1536 2355 
Q 1536 2528 1641 2633 
Q 1747 2739 1920 2739 
Q 2093 2739 2198 2633 
Q 2304 2528 2304 2355 
Q 2304 2176 2198 2067 
Q 2093 1958 1920 1958 
z
" transform="scale(0.015625)"/>
       </defs>
       <use xlink:href="#JetBrainsMono-Regular-30"/>
      </g>
     </g>
    </g>
    <g id="xtick_2">
     <g id="line2d_3">
      <path d="M 140.466643 173.52 
L 140.466643 7.2 
" clip-path="url(#p6408e552d4)" style="fill: none; stroke-dasharray: 2.96,1.28; stroke-dashoffset: 0; stroke: #bbb5ac; stroke-opacity: 0.5; stroke-width: 0.8"/>
     </g>
     <g id="line2d_4">
      <g>
       <use xlink:href="#m2532bf6243" x="140.466643" y="173.52" style="fill: #bbb5ac; stroke: #bbb5ac; stroke-width: 0.8"/>
      </g>
     </g>
     <g id="text_2">
      <!-- 20 -->
      <g style="fill: #d2cec8" transform="translate(134.466643 187.82)scale(0.1 -0.1)">
       <defs>
        <path id="JetBrainsMono-Regular-32" d="M 589 0 
L 589 570 
L 2080 2195 
Q 2413 2554 2563 2835 
Q 2714 3117 2714 3386 
Q 2714 3770 2490 3997 
Q 2266 4224 1882 4224 
Q 1491 4224 1264 3990 
Q 1037 3757 1037 3360 
L 461 3360 
Q 480 3994 864 4365 
Q 1248 4736 1882 4736 
Q 2528 4736 2909 4371 
Q 3290 4006 3290 3379 
Q 3290 3046 3094 2681 
Q 2899 2317 2464 1843 
L 1248 525 
L 3366 525 
L 3366 0 
L 589 0 
z
" transform="scale(0.015625)"/>
       </defs>
       <use xlink:href="#JetBrainsMono-Regular-32"/>
       <use xlink:href="#JetBrainsMono-Regular-30" x="59.999985"/>
      </g>
     </g>
    </g>
    <g id="xtick_3">
     <g id="line2d_5">
      <path d="M 213.807279 173.52 
L 213.807279 7.2 
" clip-path="url(#p6408e552d4)" style="fill: none; stroke-dasharray: 2.96,1.28; stroke-dashoffset: 0; stroke: #bbb5ac; stroke-opacity: 0.5; stroke-width: 0.8"/>
     </g>
     <g id="line2d_6">
      <g>
       <use xlink:href="#m2532bf6243" x="213.807279" y="173.52" style="fill: #bbb5ac; stroke: #bbb5ac; stroke-width: 0.8"/>
      </g>
     </g>
     <g id="text_3">
      <!-- 40 -->
      <g style="fill: #d2cec8" transform="translate(207.807279 187.82)scale(0.1 -0.1)">
       <defs>
        <path id="JetBrainsMono-Regular-34" d="M 2560 0 
L 2560 1024 
L 448 1024 
L 448 1926 
L 2150 4672 
L 2784 4672 
L 1024 1811 
L 1024 1549 
L 2560 1549 
L 2560 2688 
L 3136 2688 
L 3136 0 
L 2560 0 
z
" transform="scale(0.015625)"/>
       </defs>
       <use xlink:href="#JetBrainsMono-Regular-34"/>
       <use xlink:href="#JetBrainsMono-Regular-30" x="59.999985"/>
      </g>
     </g>
    </g>
    <g id="xtick_4">
     <g id="line2d_7">
      <path d="M 287.147914 173.52 
L 287.147914 7.2 
" clip-path="url(#p6408e552d4)" style="fill: none; stroke-dasharray: 2.96,1.28; stroke-dashoffset: 0; stroke: #bbb5ac; stroke-opacity: 0.5; stroke-width: 0.8"/>
     </g>
     <g id="line2d_8">
      <g>
       <use xlink:href="#m2532bf6243" x="287.147914" y="173.52" style="fill: #bbb5ac; stroke: #bbb5ac; stroke-width: 0.8"/>
      </g>
     </g>
     <g id="text_4">
      <!-- 60 -->
      <g style="fill: #d2cec8" transform="translate(281.147914 187.82)scale(0.1 -0.1)">
       <defs>
        <path id="JetBrainsMono-Regular-36" d="M 1926 -64 
Q 1472 -64 1129 125 
Q 787 314 598 650 
Q 410 986 410 1427 
Q 410 1734 522 2057 
Q 634 2381 832 2733 
L 1933 4672 
L 2560 4672 
L 1293 2515 
L 1318 2496 
Q 1434 2669 1651 2771 
Q 1869 2874 2144 2874 
Q 2528 2874 2819 2694 
Q 3110 2515 3270 2198 
Q 3430 1882 3430 1453 
Q 3430 998 3241 656 
Q 3053 314 2717 125 
Q 2381 -64 1926 -64 
z
M 1920 448 
Q 2336 448 2595 720 
Q 2854 992 2854 1440 
Q 2854 1888 2595 2160 
Q 2336 2432 1920 2432 
Q 1504 2432 1245 2160 
Q 986 1888 986 1440 
Q 986 992 1245 720 
Q 1504 448 1920 448 
z
" transform="scale(0.015625)"/>
       </defs>
       <use xlink:href="#JetBrainsMono-Regular-36"/>
       <use xlink:href="#JetBrainsMono-Regular-30" x="59.999985"/>
      </g>
     </g>
    </g>
    <g id="xtick_5">
     <g id="line2d_9">
      <path d="M 360.488549 173.52 
L 360.488549 7.2 
" clip-path="url(#p6408e552d4)" style="fill: none; stroke-dasharray: 2.96,1.28; stroke-dashoffset: 0; stroke: #bbb5ac; stroke-opacity: 0.5; stroke-width: 0.8"/>
     </g>
     <g id="line2d_10">
      <g>
       <use xlink:href="#m2532bf6243" x="360.488549" y="173.52" style="fill: #bbb5ac; stroke: #bbb5ac; stroke-width: 0.8"/>
      </g>
     </g>
     <g id="text_5">
      <!-- 80 -->
      <g style="fill: #d2cec8" transform="translate(354.488549 187.82)scale(0.1 -0.1)">
       <defs>
        <path id="JetBrainsMono-Regular-38" d="M 1920 -64 
Q 1472 -64 1133 93 
Q 794 250 608 528 
Q 422 806 422 1171 
Q 422 1568 675 1910 
Q 928 2253 1350 2445 
Q 934 2650 729 2934 
Q 525 3219 525 3546 
Q 525 3898 707 4166 
Q 890 4435 1203 4588 
Q 1517 4742 1920 4742 
Q 2323 4742 2640 4588 
Q 2957 4435 3136 4166 
Q 3315 3898 3315 3546 
Q 3315 3226 3110 2941 
Q 2906 2656 2490 2445 
Q 2912 2253 3165 1910 
Q 3418 1568 3418 1171 
Q 3418 806 3232 528 
Q 3046 250 2710 93 
Q 2374 -64 1920 -64 
z
M 1734 2733 
L 1920 2662 
L 2080 2726 
Q 2381 2842 2566 3056 
Q 2752 3270 2752 3526 
Q 2752 3840 2521 4035 
Q 2291 4230 1920 4230 
Q 1549 4230 1318 4032 
Q 1088 3834 1088 3526 
Q 1088 3264 1267 3053 
Q 1446 2842 1734 2733 
z
M 1920 448 
Q 2342 448 2598 669 
Q 2854 890 2854 1248 
Q 2854 1530 2681 1757 
Q 2509 1984 2195 2106 
L 1920 2214 
L 1626 2099 
Q 1318 1978 1152 1750 
Q 986 1523 986 1248 
Q 986 890 1242 669 
Q 1498 448 1920 448 
z
" transform="scale(0.015625)"/>
       </defs>
       <use xlink:href="#JetBrainsMono-Regular-38"/>
       <use xlink:href="#JetBrainsMono-Regular-30" x="59.999985"/>
      </g>
     </g>
    </g>
   </g>
   <g id="matplotlib.axis_2">
    <g id="ytick_1">
     <g id="line2d_11">
      <path d="M 51.770313 173.52 
L 386.570312 173.52 
" clip-path="url(#p6408e552d4)" style="fill: none; stroke-dasharray: 2.96,1.28; stroke-dashoffset: 0; stroke: #bbb5ac; stroke-opacity: 0.5; stroke-width: 0.8"/>
     </g>
     <g id="line2d_12">
      <defs>
       <path id="mce7ebd1a45" d="M 0 0 
L -3.5 0 
" style="stroke: #bbb5ac; stroke-width: 0.8"/>
      </defs>
      <g>
       <use xlink:href="#mce7ebd1a45" x="51.770313" y="173.52" style="fill: #bbb5ac; stroke: #bbb5ac; stroke-width: 0.8"/>
      </g>
     </g>
     <g id="text_6">
      <!-- 0 -->
      <g style="fill: #d2cec8" transform="translate(38.770313 177.17)scale(0.1 -0.1)">
       <use xlink:href="#JetBrainsMono-Regular-30"/>
      </g>
     </g>
    </g>
    <g id="ytick_2">
     <g id="line2d_13">
      <path d="M 51.770313 151.671724 
L 386.570312 151.671724 
" clip-path="url(#p6408e552d4)" style="fill: none; stroke-dasharray: 2.96,1.28; stroke-dashoffset: 0; stroke: #bbb5ac; stroke-opacity: 0.5; stroke-width: 0.8"/>
     </g>
     <g id="line2d_14">
      <g>
       <use xlink:href="#mce7ebd1a45" x="51.770313" y="151.671724" style="fill: #bbb5ac; stroke: #bbb5ac; stroke-width: 0.8"/>
      </g>
     </g>
     <g id="text_7">
      <!-- 20 -->
      <g style="fill: #d2cec8" transform="translate(32.770313 155.321724)scale(0.1 -0.1)">
       <use xlink:href="#JetBrainsMono-Regular-32"/>
       <use xlink:href="#JetBrainsMono-Regular-30" x="59.999985"/>
      </g>
     </g>
    </g>
    <g id="ytick_3">
     <g id="line2d_15">
      <path d="M 51.770313 129.823448 
L 386.570312 129.823448 
" clip-path="url(#p6408e552d4)" style="fill: none; stroke-dasharray: 2.96,1.28; stroke-dashoffset: 0; stroke: #bbb5ac; stroke-opacity: 0.5; stroke-width: 0.8"/>
     </g>
     <g id="line2d_16">
      <g>
       <use xlink:href="#mce7ebd1a45" x="51.770313" y="129.823448" style="fill: #bbb5ac; stroke: #bbb5ac; stroke-width: 0.8"/>
      </g>
     </g>
     <g id="text_8">
      <!-- 40 -->
      <g style="fill: #d2cec8" transform="translate(32.770313 133.473448)scale(0.1 -0.1)">
       <use xlink:href="#JetBrainsMono-Regular-34"/>
       <use xlink:href="#JetBrainsMono-Regular-30" x="59.999985"/>
      </g>
     </g>
    </g>
    <g id="ytick_4">
     <g id="line2d_17">
      <path d="M 51.770313 107.975172 
L 386.570312 107.975172 
" clip-path="url(#p6408e552d4)" style="fill: none; stroke-dasharray: 2.96,1.28; stroke-dashoffset: 0; stroke: #bbb5ac; stroke-opacity: 0.5; stroke-width: 0.8"/>
     </g>
     <g id="line2d_18">
      <g>
       <use xlink:href="#mce7ebd1a45" x="51.770313" y="107.975172" style="fill: #bbb5ac; stroke: #bbb5ac; stroke-width: 0.8"/>
      </g>
     </g>
     <g id="text_9">
      <!-- 60 -->
      <g style="fill: #d2cec8" transform="translate(32.770313 111.625172)scale(0.1 -0.1)">
       <use xlink:href="#JetBrainsMono-Regular-36"/>
       <use xlink:href="#JetBrainsMono-Regular-30" x="59.999985"/>
      </g>
     </g>
    </g>
    <g id="ytick_5">
     <g id="line2d_19">
      <path d="M 51.770313 86.126897 
L 386.570312 86.126897 
" clip-path="url(#p6408e552d4)" style="fill: none; stroke-dasharray: 2.96,1.28; stroke-dashoffset: 0; stroke: #bbb5ac; stroke-opacity: 0.5; stroke-width: 0.8"/>
     </g>
     <g id="line2d_20">
      <g>
       <use xlink:href="#mce7ebd1a45" x="51.770313" y="86.126897" style="fill: #bbb5ac; stroke: #bbb5ac; stroke-width: 0.8"/>
      </g>
     </g>
     <g id="text_10">
      <!-- 80 -->
      <g style="fill: #d2cec8" transform="translate(32.770313 89.776897)scale(0.1 -0.1)">
       <use xlink:href="#JetBrainsMono-Regular-38"/>
       <use xlink:href="#JetBrainsMono-Regular-30" x="59.999985"/>
      </g>
     </g>
    </g>
    <g id="ytick_6">
     <g id="line2d_21">
      <path d="M 51.770313 64.278621 
L 386.570312 64.278621 
" clip-path="url(#p6408e552d4)" style="fill: none; stroke-dasharray: 2.96,1.28; stroke-dashoffset: 0; stroke: #bbb5ac; stroke-opacity: 0.5; stroke-width: 0.8"/>
     </g>
     <g id="line2d_22">
      <g>
       <use xlink:href="#mce7ebd1a45" x="51.770313" y="64.278621" style="fill: #bbb5ac; stroke: #bbb5ac; stroke-width: 0.8"/>
      </g>
     </g>
     <g id="text_11">
      <!-- 100 -->
      <g style="fill: #d2cec8" transform="translate(26.770313 67.928621)scale(0.1 -0.1)">
       <defs>
        <path id="JetBrainsMono-Regular-31" d="M 576 0 
L 576 525 
L 1843 525 
L 1843 4192 
L 576 3245 
L 576 3885 
L 1632 4672 
L 2419 4672 
L 2419 525 
L 3456 525 
L 3456 0 
L 576 0 
z
" transform="scale(0.015625)"/>
       </defs>
       <use xlink:href="#JetBrainsMono-Regular-31"/>
       <use xlink:href="#JetBrainsMono-Regular-30" x="59.999985"/>
       <use xlink:href="#JetBrainsMono-Regular-30" x="119.999969"/>
      </g>
     </g>
    </g>
    <g id="ytick_7">
     <g id="line2d_23">
      <path d="M 51.770313 42.430345 
L 386.570312 42.430345 
" clip-path="url(#p6408e552d4)" style="fill: none; stroke-dasharray: 2.96,1.28; stroke-dashoffset: 0; stroke: #bbb5ac; stroke-opacity: 0.5; stroke-width: 0.8"/>
     </g>
     <g id="line2d_24">
      <g>
       <use xlink:href="#mce7ebd1a45" x="51.770313" y="42.430345" style="fill: #bbb5ac; stroke: #bbb5ac; stroke-width: 0.8"/>
      </g>
     </g>
     <g id="text_12">
      <!-- 120 -->
      <g style="fill: #d2cec8" transform="translate(26.770313 46.080345)scale(0.1 -0.1)">
       <use xlink:href="#JetBrainsMono-Regular-31"/>
       <use xlink:href="#JetBrainsMono-Regular-32" x="59.999985"/>
       <use xlink:href="#JetBrainsMono-Regular-30" x="119.999969"/>
      </g>
     </g>
    </g>
    <g id="ytick_8">
     <g id="line2d_25">
      <path d="M 51.770313 20.582069 
L 386.570312 20.582069 
" clip-path="url(#p6408e552d4)" style="fill: none; stroke-dasharray: 2.96,1.28; stroke-dashoffset: 0; stroke: #bbb5ac; stroke-opacity: 0.5; stroke-width: 0.8"/>
     </g>
     <g id="line2d_26">
      <g>
       <use xlink:href="#mce7ebd1a45" x="51.770313" y="20.582069" style="fill: #bbb5ac; stroke: #bbb5ac; stroke-width: 0.8"/>
      </g>
     </g>
     <g id="text_13">
      <!-- 140 -->
      <g style="fill: #d2cec8" transform="translate(26.770313 24.232069)scale(0.1 -0.1)">
       <use xlink:href="#JetBrainsMono-Regular-31"/>
       <use xlink:href="#JetBrainsMono-Regular-34" x="59.999985"/>
       <use xlink:href="#JetBrainsMono-Regular-30" x="119.999969"/>
      </g>
     </g>
    </g>
    <g id="text_14">
     <!-- Questions -->
     <g style="fill: #d2cec8" transform="translate(14.970313 117.36)rotate(-90)scale(0.1 -0.1)">
      <defs>
       <path id="JetBrainsMono-Regular-51" d="M 2701 -1152 
L 2042 -58 
Q 2016 -58 1984 -61 
Q 1952 -64 1920 -64 
Q 1274 -64 893 310 
Q 512 685 512 1312 
L 512 3360 
Q 512 3987 893 4361 
Q 1274 4736 1920 4736 
Q 2566 4736 2947 4361 
Q 3328 3987 3328 3360 
L 3328 1312 
Q 3328 883 3142 563 
Q 2957 243 2618 83 
L 3366 -1152 
L 2701 -1152 
z
M 1920 448 
Q 2298 448 2525 685 
Q 2752 922 2752 1312 
L 2752 3360 
Q 2752 3757 2525 3990 
Q 2298 4224 1920 4224 
Q 1542 4224 1315 3990 
Q 1088 3757 1088 3360 
L 1088 1312 
Q 1088 922 1315 685 
Q 1542 448 1920 448 
z
" transform="scale(0.015625)"/>
       <path id="JetBrainsMono-Regular-75" d="M 1914 -64 
Q 1306 -64 941 297 
Q 576 659 576 1280 
L 576 3520 
L 1152 3520 
L 1152 1280 
Q 1152 883 1357 662 
Q 1562 442 1914 442 
Q 2272 442 2480 662 
Q 2688 883 2688 1280 
L 2688 3520 
L 3264 3520 
L 3264 1280 
Q 3264 659 2893 297 
Q 2522 -64 1914 -64 
z
" transform="scale(0.015625)"/>
       <path id="JetBrainsMono-Regular-65" d="M 1920 -64 
Q 1504 -64 1193 102 
Q 883 269 713 573 
Q 544 877 544 1280 
L 544 2240 
Q 544 2650 713 2950 
Q 883 3251 1193 3417 
Q 1504 3584 1920 3584 
Q 2336 3584 2646 3417 
Q 2957 3251 3126 2950 
Q 3296 2650 3296 2240 
L 3296 1619 
L 1107 1619 
L 1107 1280 
Q 1107 864 1318 643 
Q 1530 422 1920 422 
Q 2253 422 2457 540 
Q 2662 659 2707 896 
L 3283 896 
Q 3226 454 2851 195 
Q 2477 -64 1920 -64 
z
M 1107 2054 
L 2733 2054 
L 2733 2240 
Q 2733 2656 2525 2880 
Q 2317 3104 1920 3104 
Q 1530 3104 1318 2880 
Q 1107 2656 1107 2240 
L 1107 2054 
z
" transform="scale(0.015625)"/>
       <path id="JetBrainsMono-Regular-73" d="M 1811 -51 
Q 1267 -51 921 198 
Q 576 448 576 883 
L 1165 883 
Q 1165 685 1353 573 
Q 1542 461 1824 461 
L 2093 461 
Q 2432 461 2598 598 
Q 2765 736 2765 966 
Q 2765 1190 2608 1321 
Q 2451 1453 2157 1498 
L 1683 1574 
Q 1158 1664 908 1907 
Q 659 2150 659 2579 
Q 659 3059 969 3315 
Q 1280 3571 1862 3571 
L 2106 3571 
Q 2643 3571 2966 3331 
Q 3290 3091 3290 2694 
L 2701 2694 
Q 2701 2861 2537 2960 
Q 2374 3059 2093 3059 
L 1850 3059 
Q 1549 3059 1385 2934 
Q 1222 2810 1222 2579 
Q 1222 2195 1766 2106 
L 2240 2029 
Q 2810 1939 3069 1696 
Q 3328 1453 3328 992 
Q 3328 506 3017 227 
Q 2707 -51 2080 -51 
L 1811 -51 
z
" transform="scale(0.015625)"/>
       <path id="JetBrainsMono-Regular-74" d="M 2304 0 
Q 1869 0 1606 253 
Q 1344 506 1344 928 
L 1344 2995 
L 352 2995 
L 352 3520 
L 1344 3520 
L 1344 4512 
L 1920 4512 
L 1920 3520 
L 3328 3520 
L 3328 2995 
L 1920 2995 
L 1920 928 
Q 1920 749 2025 637 
Q 2131 525 2304 525 
L 3264 525 
L 3264 0 
L 2304 0 
z
" transform="scale(0.015625)"/>
       <path id="JetBrainsMono-Regular-69" d="M 544 0 
L 544 525 
L 1792 525 
L 1792 2995 
L 672 2995 
L 672 3520 
L 2368 3520 
L 2368 525 
L 3552 525 
L 3552 0 
L 544 0 
z
M 2016 4154 
Q 1805 4154 1683 4262 
Q 1562 4371 1562 4557 
Q 1562 4749 1683 4861 
Q 1805 4973 2016 4973 
Q 2227 4973 2348 4861 
Q 2470 4749 2470 4557 
Q 2470 4371 2348 4262 
Q 2227 4154 2016 4154 
z
" transform="scale(0.015625)"/>
       <path id="JetBrainsMono-Regular-6f" d="M 1920 -51 
Q 1280 -51 912 310 
Q 544 672 544 1293 
L 544 2227 
Q 544 2854 912 3212 
Q 1280 3571 1920 3571 
Q 2560 3571 2928 3212 
Q 3296 2854 3296 2234 
L 3296 1293 
Q 3296 672 2928 310 
Q 2560 -51 1920 -51 
z
M 1920 461 
Q 2298 461 2509 672 
Q 2720 883 2720 1293 
L 2720 2227 
Q 2720 2637 2509 2848 
Q 2298 3059 1920 3059 
Q 1549 3059 1334 2848 
Q 1120 2637 1120 2227 
L 1120 1293 
Q 1120 883 1334 672 
Q 1549 461 1920 461 
z
" transform="scale(0.015625)"/>
       <path id="JetBrainsMono-Regular-6e" d="M 589 0 
L 589 3520 
L 1165 3520 
L 1165 2848 
L 1171 2848 
Q 1216 3200 1459 3392 
Q 1702 3584 2106 3584 
Q 2637 3584 2950 3257 
Q 3264 2931 3264 2368 
L 3264 0 
L 2688 0 
L 2688 2304 
Q 2688 2682 2486 2883 
Q 2285 3085 1939 3085 
Q 1581 3085 1373 2867 
Q 1165 2650 1165 2240 
L 1165 0 
L 589 0 
z
" transform="scale(0.015625)"/>
      </defs>
      <use xlink:href="#JetBrainsMono-Regular-51"/>
      <use xlink:href="#JetBrainsMono-Regular-75" x="59.999985"/>
      <use xlink:href="#JetBrainsMono-Regular-65" x="119.999969"/>
      <use xlink:href="#JetBrainsMono-Regular-73" x="179.999954"/>
      <use xlink:href="#JetBrainsMono-Regular-74" x="239.999939"/>
      <use xlink:href="#JetBrainsMono-Regular-69" x="299.999924"/>
      <use xlink:href="#JetBrainsMono-Regular-6f" x="359.999908"/>
      <use xlink:href="#JetBrainsMono-Regular-6e" x="419.999893"/>
      <use xlink:href="#JetBrainsMono-Regular-73" x="479.999878"/>
     </g>
    </g>
   </g>
   <g id="patch_43">
    <path d="M 51.770313 173.52 
L 51.770313 7.2 
" style="fill: none; stroke: #bbb5ac; stroke-width: 0.8; stroke-linejoin: miter; stroke-linecap: square"/>
   </g>
   <g id="patch_44">
    <path d="M 386.570312 173.52 
L 386.570312 7.2 
" style="fill: none; stroke: #bbb5ac; stroke-width: 0.8; stroke-linejoin: miter; stroke-linecap: square"/>
   </g>
   <g id="patch_45">
    <path d="M 51.770313 173.52 
L 386.570312 173.52 
" style="fill: none; stroke: #bbb5ac; stroke-width: 0.8; stroke-linejoin: miter; stroke-linecap: square"/>
   </g>
   <g id="patch_46">
    <path d="M 51.770313 7.2 
L 386.570312 7.2 
" style="fill: none; stroke: #bbb5ac; stroke-width: 0.8; stroke-linejoin: miter; stroke-linecap: square"/>
   </g>
  </g>
 </g>
 <defs>
  <clipPath id="p6408e552d4">
   <rect x="51.770313" y="7.2" width="334.8" height="166.32"/>
  </clipPath>
 </defs>
</svg>
