<?xml version="1.0" encoding="utf-8" standalone="no"?>
<!DOCTYPE svg PUBLIC "-//W3C//DTD SVG 1.1//EN"
  "http://www.w3.org/Graphics/SVG/1.1/DTD/svg11.dtd">
<svg xmlns:xlink="http://www.w3.org/1999/xlink" width="322.665625pt" height="139.798125pt" viewBox="0 0 322.665625 139.798125" xmlns="http://www.w3.org/2000/svg" version="1.1">
 <metadata>
  <rdf:RDF xmlns:dc="http://purl.org/dc/elements/1.1/" xmlns:cc="http://creativecommons.org/ns#" xmlns:rdf="http://www.w3.org/1999/02/22-rdf-syntax-ns#">
   <cc:Work>
    <dc:type rdf:resource="http://purl.org/dc/dcmitype/StillImage"/>
    <dc:date>2021-12-17T21:23:35.787764</dc:date>
    <dc:format>image/svg+xml</dc:format>
    <dc:creator>
     <cc:Agent>
      <dc:title>Matplotlib v3.5.0, https://matplotlib.org/</dc:title>
     </cc:Agent>
    </dc:creator>
   </cc:Work>
  </rdf:RDF>
 </metadata>
 <defs>
  <style type="text/css">*{stroke-linejoin: round; stroke-linecap: butt}</style>
 </defs>
 <g id="figure_1">
  <g id="patch_1">
   <path d="M 0 139.798125 
L 322.665625 139.798125 
L 322.665625 0 
L 0 0 
L 0 139.798125 
z
" style="fill: none"/>
  </g>
  <g id="axes_1">
   <g id="patch_2">
    <path d="M 36.465625 115.92 
L 315.465625 115.92 
L 315.465625 7.2 
L 36.465625 7.2 
L 36.465625 115.92 
z
" style="fill: none"/>
   </g>
   <g id="matplotlib.axis_1">
    <g id="xtick_1">
     <g id="line2d_1">
      <defs>
       <path id="m884967a08b" d="M 0 0 
L 0 3.5 
" style="stroke: #cac5d3; stroke-width: 0.8"/>
      </defs>
      <g>
       <use xlink:href="#m884967a08b" x="49.147443" y="115.92" style="fill: #cac5d3; stroke: #cac5d3; stroke-width: 0.8"/>
      </g>
     </g>
     <g id="text_1">
      <!-- 0 -->
      <g style="fill: #cac5d3" transform="translate(45.966193 130.518437)scale(0.1 -0.1)">
       <defs>
        <path id="DejaVuSans-30" d="M 2034 4250 
Q 1547 4250 1301 3770 
Q 1056 3291 1056 2328 
Q 1056 1369 1301 889 
Q 1547 409 2034 409 
Q 2525 409 2770 889 
Q 3016 1369 3016 2328 
Q 3016 3291 2770 3770 
Q 2525 4250 2034 4250 
z
M 2034 4750 
Q 2819 4750 3233 4129 
Q 3647 3509 3647 2328 
Q 3647 1150 3233 529 
Q 2819 -91 2034 -91 
Q 1250 -91 836 529 
Q 422 1150 422 2328 
Q 422 3509 836 4129 
Q 1250 4750 2034 4750 
z
" transform="scale(0.015625)"/>
       </defs>
       <use xlink:href="#DejaVuSans-30"/>
      </g>
     </g>
    </g>
    <g id="xtick_2">
     <g id="line2d_2">
      <g>
       <use xlink:href="#m884967a08b" x="98.880064" y="115.92" style="fill: #cac5d3; stroke: #cac5d3; stroke-width: 0.8"/>
      </g>
     </g>
     <g id="text_2">
      <!-- 50 -->
      <g style="fill: #cac5d3" transform="translate(92.517564 130.518437)scale(0.1 -0.1)">
       <defs>
        <path id="DejaVuSans-35" d="M 691 4666 
L 3169 4666 
L 3169 4134 
L 1269 4134 
L 1269 2991 
Q 1406 3038 1543 3061 
Q 1681 3084 1819 3084 
Q 2600 3084 3056 2656 
Q 3513 2228 3513 1497 
Q 3513 744 3044 326 
Q 2575 -91 1722 -91 
Q 1428 -91 1123 -41 
Q 819 9 494 109 
L 494 744 
Q 775 591 1075 516 
Q 1375 441 1709 441 
Q 2250 441 2565 725 
Q 2881 1009 2881 1497 
Q 2881 1984 2565 2268 
Q 2250 2553 1709 2553 
Q 1456 2553 1204 2497 
Q 953 2441 691 2322 
L 691 4666 
z
" transform="scale(0.015625)"/>
       </defs>
       <use xlink:href="#DejaVuSans-35"/>
       <use xlink:href="#DejaVuSans-30" x="63.623047"/>
      </g>
     </g>
    </g>
    <g id="xtick_3">
     <g id="line2d_3">
      <g>
       <use xlink:href="#m884967a08b" x="148.612684" y="115.92" style="fill: #cac5d3; stroke: #cac5d3; stroke-width: 0.8"/>
      </g>
     </g>
     <g id="text_3">
      <!-- 100 -->
      <g style="fill: #cac5d3" transform="translate(139.068934 130.518437)scale(0.1 -0.1)">
       <defs>
        <path id="DejaVuSans-31" d="M 794 531 
L 1825 531 
L 1825 4091 
L 703 3866 
L 703 4441 
L 1819 4666 
L 2450 4666 
L 2450 531 
L 3481 531 
L 3481 0 
L 794 0 
L 794 531 
z
" transform="scale(0.015625)"/>
       </defs>
       <use xlink:href="#DejaVuSans-31"/>
       <use xlink:href="#DejaVuSans-30" x="63.623047"/>
       <use xlink:href="#DejaVuSans-30" x="127.246094"/>
      </g>
     </g>
    </g>
    <g id="xtick_4">
     <g id="line2d_4">
      <g>
       <use xlink:href="#m884967a08b" x="198.345304" y="115.92" style="fill: #cac5d3; stroke: #cac5d3; stroke-width: 0.8"/>
      </g>
     </g>
     <g id="text_4">
      <!-- 150 -->
      <g style="fill: #cac5d3" transform="translate(188.801554 130.518437)scale(0.1 -0.1)">
       <use xlink:href="#DejaVuSans-31"/>
       <use xlink:href="#DejaVuSans-35" x="63.623047"/>
       <use xlink:href="#DejaVuSans-30" x="127.246094"/>
      </g>
     </g>
    </g>
    <g id="xtick_5">
     <g id="line2d_5">
      <g>
       <use xlink:href="#m884967a08b" x="248.077924" y="115.92" style="fill: #cac5d3; stroke: #cac5d3; stroke-width: 0.8"/>
      </g>
     </g>
     <g id="text_5">
      <!-- 200 -->
      <g style="fill: #cac5d3" transform="translate(238.534174 130.518437)scale(0.1 -0.1)">
       <defs>
        <path id="DejaVuSans-32" d="M 1228 531 
L 3431 531 
L 3431 0 
L 469 0 
L 469 531 
Q 828 903 1448 1529 
Q 2069 2156 2228 2338 
Q 2531 2678 2651 2914 
Q 2772 3150 2772 3378 
Q 2772 3750 2511 3984 
Q 2250 4219 1831 4219 
Q 1534 4219 1204 4116 
Q 875 4013 500 3803 
L 500 4441 
Q 881 4594 1212 4672 
Q 1544 4750 1819 4750 
Q 2544 4750 2975 4387 
Q 3406 4025 3406 3419 
Q 3406 3131 3298 2873 
Q 3191 2616 2906 2266 
Q 2828 2175 2409 1742 
Q 1991 1309 1228 531 
z
" transform="scale(0.015625)"/>
       </defs>
       <use xlink:href="#DejaVuSans-32"/>
       <use xlink:href="#DejaVuSans-30" x="63.623047"/>
       <use xlink:href="#DejaVuSans-30" x="127.246094"/>
      </g>
     </g>
    </g>
    <g id="xtick_6">
     <g id="line2d_6">
      <g>
       <use xlink:href="#m884967a08b" x="297.810545" y="115.92" style="fill: #cac5d3; stroke: #cac5d3; stroke-width: 0.8"/>
      </g>
     </g>
     <g id="text_6">
      <!-- 250 -->
      <g style="fill: #cac5d3" transform="translate(288.266795 130.518437)scale(0.1 -0.1)">
       <use xlink:href="#DejaVuSans-32"/>
       <use xlink:href="#DejaVuSans-35" x="63.623047"/>
       <use xlink:href="#DejaVuSans-30" x="127.246094"/>
      </g>
     </g>
    </g>
   </g>
   <g id="matplotlib.axis_2">
    <g id="ytick_1">
     <g id="line2d_7">
      <defs>
       <path id="m4396db341f" d="M 0 0 
L -3.5 0 
" style="stroke: #cac5d3; stroke-width: 0.8"/>
      </defs>
      <g>
       <use xlink:href="#m4396db341f" x="36.465625" y="92.714248" style="fill: #cac5d3; stroke: #cac5d3; stroke-width: 0.8"/>
      </g>
     </g>
     <g id="text_7">
      <!-- 0.25 -->
      <g style="fill: #cac5d3" transform="translate(7.2 96.513466)scale(0.1 -0.1)">
       <defs>
        <path id="DejaVuSans-2e" d="M 684 794 
L 1344 794 
L 1344 0 
L 684 0 
L 684 794 
z
" transform="scale(0.015625)"/>
       </defs>
       <use xlink:href="#DejaVuSans-30"/>
       <use xlink:href="#DejaVuSans-2e" x="63.623047"/>
       <use xlink:href="#DejaVuSans-32" x="95.410156"/>
       <use xlink:href="#DejaVuSans-35" x="159.033203"/>
      </g>
     </g>
    </g>
    <g id="ytick_2">
     <g id="line2d_8">
      <g>
       <use xlink:href="#m4396db341f" x="36.465625" y="65.855521" style="fill: #cac5d3; stroke: #cac5d3; stroke-width: 0.8"/>
      </g>
     </g>
     <g id="text_8">
      <!-- 0.50 -->
      <g style="fill: #cac5d3" transform="translate(7.2 69.65474)scale(0.1 -0.1)">
       <use xlink:href="#DejaVuSans-30"/>
       <use xlink:href="#DejaVuSans-2e" x="63.623047"/>
       <use xlink:href="#DejaVuSans-35" x="95.410156"/>
       <use xlink:href="#DejaVuSans-30" x="159.033203"/>
      </g>
     </g>
    </g>
    <g id="ytick_3">
     <g id="line2d_9">
      <g>
       <use xlink:href="#m4396db341f" x="36.465625" y="38.996794" style="fill: #cac5d3; stroke: #cac5d3; stroke-width: 0.8"/>
      </g>
     </g>
     <g id="text_9">
      <!-- 0.75 -->
      <g style="fill: #cac5d3" transform="translate(7.2 42.796013)scale(0.1 -0.1)">
       <defs>
        <path id="DejaVuSans-37" d="M 525 4666 
L 3525 4666 
L 3525 4397 
L 1831 0 
L 1172 0 
L 2766 4134 
L 525 4134 
L 525 4666 
z
" transform="scale(0.015625)"/>
       </defs>
       <use xlink:href="#DejaVuSans-30"/>
       <use xlink:href="#DejaVuSans-2e" x="63.623047"/>
       <use xlink:href="#DejaVuSans-37" x="95.410156"/>
       <use xlink:href="#DejaVuSans-35" x="159.033203"/>
      </g>
     </g>
    </g>
    <g id="ytick_4">
     <g id="line2d_10">
      <g>
       <use xlink:href="#m4396db341f" x="36.465625" y="12.138068" style="fill: #cac5d3; stroke: #cac5d3; stroke-width: 0.8"/>
      </g>
     </g>
     <g id="text_10">
      <!-- 1.00 -->
      <g style="fill: #cac5d3" transform="translate(7.2 15.937286)scale(0.1 -0.1)">
       <use xlink:href="#DejaVuSans-31"/>
       <use xlink:href="#DejaVuSans-2e" x="63.623047"/>
       <use xlink:href="#DejaVuSans-30" x="95.410156"/>
       <use xlink:href="#DejaVuSans-30" x="159.033203"/>
      </g>
     </g>
    </g>
   </g>
   <g id="line2d_11">
    <path d="M 49.147443 110.978182 
L 52.1314 110.843224 
L 55.115358 110.439088 
L 58.099315 109.767982 
L 61.083272 108.83357 
L 64.067229 107.640956 
L 67.051186 106.196653 
L 70.035144 104.50855 
L 73.019101 102.585867 
L 76.003058 100.439104 
L 79.981668 97.24862 
L 83.960277 93.711718 
L 87.938887 89.862728 
L 91.917497 85.739009 
L 96.890759 80.25922 
L 102.858673 73.316896 
L 111.810545 62.471353 
L 123.746374 48.033684 
L 129.714288 41.179452 
L 134.68755 35.801138 
L 138.66616 31.775887 
L 142.644769 28.039707 
L 146.623379 24.628862 
L 150.601989 21.576459 
L 153.585946 19.540345 
L 156.569903 17.733719 
L 159.55386 16.166446 
L 162.537818 14.847086 
L 165.521775 13.782846 
L 168.505732 12.979538 
L 171.489689 12.44155 
L 174.473646 12.171819 
L 177.457604 12.171819 
L 180.441561 12.44155 
L 183.425518 12.979538 
L 186.409475 13.782846 
L 189.393432 14.847086 
L 192.37739 16.166446 
L 195.361347 17.733719 
L 198.345304 19.540345 
L 201.329261 21.576459 
L 204.313219 23.830938 
L 208.291828 27.155145 
L 212.270438 30.813274 
L 216.249047 34.769817 
L 221.222309 40.076391 
L 226.195572 45.708607 
L 233.158138 53.9775 
L 254.045839 79.126502 
L 259.019101 84.66979 
L 263.992363 89.862728 
L 267.970973 93.711718 
L 271.949582 97.24862 
L 275.928192 100.439104 
L 278.912149 102.585867 
L 281.896106 104.50855 
L 284.880064 106.196653 
L 287.864021 107.640956 
L 290.847978 108.83357 
L 293.831935 109.767982 
L 296.815892 110.439088 
L 299.79985 110.843224 
L 302.783807 110.978182 
L 302.783807 110.978182 
" clip-path="url(#p18ea693d40)" style="fill: none; stroke: #cac5d3; stroke-width: 1.5; stroke-linecap: square"/>
   </g>
   <g id="patch_3">
    <path d="M 36.465625 115.92 
L 36.465625 7.2 
" style="fill: none; stroke: #cac5d3; stroke-width: 0.8; stroke-linejoin: miter; stroke-linecap: square"/>
   </g>
   <g id="patch_4">
    <path d="M 315.465625 115.92 
L 315.465625 7.2 
" style="fill: none; stroke: #cac5d3; stroke-width: 0.8; stroke-linejoin: miter; stroke-linecap: square"/>
   </g>
   <g id="patch_5">
    <path d="M 36.465625 115.92 
L 315.465625 115.92 
" style="fill: none; stroke: #cac5d3; stroke-width: 0.8; stroke-linejoin: miter; stroke-linecap: square"/>
   </g>
   <g id="patch_6">
    <path d="M 36.465625 7.2 
L 315.465625 7.2 
" style="fill: none; stroke: #cac5d3; stroke-width: 0.8; stroke-linejoin: miter; stroke-linecap: square"/>
   </g>
  </g>
 </g>
 <defs>
  <clipPath id="p18ea693d40">
   <rect x="36.465625" y="7.2" width="279" height="108.72"/>
  </clipPath>
 </defs>
</svg>
